<svg id="Layer_1" data-name="Layer 1" xmlns="http://www.w3.org/2000/svg" width="1000" height="1000" viewBox="0 0 1000 1000"><defs><style>.cls-1{fill:#458dc9;}.cls-2{fill:#fff;}.cls-3{fill:#389b48;}.cls-4{fill:#ffc41f;}.cls-5{fill:#fc7272;}.cls-6{fill:#fc7f3a;}.cls-7{fill:#d34aa2;}.cls-8{fill:#a8542a;}</style></defs><rect class="cls-1" x="627.5733" y="118.4301" width="347.4267" height="95.476" rx="47.738"/><path d="M927.262,211.917H685.5371c-4.2112,0-8.4584.149-12.6673-.0613C651.317,210.7786,633.0521,193.95,630,172.6292c-3.0374-21.2174,9.7118-42.4447,29.9589-49.5759,7.1706-2.5255,14.3325-2.6342,21.7587-2.6342H911.6357q7.5672,0,15.1343,0a46.3077,46.3077,0,0,1,41.1412,24.7333c10.0008,19.2172,4.647,43.38-12.198,56.86a45.98,45.98,0,0,1-28.4512,9.9049c-2.5591.0129-2.5645,3.9911,0,3.9782a49.7272,49.7272,0,1,0-.0991-99.4542c-1.3262-.0046-2.6524,0-3.9786,0H676.0133a50.44,50.44,0,0,0-42.2266,22.3649c-12.2622,18.4819-10.38,43.5677,4.1851,60.1972,9.8592,11.2563,23.9694,16.8921,38.7673,16.8921H927.262C929.8218,215.8952,929.826,211.917,927.262,211.917Z"/><circle class="cls-2" cx="678.958" cy="165.8366" r="48.0695"/><path d="M725.0384,165.8366a45.9308,45.9308,0,1,1-.5255-7.0661,46.5041,46.5041,0,0,1,.5255,7.0661c.0092,2.5593,3.9874,2.5643,3.9782,0a50.1947,50.1947,0,0,0-9.277-29.0223A50.058,50.058,0,0,0,629.05,161.9977a50.0217,50.0217,0,0,0,29.1307,49.3839,50.0455,50.0455,0,0,0,70.22-37.7591,53.2084,53.2084,0,0,0,.6153-7.7859C729.0258,163.2764,725.0476,163.273,725.0384,165.8366Z"/><rect x="627.5733" y="272.2526" width="347.4267" height="95.476" rx="47.738"/><path d="M927.262,365.74H685.5371c-4.2112,0-8.4584.149-12.6673-.0613-21.5528-1.0771-39.8177-17.9058-42.87-39.2265-3.0374-21.2174,9.7118-42.4447,29.9589-49.5758,7.1706-2.5256,14.3325-2.6342,21.7587-2.6342H911.6357q7.5672,0,15.1343,0a46.3075,46.3075,0,0,1,41.1412,24.7332c10.0008,19.2172,4.647,43.38-12.198,56.86A45.98,45.98,0,0,1,927.262,365.74c-2.5591.0129-2.5645,3.9911,0,3.9782a49.7272,49.7272,0,1,0-.0991-99.4542c-1.3262-.0045-2.6524,0-3.9786,0H676.0133a50.44,50.44,0,0,0-42.2266,22.3649c-12.2622,18.4819-10.38,43.5678,4.1851,60.1972,9.8592,11.2563,23.9694,16.8921,38.7673,16.8921H927.262C929.8218,369.7177,929.826,365.74,927.262,365.74Z"/><circle class="cls-2" cx="926.9305" cy="319.6591" r="48.0695"/><path d="M973.0109,319.6591a45.9307,45.9307,0,1,1-.5255-7.0661,46.504,46.504,0,0,1,.5255,7.0661c.0092,2.5593,3.9874,2.5644,3.9782,0a50.195,50.195,0,0,0-9.277-29.0223A50.058,50.058,0,0,0,877.0229,315.82a50.0217,50.0217,0,0,0,29.1307,49.3839,50.0455,50.0455,0,0,0,70.22-37.7591,53.2073,53.2073,0,0,0,.6153-7.7859C976.9983,317.099,973.02,317.0955,973.0109,319.6591Z"/><path d="M612.7857,900.7112c-5.1845-1.4961-10.5864-3.3936-14.8877-6.76-2.3245-1.819-4.5909-4.3829-4.6123-7.5019-.02-2.8577,1.8445-5.2668,3.9185-7.0446a29.4916,29.4916,0,0,1,10.8492-5.4239,61.6888,61.6888,0,0,1,18.4106-2.3c.8021.01,1.3912-1.138.7032-1.6978-7.4458-6.0583-14.97-12.5591-20.6932-20.333-2.2627-3.0733-5.6612-7.8651-4.7544-11.8626a3.9232,3.9232,0,0,1,2.0625-2.7042,9.66,9.66,0,0,1,4.6-.93c5.05.0188,10.1123,1.8954,14.617,4.0262a80.7011,80.7011,0,0,1,20.3189,14.1035,1.0023,1.0023,0,0,0,1.6623-.9676c-3.9093-12.2132-7.3644-24.9145-8.1459-37.7723a47.5526,47.5526,0,0,1,.4435-11.4817,14.9985,14.9985,0,0,1,2.5472-6.55,4.4409,4.4409,0,0,1,3.8048-1.8641,6.53,6.53,0,0,1,2.24.6065,12.0951,12.0951,0,0,1,2.6076,1.72c5.165,4.4008,8.2936,11.1976,10.6256,17.4138,3.971,10.5849,5.9486,21.894,6.8372,33.1316q.2,2.5277.3241,5.06a1,1,0,0,0,1.9536.2643c2.8463-7.5756,6.15-15.0062,9.6617-22.2933a206.1614,206.1614,0,0,1,10.0118-18.5654c3.3873-5.507,7.1152-10.9752,11.8037-15.4684,3.04-2.9139,7.2141-6.1456,11.713-5.5505,3.6784.4867,5.2088,3.4453,5.3922,6.9348.2739,5.2076-1.3665,10.5138-3.0323,15.3809a158.88,158.88,0,0,1-7.6756,18.0929c-4.0194,8.2439-8.509,16.22-13.1663,24.1149-.0782.1324-.16.2629-.2408.3938-.5554.9006.5149,1.7737,1.3607,1.3608,2.8245-1.379,5.7386-2.5932,8.67-3.7238,5.3968-2.0817,11.07-4.0265,16.8477-4.66,3.6423-.4,9.8988-.4759,10.6017,4.3571.3314,2.2785-.8769,4.59-2.0659,6.4384a37.5239,37.5239,0,0,1-5.4835,6.4432,73.9578,73.9578,0,0,1-9.6829,7.9928A1,1,0,0,0,713.7,874.91a86.7875,86.7875,0,0,1,18.3314-1.8992c3.6946.035,8.04.2082,11.2567,2.2571,3.8545,2.4548,2.5659,8.3575.9452,11.8195a20.762,20.762,0,0,1-7.4306,8.5478c-.9141.575-.3412,2.2046.7663,1.8178a8.198,8.198,0,0,1,4.572-.3245c3.97.9608,3.9283,5.7944,3.487,9.0465-.0657.4845.11,1.13.6946,1.2234,4.9558.79,10.8557,2.5571,13.1635,7.4993a9.0686,9.0686,0,0,1,.838,3.6626,9.5879,9.5879,0,0,1-.061,1.2824,1.2513,1.2513,0,1,0-.0485.2559c-.2878,1.2457,1.63,1.7775,1.9181.5287,1.1365-4.92-2.0514-9.75-6.1489-12.1606a25.9564,25.9564,0,0,0-9.1324-2.9864l.6946,1.2235c.5636-4.1535.4218-9.7165-4.3056-11.3273a9.9167,9.9167,0,0,0-6.2.1584l.7664,1.8178a23.0788,23.0788,0,0,0,7.2669-7.6108,18.2034,18.2034,0,0,0,2.6143-8.6843c.07-2.1644-.169-4.3083-1.618-6.0023-2.5111-2.9357-7.0232-3.59-10.6406-3.8864a69.4232,69.4232,0,0,0-13.9386.5154c-2.7833.3363-5.5729.7371-8.3194,1.3077l.7664,1.8177a78.6693,78.6693,0,0,0,9.006-7.2762,45.8573,45.8573,0,0,0,6.2183-6.9059,14.6043,14.6043,0,0,0,3.0155-7.1617,6.7664,6.7664,0,0,0-2.6954-5.9318,11.4136,11.4136,0,0,0-6.6514-1.8314c-6.0888-.105-12.2566,1.8583-17.9257,3.8891a116.9427,116.9427,0,0,0-11.8621,4.9356l1.3607,1.3608c4.2713-6.9255,8.1843-14.1007,11.8468-21.3632a190,190,0,0,0,8.3226-18.6167c2.0177-5.3667,3.8986-11.048,4.2082-16.8168.2032-3.7868-.5106-8.2893-4.2265-10.2072-4.0872-2.11-8.828-.4572-12.35,1.9889-5.0146,3.4829-8.9065,8.4926-12.352,13.4616A162.8431,162.8431,0,0,0,678.81,823.2057c-2.9558,5.7936-5.69,11.7007-8.2543,17.6773-1.4025,3.2684-2.9783,6.5773-4.0776,9.9663-.0511.1575-.1193.3109-.1776.4661l1.9536.2644c-.6164-12.2335-2.3753-24.5785-6.3343-36.2083-2.4049-7.0645-5.6409-14.6258-11.0788-19.9292-2.879-2.8078-7.3929-5.3557-11.1429-2.55a11.3887,11.3887,0,0,0-3.6733,5.9005,35.7644,35.7644,0,0,0-1.311,10.5494c-.0113,12.3638,3.0384,24.7772,6.5162,36.5581q.88,2.9829,1.8327,5.9438l1.6622-.9676a84.1206,84.1206,0,0,0-19.1474-13.6432c-5.0193-2.5442-10.573-4.7379-16.2536-5.0413-3.2951-.1759-7.4608.4578-9.0629,3.7723-1.9307,3.9944.68,8.9036,2.809,12.2408,5.7978,9.0874,14.4148,16.4507,22.6909,23.1846l.7033-1.6978a64.8014,64.8014,0,0,0-17.9053,2.0764,33.7438,33.7438,0,0,0-12.17,5.7445c-2.5419,2.0186-4.7325,4.785-5.0527,8.1162-.3216,3.3456,1.5,6.3849,3.855,8.61,4.6232,4.3682,11.0745,6.6616,17.0656,8.3906a.9954.9954,0,0,0,.5288-1.9181Z"/><path d="M680.0955,901.4059a45.2025,45.2025,0,0,0-2.602-6.4609c-1.6082-3.3061-3.7-6.8457-6.871-8.87a6.9611,6.9611,0,0,0-9.3856,1.4362c-2.2379,3.0612-1.5225,7.4705-.632,10.8811a41.636,41.636,0,0,0,3.2137,8.4279l1.1232-1.461c-4.4618-1.8194-10.4134-2.5911-14.77-.1687-1.8348,1.02-2.9833,2.7568-2.23,4.8649.7117,1.9906,2.4784,3.54,4.0928,4.81a31.31,31.31,0,0,0,3.8782,2.6394V915.787c-3.9567,2.5712-6.4246,7.4111-3.4551,11.6887.725,1.0443,2.45.0511,1.7175-1.004a5.1938,5.1938,0,0,1,.14-6.488,10.2983,10.2983,0,0,1,2.6014-2.4792,1.0055,1.0055,0,0,0,0-1.7175,28.8083,28.8083,0,0,1-3.651-2.4667c-1.2407-.9831-3.8714-2.9531-3.5838-4.8243.194-1.2626,1.9949-1.9179,3.0114-2.2439a13.8454,13.8454,0,0,1,5.4612-.47,21.9488,21.9488,0,0,1,6.2582,1.4949c.87.3546,1.4771-.7714,1.1231-1.4609a40.0678,40.0678,0,0,1-2.3622-5.7584c-1.0167-3.0861-2.13-6.9791-.9649-10.1755,1.1012-3.0206,4.6419-3.7714,7.2335-2.2,2.8429,1.7239,4.6876,4.9678,6.1322,7.8582a41.9012,41.9012,0,0,1,2.6028,6.3942c.3745,1.22,2.2951.7,1.918-.5287Z"/><polyline class="cls-2" points="209.099 397.156 230.1 403.156 220.5 460.158 188.098 455.958"/><path d="M208.5705,399.0736l18.3225,5.235,2.6783.7653-1.3892-2.4468-3.2484,19.2874-5.1722,30.7094-1.18,7.0054,1.918-1.46-28.3591-3.6762-4.0421-.524a1.9991,1.9991,0,0,0-1.9891,1.9891,2.04,2.04,0,0,0,1.9891,1.9891l28.3591,3.6762,4.0421.5239a1.9783,1.9783,0,0,0,1.9181-1.46l3.2484-19.2874,5.1721-30.7094,1.18-7.0054a2.0408,2.0408,0,0,0-1.3892-2.4468l-18.3225-5.235-2.6783-.7652c-2.4661-.7046-3.5189,3.1328-1.0576,3.836Z"/><path class="cls-3" d="M289.5024,254.35h-39.85a97.4548,97.4548,0,0,0-31.0727,5.0863L65.4193,310.9583a59.3346,59.3346,0,0,0-37.32,37.3213v0a59.3346,59.3346,0,0,0,17.7887,64.1074l58.7552,44.5384c15.1875,11.5125,50.6162,19.45,69.0551,14.633l35.4014-12.6,11.4-58.8023-.8395-.51a26.4068,26.4068,0,0,1-6.5067-5.7051c-6.6505-7.96-19.7327-13.9777-29.2387-16.0571l-21.6174-4.7288,97.8039-22.8009,29.4011-78.0031"/><path class="cls-4" d="M183.5814,309.3111a16.3112,16.3112,0,0,0-.6876-4.6893,16.3153,16.3153,0,1,0,0-31.2555,16.3834,16.3834,0,0,0,.4723-2.0844L130.6344,289.02a16.3173,16.3173,0,0,0,21.0038,15.6014,16.3157,16.3157,0,1,0,31.9432,4.6893Z"/><path class="cls-4" d="M65.5861,339.6446a16.312,16.312,0,0,0-4.69.6875,16.3172,16.3172,0,0,0-12.1313-20.625A59.3286,59.3286,0,0,0,28.0991,348.28l0,0a59.233,59.233,0,0,0-2.879,23.9855,16.32,16.32,0,0,0,4.4214-.6775,16.3155,16.3155,0,1,0,31.2555,0,16.3157,16.3157,0,1,0,4.69-31.9431Z"/><path class="cls-4" d="M219.6339,404.6211l.8657-4.4654-.8395-.51a26.4123,26.4123,0,0,1-6.5066-5.7051c-6.65-7.96-19.7328-13.9777-29.2386-16.0572l-11.4071-2.4952c.0981.4771.2091.9493.3473,1.41a16.3153,16.3153,0,1,0,0,31.2556,16.3154,16.3154,0,1,0,31.2556,0,16.3119,16.3119,0,0,0,15.5232-3.4331Z"/><path class="cls-4" d="M117.3022,443.077a16.3079,16.3079,0,0,0-4.6894.6875,16.3136,16.3136,0,1,0-31.9351-5.0053l23.9652,18.1663c6.1887,4.691,15.7385,8.7879,26.13,11.6708a16.3145,16.3145,0,0,0-13.47-25.5193Z"/><path d="M289.5024,252.3609H264.2839c-11.675,0-23.2651-.2985-34.7861,2.0677a148.602,148.602,0,0,0-17.4441,5.1072l-20.3917,6.86L162.0393,276.36,128.896,287.5094,97.9942,297.9045,74.745,305.7253c-3.27,1.1-6.5438,2.1922-9.8115,3.3a61.3058,61.3058,0,0,0-37.0292,82.1289,61.1178,61.1178,0,0,0,15.0717,21.314c1.66,1.5106,3.4707,2.8207,5.2576,4.1753l22.7082,17.2135,25.457,19.2972,6.6279,5.0242a59.4115,59.4115,0,0,0,11.6119,6.76,114.599,114.599,0,0,0,23.15,7.4234,107.17,107.17,0,0,0,24.3608,2.6038,43.2179,43.2179,0,0,0,13.5984-2.031l12.878-4.5837,15.4708-5.5065,4.6349-1.65c1.0008-.3563,1.9832-.6478,2.3088-1.8271.6543-2.3692.95-4.9013,1.4177-7.3122l2.88-14.8543,6.0126-31.0122,1.0673-5.5049a2.0647,2.0647,0,0,0-.9141-2.2463,27.4527,27.4527,0,0,1-6.662-5.5716,41.4122,41.4122,0,0,0-6.565-6.1009,63.6134,63.6134,0,0,0-16.915-8.7957c-6.5647-2.327-13.5958-3.4653-20.3832-4.95l-8.1523-1.7833v3.8361l8.3119-1.9378,20.4194-4.76,25.7534-6.0039,24.3136-5.6682,16.1-3.7533c.94-.2192,1.9276-.3756,2.85-.6644,1.2884-.4034,1.5986-1.81,2.0259-2.9433l5.7544-15.2667,9.01-23.9032,8.8076-23.367,5.0075-13.2852.2412-.64c.9039-2.3983-2.94-3.4346-3.8361-1.0576L277.64,298.2048l-15.8379,42.0189-3.619,9.6013,1.3893-1.3893-9.7043,2.2624-23.3131,5.4349-28.3467,6.6085-24.398,5.6879c-3.936.9175-7.99,1.6368-11.8718,2.7676-.0556.0162-.1135.0265-.17.04a2.0044,2.0044,0,0,0,0,3.8361l17.9972,3.9369c2.7577.6032,5.5131,1.1767,8.2116,2.02a62.4842,62.4842,0,0,1,16.5233,7.9076,36.5341,36.5341,0,0,1,7.2462,6.41,31.611,31.611,0,0,0,7.7488,6.5261l-.9141-2.2463L214.74,419.4432l-6.1521,31.7316-1.4065,7.2544,1.3893-1.3892-19.786,7.0425-12.2731,4.3684a37.95,37.95,0,0,1-7.8048,2.0689,77.22,77.22,0,0,1-19.5958-.2548,121.65,121.65,0,0,1-20.8926-4.4846c-8.5944-2.6287-16.7871-6.1877-23.9713-11.6336L87.7351,441.63l-23.6046-17.893L48.0265,411.53c-8.3355-6.3186-14.9238-16.3895-18.226-26.6018a57.3442,57.3442,0,0,1,35.5954-71.8627c2.334-.8107,4.6836-1.5789,7.0254-2.3666l17.3655-5.8416,24.6224-8.2828,28.2431-9.5007,28.2276-9.4956,24.5755-8.267,17.2874-5.8153c2.5126-.8452,5.0186-1.7151,7.5419-2.5284a95.72,95.72,0,0,1,28.3779-4.6233c2.3243-.0236,4.6495-.005,6.9739-.005h33.8659c2.56,0,2.564-3.9782,0-3.9782Z"/><path d="M402.5442,451.6185s5.1629,30.14-29.6385,27.14c-38.4015-3-144.6493-2.89-144.6493-2.89s-12.7481,8.2227-6.3522-27.1448,67.5982-37.7676,67.5982-37.7676"/><path d="M400.6261,452.1473c.0905.5324-.0142-.1853-.0072-.0813.0259.39.087.7785.1173,1.1683a31.0647,31.0647,0,0,1,.0464,4.0119q-.031.5979-.085,1.1943-.0252.2768-.0553.5529c-.0128.1174-.0274.2345-.0406.3518-.06.5339.05-.3068-.0141.1152-.14.9289-.3117,1.8509-.54,2.7626a17.9549,17.9549,0,0,1-2.188,5.4655,14.9676,14.9676,0,0,1-1.7954,2.5173q-.5607.6388-1.1784,1.2245-.3522.3339-.7215.6491c-.1338.1142-.6849.5526-.5292.4347a20.3264,20.3264,0,0,1-7.5182,3.5014c-6.401,1.6341-12.9854.7169-19.4794.3258-13.1225-.79-26.2724-1.1527-39.4136-1.4616q-22.7135-.5339-45.4332-.7267-18.8016-.1908-37.6043-.2481-5.7965-.0187-11.593-.0246c-1.4332-.0012-2.9024-.095-4.3337-.0008a3.0486,3.0486,0,0,0-1.1662.365c-.2792.1352-.9516.303-.1645.1052-.3184.08-.6291.2181-.95.3023-.4714.124-.3209.0193-.0656.029-.205-.0078-.432.0148-.638.0243-.6515.03.3058.1587-.1363-.0074-.26-.0975-.8838-.3991-.2679-.0365-.1883-.1108-.4048-.2446-.602-.3357-.3763-.1736.2575.2579.0752.0616-.1062-.1144-.2368-.2247-.351-.3317-.103-.0966-.1844-.2136-.2783-.3183.4251.4743.0763.1112-.0159-.0489-.1926-.3346-.3788-.6609-.5486-1.0086-.1241-.2542.18.4778.0249.0612-.0314-.0842-.0671-.1667-.096-.2518-.069-.2027-.1409-.4036-.2037-.6084a15.211,15.211,0,0,1-.3689-1.4806,37.3136,37.3136,0,0,1-.29-8.81,85.9544,85.9544,0,0,1,1.9087-13.8155,30.91,30.91,0,0,1,8.3392-14.8207c8.3563-8.4543,20.0928-13.0154,31.4583-15.9671a137.2285,137.2285,0,0,1,15.3089-3.0287q.3394-.0478.6792-.0943c.5423-.0743-.2812.0369.0517-.0069.1356-.0178.2712-.0359.4068-.0533q.7779-.0994,1.5566-.1929,1.2781-.1513,2.559-.2791c1.2323-.1227,2.4665-.2293,3.7022-.3112.438-.0291.8764-.0574,1.315-.0748,2.5514-.1012,2.5644-4.08,0-3.9781a119.1071,119.1071,0,0,0-14.2,1.5892A113.8174,113.8174,0,0,0,246.9,418.6805c-9.4739,4.24-18.65,10.63-23.6024,20.0079-3.1807,6.023-4.0735,12.8411-4.7737,19.5336-.5166,4.9373-1.0388,10.69.7677,15.452.9706,2.5585,2.7808,4.7289,5.6542,4.9848a7.1346,7.1346,0,0,0,4.1345-.9675c.0595-.036.1217-.0676.18-.1052l-1.0039.2715q10.7309-.0109,21.4618.0461,24.3739.1027,48.7466.4275c17.5269.2449,35.0571.5689,52.5735,1.2426,6.8007.2616,13.6029.5675,20.3912,1.0627,8.0631.5881,16.8189.5143,23.72-4.3292,7.66-5.3766,10.543-15.1864,9.4534-24.1967-.0412-.3407-.0829-.6824-.14-1.0209a2.0052,2.0052,0,0,0-2.4468-1.3893,2.0354,2.0354,0,0,0-1.3893,2.4469Z"/><polyline class="cls-5" points="374.706 820.172 374.706 874.774 311.103 887.375 309.303 804.572"/><path d="M372.7167,820.1722v54.6021l1.46-1.918-21.4529,4.25-34.2354,6.7825-7.9142,1.5679,2.5179,1.918-.6087-28-.97-44.6019-.2218-10.2014c-.0556-2.5561-4.0339-2.5651-3.9782,0l.6087,28,.97,44.6019.2218,10.2014a2.019,2.019,0,0,0,2.5178,1.918l21.4529-4.25L367.32,878.26l7.9142-1.5679a2.0064,2.0064,0,0,0,1.46-1.918V820.1722c0-2.56-3.9781-2.564-3.9781,0Z"/><polyline class="cls-5" points="300.667 254.35 301.776 199.383 348.402 217.335 349.858 253.422"/><path d="M302.6558,254.35l.3762-18.6317.5964-29.5417.1372-6.7937-2.5179,1.918,15.7438,6.0617,25.105,9.6657,5.7771,2.2243-1.46-1.918,1.2733,31.5711.1821,4.5159c.1029,2.5512,4.0816,2.5643,3.9782,0l-1.2733-31.5711-.1821-4.5159a2.0769,2.0769,0,0,0-1.46-1.918l-15.7438-6.0616-25.105-9.6658-5.7771-2.2243a2.0047,2.0047,0,0,0-2.5179,1.918l-.3762,18.6317-.5964,29.5417-.1372,6.7937c-.0517,2.5609,3.9265,2.5607,3.9782,0Z"/><path class="cls-5" d="M340.6533,224.6515a90.1436,90.1436,0,0,0,12.4809,1.77,11.8433,11.8433,0,0,0,3.8383-.3453c17.8259-4.6206,24.9632-21.3322,27.27-39.0751h1.7028c5.6105.7906,7.74-.582,7.0928-4.1063-5.0821-5.5522-7.222-8.6481-7.7788-12.6578l-.1378-2.5977a180.1844,180.1844,0,0,0-3.57-30.938L292.05,133.4974s-11.6258,19.1541-10.771,27.9756c1.4715,15.1915,16.2736,26.07,20.3619,45.6562"/><path d="M340.1245,226.57c2.87.6143,5.7654,1.0786,8.6793,1.4253,2.9063.3459,5.8178.7173,8.6975-.001a32.6563,32.6563,0,0,0,11.74-5.6122c6.76-5.1269,11.0918-12.5726,13.7474-20.5241a79.6081,79.6081,0,0,0,3.2433-14.8568l-1.9891,1.9891c3.4194,0,8.5532,1.2425,10.4027-2.6723a5.51,5.51,0,0,0,.48-2.6664,3.4325,3.4325,0,0,0-.6811-2.1632c-.5859-.706-1.2382-1.3628-1.8415-2.0547a29.8336,29.8336,0,0,1-4.2279-5.8353,11.3709,11.3709,0,0,1-.8962-2.36,11.0668,11.0668,0,0,1-.2631-1.27c.0784.5733-.0018-.3775-.0111-.5534-.1329-2.5036-.1939-5.01-.3472-7.5127-.36-5.8832-1.0163-11.749-1.915-17.5739-.4208-2.7275-.8727-5.461-1.4729-8.1559a2.0212,2.0212,0,0,0-1.918-1.46l-8.8968-.3185-21.3673-.7648-25.8538-.9254-22.3559-.8c-3.6041-.129-7.2664-.4613-10.8738-.3892-.0511.0011-.103-.0036-.1542-.0055a1.9927,1.9927,0,0,0-1.7175.9852c-1.5339,2.53-2.9407,5.1458-4.2808,7.7829a72.0952,72.0952,0,0,0-6.0667,15.02,19.08,19.08,0,0,0-.6088,6.9426,32.3114,32.3114,0,0,0,2.2634,8.4358c2.332,5.6334,5.7467,10.7,8.914,15.8813,4.0447,6.6167,7.5418,13.4633,9.1692,21.1018.5332,2.5026,4.369,1.4436,3.8361-1.0575a64.9422,64.9422,0,0,0-7.6984-18.9169c-3.026-5.22-6.5183-10.1833-9.2243-15.5852-2.1369-4.2656-4.0284-9.4625-3.1726-14.1064.9239-5.0141,3.1031-9.8086,5.3448-14.3529,1.5314-3.1045,3.164-6.1763,4.9591-9.1378l-1.7175.9852,8.8967.3184,21.3674.7648,25.8537.9254,22.3559.8,7.371.2638a31.1683,31.1683,0,0,0,3.5028.1254,1.3754,1.3754,0,0,1,.1543.0055l-1.9181-1.46c1.0075,4.5237,1.6854,9.1415,2.243,13.7387.5737,4.7307.9762,9.4837,1.1733,14.2452.1154,2.7879-.0006,5.66.9809,8.3176,1.5372,4.1618,4.6576,7.5444,7.6008,10.77l-.5116-.8777c.0308.1849.0425.7971.04.8553.0073-.1784-.0629.2731-.0862.3267.143-.33-.0924.1553-.1243.1946.2778-.3419-.2792.1731.052-.0584-.0438.03-.431.2421-.3049.1917a5.815,5.815,0,0,1-.8978.24c-1.8115.2788-3.7259-.1616-5.5565-.1616a2.05,2.05,0,0,0-1.9891,1.989c-1.9688,14.9277-8.1341,31.4383-23.7353,36.55a15.9533,15.9533,0,0,1-3.6651.8834,25.9119,25.9119,0,0,1-4.6251-.2589,84.8739,84.8739,0,0,1-9.0462-1.4414c-2.4967-.5345-3.5636,3.2995-1.0575,3.836Z"/><path d="M343.9576,176.2226a46.9633,46.9633,0,0,0-2.06-5.5058c-1.2151-2.7886-2.7538-5.83-5.1769-7.7638a6.0794,6.0794,0,0,0-5.3066-1.4087,1.99,1.99,0,0,0,1.0576,3.8361c.0619-.0148.1317-.0245.1932-.0431.286-.0863-.21.0485-.2411.0287.056.0351.3074-.0175.3794-.0164.0606.001.1271.011.188.0084.2869-.0122-.22-.0153-.2492-.0384.0849.0676.3486.0724.46.1056.0591.0176.1212.0451.1816.0594.282.0668-.187-.0578-.2053-.0938.03.0584.2928.14.3549.1738.1192.0645.2355.1344.3492.2079.0583.0376.1143.0783.1724.116.2994.1944-.0085.1222-.0623-.0559.05.1671.5267.46.6618.5948.2365.2356.46.4839.6742.74.0933.1118.44.6072.1086.1263.0949.1378.2.2692.2966.4058q.3159.4465.6052.9111a30.7486,30.7486,0,0,1,2.023,3.8841c.0674.1522.1325.3054.2.4578.1364.31-.0419-.1043-.0573-.1372.0337.0721.0624.1485.0925.2223.1307.32.26.64.3852.9623q.3051.7858.5836,1.5818c.1967.5619.3887,1.1269.5563,1.6984a1.99,1.99,0,0,0,3.8361-1.0576Z"/><path d="M378.5418,156.6314a16.9914,16.9914,0,0,0-5.89-2.37,19.2484,19.2484,0,0,0-13.5445,2.0982c-2.238,1.2441-.234,4.6813,2.0079,3.435a15.1511,15.1511,0,0,1,5.9237-1.948,14.7062,14.7062,0,0,1,4.9624.3441,17.979,17.979,0,0,1,1.9979.6076c.157.0578.3116.1228.4687.18.3615.1321-.1839-.0855.0264.01.23.1041.4608.207.6877.3186a10.8719,10.8719,0,0,1,1.3519.76,1.9894,1.9894,0,1,0,2.0079-3.435Z"/><circle cx="371.4467" cy="168.8252" r="3.1339"/><path d="M367.3187,168.7763a4.1906,4.1906,0,0,0,2.6945,3.9162,4.1271,4.1271,0,0,0,4.54-1.1527,4.126,4.126,0,1,0-7.2344-2.7635,1.0029,1.0029,0,0,0,.9945.9945,1.0145,1.0145,0,0,0,.9946-.9945c.0025-.0873.0118-.1741.0148-.2612-.0066.191-.0113.0611,0,.01.0305-.1379.06-.2742.1033-.4087.0113-.0347.1173-.2864.02-.0725.0228-.05.0464-.1.0717-.1488a3.3482,3.3482,0,0,1,.2587-.4183c-.1193.1664-.0134.0178.024-.0211.0471-.049.0914-.1.14-.1486q.0579-.0574.1186-.112c.0285-.0255.2414-.181.0527-.05a3.6554,3.6554,0,0,1,.3463-.2181c.0484-.0263.098-.0492.1467-.0746q.1547-.07-.01.0027.0582-.0225.1175-.0419c.1352-.0379.267-.08.4054-.1065.0581-.0112.2422-.02.031-.007.0722-.0045.1438-.0107.2161-.0126s.146-.0015.219.0016c-.0014,0,.2831.0205.1266.0053-.153-.0149.1184.023.1208.0235q.1238.0261.2452.062c.08.0237.1585.0521.2371.0809-.0364-.0134-.1743-.0863-.01-.0014a3.94,3.94,0,0,1,.3576.2022s.2161.1571.0985.0656.0874.0784.0877.0787a3.5154,3.5154,0,0,1,.3358.3555c-.1247-.1492-.0317-.0418-.0092-.0048.0427.07.09.1367.131.2078.0273.0474.0535.0957.0783.1445.0182.0357.111.2828.0336.0642a3.7791,3.7791,0,0,1,.1223.399c.0129.0549.0231.11.0341.1655.0388.1934-.0056-.1424.0082.1187.007.1316-.0021.2615-.0031.3929-.0022.2742.0477-.1884-.0075.0769-.0115.0554-.0217.1109-.0349.166a3.54,3.54,0,0,1-.1244.4c.08-.2184-.0177.03-.0353.0642q-.0564.11-.1214.2147c-.0351.0566-.0833.1113-.1137.17-.0661.1287.1482-.1542-.0206.0238-.0942.0993-.1831.2-.2853.2912-.001.0009-.2077.1659-.0885.0776s-.0991.0645-.099.0644a3.1109,3.1109,0,0,1-.4331.2347c.0376-.0166.1816-.0625.0066-.0086-.08.0247-.1584.0521-.2394.0734-.0542.0143-.109.0271-.1639.0385-.0039.0008-.2727.0344-.12.0223.1572-.0124-.1263.0042-.1253.0041-.0729.0029-.1458.0029-.2188.0008s-.1447-.0082-.2172-.0135c.2275.0168-.0206-.0053-.074-.0165a3.4705,3.4705,0,0,1-.4822-.143c.1934.0711.0214.01-.0274-.0169-.0843-.0462-.17-.0891-.2515-.14-.0466-.0289-.0907-.0609-.1371-.09q-.136-.0988.0055.008-.0633-.0516-.1238-.1065c-.1012-.0917-.1911-.1926-.2837-.2926-.1755-.19.0917.163-.0429-.0581-.0427-.07-.09-.1365-.1309-.2078s-.0766-.1453-.1147-.2183c-.0953-.1828.0358.1486-.0259-.0684-.0463-.163-.0927-.32-.1278-.4865-.0116-.0548-.0019-.1772.001.0106-.0018-.1159-.0138-.2311-.0135-.3474a.9946.9946,0,1,0-1.9891,0Z"/><path d="M325.7534,184.7766a16.994,16.994,0,0,0,17.1513,7.7654,2.0011,2.0011,0,0,0,1.3892-2.4469,2.0429,2.0429,0,0,0-2.4468-1.3892q.2279-.0356-.1449.0111-.22.0222-.4407.0382-.43.0312-.8609.0387a14.7674,14.7674,0,0,1-1.64-.0631q-.1968-.0187-.3929-.0428.3093.0419-.0478-.0117c-.2486-.0468-.4975-.0886-.7447-.143q-.6257-.1377-1.2372-.3316-.3372-.1069-.669-.23c-.0772-.0287-.7451-.3153-.3224-.1236-.4023-.1825-.7989-.3743-1.186-.5877q-.55-.3034-1.0749-.6506-.2511-.1659-.4957-.3411c-.0437-.0313-.51-.3792-.2656-.192s-.198-.1609-.2394-.1951q-.2088-.1721-.4118-.3507-.38-.3338-.7394-.6891-.5838-.5766-1.1113-1.2067c-.0649-.0777-.1282-.1565-.1924-.2346-.1635-.199-.1446-.3938.0742.1a2.7162,2.7162,0,0,0-.2863-.39c-.0789-.1122-.1576-.2251-.23-.3419-1.3411-2.1754-4.7836-.18-3.435,2.0079Z"/><path class="cls-2" d="M307.4724,869.5184l.2544,60.4581H441.9656s2.2891-38.1191-47.8375-42.1379a17.9047,17.9047,0,0,1-16.4023-18.06c.0265-2.6529.0554-4.7993.0843-6.5332a6.9572,6.9572,0,0,0-6.96-7.0715h-5.7451l-15.284,9.4305a24.33,24.33,0,0,1-25.7552-.1266l-4.3524-2.745A7.983,7.983,0,0,0,307.4724,869.5184Z"/><path d="M305.4833,869.5184l.0864,20.5167.1364,32.4263.0316,7.5151a2.0186,2.0186,0,0,0,1.9891,1.989H425.3877c5.44,0,10.9205.1961,16.3577,0,.0732-.0026.1469,0,.22,0a2.0307,2.0307,0,0,0,1.9891-1.989,36.9379,36.9379,0,0,0-2.9274-15.3876c-4.5827-11.4038-13.8355-19.5457-25.1516-24.0449a65.23,65.23,0,0,0-12.2908-3.464c-2.4809-.457-4.9853-.801-7.4951-1.0532a22.2079,22.2079,0,0,1-6.739-1.3717,16.0773,16.0773,0,0,1-8.4986-8.7312,17.3068,17.3068,0,0,1-1.1323-6.6371c.0209-2.5412.35-5.2654-.0782-7.78a9.0737,9.0737,0,0,0-9.1094-7.322c-1.4292-.0076-2.8587,0-4.2879,0a4.4416,4.4416,0,0,0-2.3821.4191c-4.6462,2.6344-9.1208,5.6278-13.6665,8.4326a26.8876,26.8876,0,0,1-8.8218,3.785,22.34,22.34,0,0,1-15.236-2.4251c-2.4059-1.3513-4.6006-3.24-7.1836-4.2435a10.0163,10.0163,0,0,0-11.2809,3.1034,10.1547,10.1547,0,0,0-2.19,6.2624c-.0388,2.5608,3.9394,2.5617,3.9782,0a6.05,6.05,0,0,1,9.281-5.0477c3.967,2.4186,7.6654,4.9811,12.29,6.05a26.66,26.66,0,0,0,19.7952-3.2006c2.3438-1.4251,4.6694-2.8811,7.0038-4.3215l8.2782-5.1078-1.0039.2716c3.2709,0,7.9836-.9133,9.9909,2.3841a6.77,6.77,0,0,1,.7058,3.8976c-.0276,1.8358-.0721,3.6735-.0654,5.51a20.4259,20.4259,0,0,0,2.0783,8.8741,19.86,19.86,0,0,0,13.7194,10.6412c3.1505.6287,6.4145.674,9.5894,1.2011a71.8645,71.8645,0,0,1,8.5456,1.9384c8.4018,2.4757,16.144,6.784,21.7857,13.4875a37.8074,37.8074,0,0,1,5.061,8.0106c.1571.3356.3078.6739.4569,1.0132.1511.3438.0245.0529.0616.1427q.11.2677.2177.5367.3845.968.7179,1.9549.6227,1.8415,1.0668,3.7372.375,1.5986.62,3.2239c.0169.1124.0322.225.0493.3373.0669.4394-.0459-.3834-.0046-.0376.0268.2254.0559.4505.0809.6761q.0678.6126.1154,1.2272c.0743.9683-.01,1.9651.0843,2.9257a.8648.8648,0,0,1-.0059.1324l1.9891-1.9891H313.1978c-1.7208,0-3.5355-.1656-5.2507,0-.072.0069-.1478,0-.22,0l1.9891,1.9891L309.63,909.46l-.1365-32.4264-.0316-7.515C309.4507,866.9591,305.4725,866.954,305.4833,869.5184Z"/><path d="M262.107,422.1143s-28.9874,5.5745-32.3321,22.298,39.0215,20.6257,39.0215,20.6257"/><path d="M261.5782,420.1962a69.33,69.33,0,0,0-13.9068,4.4283c-7.3282,3.1257-15.1935,7.8691-18.56,15.45-1.3852,3.1187-2.0964,6.6326-.8245,9.9105a16.039,16.039,0,0,0,6.2061,7.1789c5.812,3.9979,13.0435,6.0109,19.8527,7.5239a116.351,116.351,0,0,0,14.4511,2.34,2.0039,2.0039,0,0,0,1.9891-1.9891,2.0315,2.0315,0,0,0-1.9891-1.9891c-1.0577-.0979-2.1125-.2337-3.1655-.3722.544.0716-.0774-.0109-.2814-.0393q-.4041-.0566-.8078-.1155-.936-.1367-1.87-.2868-2.177-.35-4.3414-.7726c-6.5154-1.2756-13.246-2.9714-18.9846-6.0211a29.5264,29.5264,0,0,1-3.7062-2.3371,17.2665,17.2665,0,0,1-1.5327-1.3752,9.3606,9.3606,0,0,1-1.1032-1.29,12.3487,12.3487,0,0,1-.8844-1.531c-.2371-.4947.1283.3793-.0566-.1353-.0559-.1554-.1126-.31-.1623-.4677-.1-.3171-.17-.6375-.2434-.9614-.0182-.08-.0816-.6255-.0288-.1315-.018-.1682-.0323-.3366-.0409-.5056q-.0222-.4308-.0015-.8624c.0058-.1256.1084-.955.0412-.5394a14.0967,14.0967,0,0,1,.3624-1.5915c2.0326-7.1679,9.2068-11.7361,15.6371-14.74a65.3788,65.3788,0,0,1,15.0094-4.9411c2.511-.4852,1.4479-4.32-1.0576-3.8361Z"/><polyline class="cls-5" points="202.835 790.117 173.581 836.221 113.126 812.784 155.97 741.904"/><path d="M201.1176,789.1135l-9.8883,15.5836-15.7561,24.831-3.61,5.6893,2.2463-.9141-20.3911-7.9053-32.5409-12.6155-7.5225-2.9164,1.1887,2.922L129.3314,789.82l23.0778-38.18,5.2784-8.7325c1.3278-2.1967-2.1109-4.1985-3.435-2.0079l-14.4877,23.9682-23.0778,38.18-5.2784,8.7325a2.0189,2.0189,0,0,0,1.1887,2.922l20.3911,7.9053,32.5409,12.6155,7.5225,2.9164a2.0063,2.0063,0,0,0,2.2463-.9141l9.8883-15.5836,15.7561-24.831,3.61-5.6894c1.3757-2.168-2.0656-4.166-3.435-2.0078Z"/><path class="cls-2" d="M119.6274,795.7616,87.45,846.9463l113.346,71.9217s22.356-30.96-17.8158-61.21a17.9046,17.9046,0,0,1-4.1731-24.0373c1.4436-2.2259,2.618-4.0228,3.5715-5.4713a6.9572,6.9572,0,0,0-2.0877-9.7l-4.851-3.0781-17.9579-.226A24.33,24.33,0,0,1,135.8036,801.24l-2.2043-4.65A7.983,7.983,0,0,0,119.6274,795.7616Z"/><path d="M117.91,794.7576l-10.9194,17.37L89.7325,839.58l-4,6.3623a2.0227,2.0227,0,0,0,.7136,2.7215L97.7393,855.83l27.1123,17.2037L157.5322,893.77l28.2626,17.9335c4.5869,2.9105,9.0967,6.0626,13.8117,8.764.0635.0364.1242.0788.186.118a2.0354,2.0354,0,0,0,2.7215-.7136,28.1021,28.1021,0,0,0,2.7356-5.0151,43.1371,43.1371,0,0,0,3.5735-13.578c1.4717-15.83-7.1721-30.0388-18.6178-40.265-3.62-3.2347-8.1048-5.7376-10.4595-10.13A15.9711,15.9711,0,0,1,178.4,839.43a20.2919,20.2919,0,0,1,2.909-6.0122,34.74,34.74,0,0,0,3.631-5.9636,9.0666,9.0666,0,0,0-3.7456-10.7854c-1.0362-.68-2.0945-1.329-3.1411-1.9931a6.0087,6.0087,0,0,0-2.6538-1.2931c-1.79-.12-3.6153-.0455-5.4088-.0681-4.7471-.06-9.5948.1661-14.3291-.2483-8.2-.7178-14.9321-6.0622-18.3916-13.36-1.1644-2.4562-2.1441-5.3336-4.2547-7.1581a9.9773,9.9773,0,0,0-15.1054,2.2092c-1.4069,2.1478,2.0362,4.1433,3.4351,2.0079a6.0586,6.0586,0,0,1,10.5533.8638c2.0474,4.1585,3.7932,8.2441,7.1065,11.6241a26.5819,26.5819,0,0,0,17.0189,7.82c3.0071.2181,6.0586.12,9.0708.1578l10.3458.13-1.0039-.2716,3.5313,2.2407c1.3159.835,2.605,1.6059,3.2237,3.1392,1.0037,2.4871-.3851,4.45-1.6983,6.4572a39.9959,39.9959,0,0,0-4.3559,7.6329,20.0749,20.0749,0,0,0,.7182,15.4205c2.6171,5.6372,8.1126,8.6683,12.5188,12.7387,7.3943,6.8308,13.5805,15.2828,15.7946,25.2508a36.4529,36.4529,0,0,1-.9643,19.1665q-.3094.9729-.6672,1.93c-.13.3464-.2658.69-.4028,1.0336-.0377.0946-.0772.1883-.1158.2825-.1332.3256.142-.31-.0888.2054-.4286.9574-.8746,1.9044-1.3726,2.8281a22.1925,22.1925,0,0,1-1.4784,2.4489l2.7215-.7136-11.2929-7.1657-27.1123-17.2036-32.6806-20.7369L102.452,854.1108,93.0738,848.16c-1.4546-.9231-2.8975-2.0283-4.4335-2.8133-.0645-.0329-.1247-.0791-.186-.118l.7136,2.7215,10.9194-17.37,17.258-27.4527,4-6.3623C122.7115,794.5917,119.2707,792.593,117.91,794.7576Z"/><path class="cls-6" d="M270.3017,400.1557l-29.32,47.4517a119.3062,119.3062,0,0,0-17.6885,57.2949L218.7,605.9638c-26.55,35.763-87.7345,157.5926-87.7345,157.5926l5.7386,10.9033a25.2012,25.2012,0,0,0,23.6492,13.4278l21.0024-1.1251,8.2311,16.1044a25.2012,25.2012,0,0,0,22.44,13.7319h13.0886l6.886,13.4725a25.2013,25.2013,0,0,0,26.5008,13.4026l14.3512-2.3431,9.63,6.9211a25.2009,25.2009,0,0,0,24.69,2.6763l20.7116-8.9344,16.0424,6.5815a25.2012,25.2012,0,0,0,19.556-.1791l19.4329-8.3915v0A25.2014,25.2014,0,0,0,415.5975,813.67L382.9159,422.0969"/><path d="M268.5842,399.1518,247.9367,432.568q-4.2753,6.9195-8.5509,13.8389a122.19,122.19,0,0,0-15.3313,37.6778c-2.8627,12.9739-2.998,26.2675-3.5985,39.48l-2.3087,50.791c-.4761,10.4745-.5791,21.0439-1.4316,31.4962-.0247.3027.2758-.588.002-.5344-.3742.0734-1.2106,1.6669-1.447,1.9989q-1.4133,1.9851-2.7754,4.0061c-2.16,3.1935-4.247,6.436-6.2958,9.7017-4.88,7.7783-9.5463,15.69-14.1268,23.6472-10.4432,18.1423-20.4347,36.5443-30.2611,55.0265q-12.3794,23.2837-24.3855,46.7638-3.3213,6.4869-6.6132,12.9888c-.471.9312-.9932,1.8532-1.4169,2.8073-.8011,1.8037.3152,3.1833,1.1607,4.79,1.5279,2.9029,3.0118,5.8341,4.5895,8.71a27.5017,27.5017,0,0,0,14.0855,12.3252c7.6511,3.0061,16.4773,1.5066,24.4744,1.0782l7.6493-.41-1.7176-.9852c2.7346,5.35,5.4135,10.733,8.2052,16.0536a27.411,27.411,0,0,0,12.5477,12.144,31.1609,31.1609,0,0,0,13.5189,2.6238h11.2056l-1.7175-.9851,4.3449,8.5009c1.7276,3.38,3.3085,6.8295,5.7265,9.791a27.1034,27.1034,0,0,0,16.0281,9.4385c4.3355.7723,8.4689.2326,12.7448-.4655l11.14-1.8188-1.5327-.2005c7.2419,5.2051,14.0342,11.1075,23.3367,11.85,8.8.7026,16.9379-3.9555,24.7732-7.3354l8.9293-3.8519-1.5327.2006c6.1182,2.51,12.2552,5.6378,18.6161,7.475a27.89,27.89,0,0,0,18.8492-1.4175c3.2-1.3689,6.3918-2.76,9.5875-4.14l9.5112-4.1071-1.5327.2005A27.439,27.439,0,0,0,415.2978,826.91a29.3767,29.3767,0,0,0,2.1705-14.6561l-1.61-19.2951L412.71,755.24l-4.2581-51.0184-4.891-58.6011-5.0929-61.0212-4.867-58.3142-4.16-49.8369-3.0257-36.2535c-.4831-5.7872-.9225-11.58-1.4492-17.3636-.0223-.2445-.0409-.4894-.0613-.7341-.2114-2.5329-4.1915-2.5554-3.9782,0l1.684,20.1764L386.953,494.3l6.034,72.2962,6.6512,79.6916,6.3278,75.816,4.9265,59.0267,2.5653,30.7357c.0492.59.1045,1.18.1478,1.7712a23.2838,23.2838,0,0,1-20.3508,25.215,22.9066,22.9066,0,0,1-6.7263-.1972c-1.61-.2922-3.1016-1.1037-4.69-.5359-4.8216,1.7236-9.4991,4.1019-14.1994,6.1315-1.715.7406-3.4194,1.5168-5.1488,2.2234a23.6668,23.6668,0,0,1-16.5732.5309c-5.0378-1.7025-9.9229-4.0187-14.84-6.036-1.6335-.67-2.7208-1.4355-4.4538-.7815-1.9386.7317-3.8254,1.65-5.7276,2.4708-4.8513,2.0927-9.675,4.27-14.5607,6.2811-8.4166,3.4644-16.8883,1.6793-24.0917-3.4981L275.1,840.3067c-1.6353-1.1754-2.6829-1.1092-4.6208-.7928-5.487.8958-11.3215,2.4771-16.9127,2.2844-8.8726-.3059-16.2244-5.6821-20.2017-13.4228q-3.28-6.3834-6.5324-12.7808a1.9747,1.9747,0,0,0-1.7175-.9851c-6.7507,0-14.3547.9186-20.8274-1.323a23.5058,23.5058,0,0,1-12.99-11.4366c-1.2941-2.4681-2.5373-4.9644-3.8056-7.4458l-4.4189-8.6457a1.9506,1.9506,0,0,0-1.7175-.9852l-19.5258,1.046a25.4294,25.4294,0,0,1-13.4132-2.44,24.8016,24.8016,0,0,1-10.54-10.9595l-5.1933-9.8673V764.56q4.1247-8.212,8.3288-16.3844,10.1323-19.7847,20.51-39.4425c8.4486-15.9915,17.0228-31.9189,25.8505-47.7047,7.9186-14.16,15.9772-28.2764,24.7563-41.925,1.6821-2.6151,3.3955-5.2107,5.1652-7.7675,1.0965-1.5842,3.1661-3.5746,3.4006-5.5014.3174-2.6081.2422-5.328.3614-7.95l1.7865-39.3046,1.8867-41.5059c.5483-12.0632,1.0562-23.9513,4.0706-35.7526a118.6958,118.6958,0,0,1,14.0051-32.8809q3.3276-5.4012,6.6694-10.7938l21.0982-34.1459,1.4467-2.3413c1.3495-2.184-2.09-4.1841-3.435-2.0078Z"/><path d="M176.3654,845.3237a12.1014,12.1014,0,0,0-2.9958.2426,12.9767,12.9767,0,0,0-5.5184,2.3618,13.8353,13.8353,0,0,0-3.3457,3.6026,2.0056,2.0056,0,0,0,.7136,2.7215,2.0329,2.0329,0,0,0,2.7214-.7136c.1126-.1748.2272-.348.3476-.5174q.0882-.1239.18-.2455-.2391.3058-.0355.05c.2488-.29.4963-.5782.7677-.8481.2567-.2554.5295-.4892.8047-.7239q.2514-.2-.0939.07.1028-.0774.2073-.1522.1543-.1105.3127-.2157a12.11,12.11,0,0,1,1.6751-.9137c.3247-.1485-.4678.1834.04-.0114q.2013-.0773.4054-.1471.3649-.1251.7375-.2266c.4584-.1253.922-.217,1.39-.2963.4764-.0806-.4543.0495-.1314.016.0987-.01.1972-.0229.296-.0326q.248-.0243.4966-.0383a7.6113,7.6113,0,0,1,1.0254-.004,1.9981,1.9981,0,0,0,1.9891-1.9891,2.0392,2.0392,0,0,0-1.9891-1.9891Z"/><path d="M181.2905,854.0992a12.1006,12.1006,0,0,0-2.9957.2426,12.9771,12.9771,0,0,0-5.5185,2.3618,13.8349,13.8349,0,0,0-3.3456,3.6026,2.0054,2.0054,0,0,0,.7135,2.7214,2.0329,2.0329,0,0,0,2.7215-.7135c.1125-.1748.2271-.348.3476-.5174q.088-.124.1794-.2455-.2389.3058-.0355.05c.2489-.29.4963-.5782.7677-.8482.2567-.2553.53-.4891.8048-.7238q.2514-.2-.0939.07.1028-.0774.2072-.1522.1545-.1107.3127-.2157a12.11,12.11,0,0,1,1.6751-.9137c.3247-.1486-.4677.1834.04-.0114q.2013-.0772.4054-.1471.3651-.1251.7376-.2266c.4584-.1253.922-.217,1.39-.2963.4763-.0806-.4544.0495-.1315.016.0988-.01.1972-.0229.2961-.0326q.2478-.0243.4965-.0383a7.6115,7.6115,0,0,1,1.0254-.004,1.9981,1.9981,0,0,0,1.9891-1.9891,2.0391,2.0391,0,0,0-1.9891-1.9891Z"/><path d="M188.8273,861.3031a12.1014,12.1014,0,0,0-2.9958.2426,12.9767,12.9767,0,0,0-5.5184,2.3618,13.8337,13.8337,0,0,0-3.3457,3.6026,2.0054,2.0054,0,0,0,.7136,2.7214,2.0328,2.0328,0,0,0,2.7214-.7136c.1126-.1748.2272-.3479.3476-.5174q.0882-.1239.1795-.2454-.2391.3057-.0355.05c.2488-.29.4963-.5782.7677-.8482.2567-.2553.53-.4891.8047-.7238q.2514-.2-.0939.07.1028-.0774.2073-.1523.1543-.1105.3127-.2156a12.1206,12.1206,0,0,1,1.6751-.9138c.3247-.1485-.4678.1835.04-.0113q.2013-.0773.4054-.1472.3649-.125.7375-.2266c.4584-.1252.922-.2169,1.39-.2962.4764-.0806-.4543.0495-.1314.016.0987-.01.1972-.0229.296-.0326q.248-.0243.4966-.0383a7.6113,7.6113,0,0,1,1.0254-.004,1.9982,1.9982,0,0,0,1.9891-1.9891,2.0391,2.0391,0,0,0-1.9891-1.9891Z"/><path class="cls-7" d="M206.2312,905.37a37.7085,37.7085,0,0,1-5.4347,13.4979L87.45,846.9463l5.0279-8.2025-.0627-.04,8.991-14.1695s18.44,4.5944,28.4567,28.0054c9.266,12.2752,20.2064,2.8729,31.9079,12.43s4.8026,11.0723,12.5391,15.8774c0,0,8.909,6.26,18.5249,4.5443S208.5381,891.3088,206.2312,905.37Z"/><path d="M204.3131,904.8414a34.5089,34.5089,0,0,1-5.2341,13.0227l2.7214-.7136-11.2929-7.1657-27.1123-17.2036-32.6807-20.7369-28.2626-17.9335L93.0737,848.16c-1.4546-.923-2.8975-2.0283-4.4335-2.8132-.0645-.033-.1247-.0792-.186-.1181l.7136,2.7215,5.0279-8.2025a2.0243,2.0243,0,0,0-.7136-2.7214l-.0627-.04.7136,2.7214,8.991-14.1695-2.2463.9141c.3806.0956.7548.2214,1.1256.3484.4306.1475.857.3074,1.28.4758.1182.0471.2358.0957.3538.1434.3713.15-.095-.0423.0281.0116.3221.141.6435.283.9622.4315a41.8958,41.8958,0,0,1,9.4019,6.0406,49.9884,49.9884,0,0,1,10.77,12.969q1.3,2.2289,2.4,4.5663a14.9715,14.9715,0,0,0,1.22,2.4595,19.0465,19.0465,0,0,0,1.83,2.1395,17.93,17.93,0,0,0,7.9728,4.7457c5.48,1.5349,11.3227.6251,16.7347,2.5332a23.8392,23.8392,0,0,1,8.5017,5.8015,20.2679,20.2679,0,0,1,2.5826,2.9463c.2546.37.4941.7517.7125,1.1446.1122.2019.2164.4075.3193.6143.0528.1062.2728.6113.13.2654.5344,1.2929.8157,2.67,1.4381,3.9306a11.0165,11.0165,0,0,0,3.838,4.0046,32.6562,32.6562,0,0,0,11.4764,5.0364,26.2542,26.2542,0,0,0,5.1723.6155,36.7038,36.7038,0,0,0,4.8125-.4535,9.4743,9.4743,0,0,1,5.7873.9635c3.9741,2.2411,5.0439,7.4228,5.0034,11.8138a32.76,32.76,0,0,1-.4167,4.8414,2.0512,2.0512,0,0,0,1.3893,2.4468,2.0045,2.0045,0,0,0,2.4468-1.3893c.9008-5.6662,1.0655-12.2625-2.2877-17.2345a12.625,12.625,0,0,0-12.3328-5.37,24.8024,24.8024,0,0,1-9.9484-.42,29.1083,29.1083,0,0,1-6.9313-2.9123,18.5583,18.5583,0,0,1-3.3056-2.2766,3.7282,3.7282,0,0,1-1.138-1.4194c-.0792-.1457-.1479-.2954-.22-.4448-.05-.1049.1191.3393-.0095-.0374-.1052-.3082-.2122-.6148-.3109-.9252-1.578-4.9638-4.969-8.5515-9.0332-11.7265a23.0252,23.0252,0,0,0-9.1172-4.3659,60.6775,60.6775,0,0,0-8.926-1.0037,20.236,20.236,0,0,1-7.7939-1.76,14.2336,14.2336,0,0,1-3.5945-2.6347,9.5841,9.5841,0,0,1-1.7043-2.0269c-.46-.8448-.794-1.782-1.2174-2.6489a55.5,55.5,0,0,0-11.0155-15.3964,47.5981,47.5981,0,0,0-10.6789-7.8916,30.3235,30.3235,0,0,0-6.3458-2.7026c-.1015-.027-.2016-.059-.3035-.0847a2.0472,2.0472,0,0,0-2.2463.9142L90.698,837.7a2.022,2.022,0,0,0,.7136,2.7214l.0627.04-.7136-2.7215-5.028,8.2025a2.0245,2.0245,0,0,0,.7136,2.7215L97.7392,855.83l27.1124,17.2036L157.5322,893.77l28.2626,17.9335c4.5869,2.9105,9.0968,6.0627,13.8118,8.764.0635.0364.1241.0788.186.118a2.0347,2.0347,0,0,0,2.7214-.7135,37.3146,37.3146,0,0,0,5.6352-13.9731C208.6657,903.4,204.8319,902.3319,204.3131,904.8414Z"/><path d="M300.7,808.6423q-.3179-4.7271-.6264-9.455-.839-12.7679-1.6522-25.5374-1.197-18.7695-2.3471-37.542-1.3779-22.4973-2.6818-44.9992-1.3975-24.1671-2.6838-48.3407-1.2548-23.716-2.3449-47.4407c-.6377-14.0963-1.2192-28.1957-1.6653-42.3-.3469-10.968-.6364-21.9424-.6449-32.9166-.0049-6.4363.43-12.8654.38-19.2943l-.2952-37.7911-.0245-3.1363c-.02-2.5587-3.9982-2.5647-3.9782,0l.2582,33.05c.0292,3.7376.226,7.5181.0689,11.2534-.1367,3.2494-.3046,6.49-.35,9.7432-.14,10.0318.0786,20.07.3452,30.0977.3581,13.476.8744,26.9478,1.4494,40.4162q.9945,23.2976,2.2116,46.5848,1.2464,24.26,2.633,48.512,1.3122,23.1014,2.7136,46.1977,1.2,19.8227,2.4533,39.6419.9145,14.4663,1.8579,28.9308c.299,4.5791.5562,9.1637.9062,13.7392.0149.1952.0261.3907.0393.586.1708,2.5409,4.15,2.56,3.9781,0Z"/><path class="cls-3" d="M256.4682,300.3489c-11.2309,40.7275-32.2638,120.5653-35.9089,159.8543,16.7235-18.0257,139.2054-11.0183,181.5274-.2353,5.08-16.7832-25.7477-163.4082-25.7477-163.4082l-4.6334-42.21H277.502"/><path class="cls-4" d="M384.3368,408.5759a16.3121,16.3121,0,0,0,.6873,4.6893,16.3152,16.3152,0,1,0,0,31.2556,16.3181,16.3181,0,0,0,1.1315,12.1727c6.0618,1.0324,11.4476,2.1321,15.9311,3.2744,2.0738-6.8513-1.8367-35.3407-7.1906-66.66A16.3189,16.3189,0,0,0,384.3368,408.5759Z"/><path d="M254.55,299.82q-8.379,30.3909-16.05,60.9722c-5.6388,22.6239-11.005,45.3476-15.2855,68.2725-1.9252,10.3107-3.6679,20.69-4.6446,31.1384-.1621,1.7346,2.2758,2.6011,3.3956,1.4065q.3141-.3351.6539-.644c.1682-.1524.932-.751.4308-.379a19.086,19.086,0,0,1,1.775-1.1753c.6857-.3992,1.3941-.7589,2.1147-1.0908.1924-.0886.3867-.173.58-.26.4291-.1923-.2746.1035.2607-.11.421-.168.8421-.3348,1.2675-.4917a73.9823,73.9823,0,0,1,12.8417-3.2439c11.6494-2.0435,23.9281-2.6829,35.9609-2.9633,14.6118-.3406,29.24.0057,43.8337.772,14.3436.7531,28.6724,1.9193,42.9373,3.6057a316.5751,316.5751,0,0,1,33.7215,5.4794q1.6116.37,3.2144.7768a2.0276,2.0276,0,0,0,2.4468-1.3893c1.1463-3.85.6751-8.3753.4268-12.3127-.4451-7.0564-1.3266-14.0852-2.2706-21.09-1.1912-8.839-2.5687-17.6525-4.0238-26.4516q-2.4075-14.5587-5.0777-29.0722-2.5831-14.16-5.322-28.2913-2.3322-12.07-4.7523-24.1227-1.69-8.4208-3.4217-16.8331-.4826-2.341-.97-4.6811c-.0849-.4073-.1638-.8164-.2552-1.2223-.1213-.5387.1016-.38-.0114.1318a6,6,0,0,0-.1764-1.6075l-.4424-4.03-1.3439-12.2429-2.52-22.9542-.15-1.3672a2.0371,2.0371,0,0,0-1.9891-1.9891h-82.62c-3.7922,0-7.6234-.1594-11.4132,0-.0565.0024-.1135,0-.17,0-2.56,0-2.564,3.9782,0,3.9782h90.3449a33.4484,33.4484,0,0,0,3.6887,0,1.53,1.53,0,0,1,.17,0l-1.989-1.9891,1.91,17.3977,2.5463,23.1968c.2073,1.8884.5729,3.6923.9587,5.5533q1.4814,7.1444,2.9257,14.2964,2.2826,11.283,4.4913,22.5809,2.6759,13.69,5.23,27.4027,2.6961,14.5114,5.2,29.0579c1.5621,9.1376,3.0529,18.2886,4.386,27.4626,1.0712,7.3713,2.05,14.6481,2.7315,22.2574a77.8323,77.8323,0,0,1,.3792,14.4333c-.061.6251.0685-.3122-.0079.065-.034.168-.0539.3392-.0866.5076-.0573.2958-.1254.5888-.2114.8776l2.4468-1.3893a276.6734,276.6734,0,0,0-33.0837-5.7947c-14.2425-1.82-28.559-3.0773-42.8906-3.9315-14.7943-.8817-29.6251-1.3327-44.446-1.13a281.9554,281.9554,0,0,0-38.07,2.65,92.1386,92.1386,0,0,0-13.8524,3.0043,29.9326,29.9326,0,0,0-9.7212,4.6818,12.5682,12.5682,0,0,0-1.399,1.2664l3.3956,1.4064c1.87-20.0049,6.2023-39.8334,10.5591-59.4156,5.0867-22.8627,10.7839-45.589,16.7429-68.2384q4.173-15.8612,8.5358-31.6715c.6814-2.4717-3.1554-3.5264-3.8361-1.0576Z"/><path d="M381.9956,880.93a11.9867,11.9867,0,0,0-2.3838,1.7687,13.7812,13.7812,0,0,0-3.588,5.3227,12.89,12.89,0,0,0-.7794,4.4693,1.9891,1.9891,0,0,0,3.9782,0c.0018-.2916.01-.5829.0322-.8738.0122-.1637.0321-.3262.0473-.49.0212-.2286-.0255.1873-.0256.1878a1.81,1.81,0,0,0,.0433-.2673,10.7964,10.7964,0,0,1,.4153-1.6225q.0594-.1743.1248-.3464c.0214-.0563.0468-.1121.066-.1691.0687-.2031-.09.2054-.0858.1986.1446-.218.2289-.5023.3511-.7356a11.2627,11.2627,0,0,1,.7411-1.2186q.09-.1284.1825-.2543c.1815-.2459.0867-.0792-.0634.079.1449-.1527.2689-.33.4085-.4881q.3864-.4381.8129-.8386c.2443-.23.4987-.4463.7584-.6581.3663-.2988-.4266.31-.0129.0118.0989-.0713.1976-.143.2981-.2121a6.9914,6.9914,0,0,1,.6871-.4288,2.0055,2.0055,0,0,0,.7136-2.7215,2.0335,2.0335,0,0,0-2.7215-.7136Z"/><path d="M390.8559,885.7009a11.9912,11.9912,0,0,0-2.3839,1.7687,13.7825,13.7825,0,0,0-3.5879,5.3228,12.8887,12.8887,0,0,0-.7794,4.4692,1.9891,1.9891,0,1,0,3.9781,0c.0018-.2916.0106-.5829.0322-.8738.0122-.1636.0322-.3262.0474-.49.0212-.2286-.0255.1873-.0257.1878a1.7969,1.7969,0,0,0,.0434-.2673,10.7844,10.7844,0,0,1,.4153-1.6225q.0594-.1743.1248-.3464c.0214-.0563.0467-.1121.066-.1691.0687-.2031-.09.2054-.0858.1986.1446-.218.2289-.5023.351-.7356a11.2892,11.2892,0,0,1,.7412-1.2186q.09-.1284.1825-.2543c.1815-.2458.0867-.0792-.0634.079.1448-.1527.2689-.33.4085-.4881q.3864-.4381.8129-.8386c.2442-.23.4987-.4463.7583-.6581.3663-.2988-.4265.31-.0128.0118.0989-.0713.1975-.143.2981-.2121a6.98,6.98,0,0,1,.6871-.4288,2.0055,2.0055,0,0,0,.7136-2.7215,2.0335,2.0335,0,0,0-2.7215-.7136Z"/><path d="M401.0793,887.7456a11.9873,11.9873,0,0,0-2.3839,1.7687,13.7821,13.7821,0,0,0-3.5879,5.3227,12.89,12.89,0,0,0-.7794,4.4693,1.9891,1.9891,0,1,0,3.9781,0c.0018-.2917.0106-.5829.0322-.8738.0122-.1637.0322-.3262.0474-.49.0212-.2286-.0255.1873-.0257.1878a1.81,1.81,0,0,0,.0434-.2673,10.7844,10.7844,0,0,1,.4153-1.6225q.0594-.1743.1248-.3464c.0214-.0563.0467-.1121.066-.1691.0687-.2031-.09.2054-.0858.1986.1446-.218.2289-.5023.351-.7356a11.28,11.28,0,0,1,.7412-1.2186q.09-.1284.1825-.2543c.1815-.2459.0867-.0792-.0634.079.1448-.1527.2689-.33.4085-.4881q.3864-.4382.8129-.8386c.2442-.23.4987-.4463.7583-.6581.3663-.2988-.4265.31-.0128.0118.0989-.0714.1975-.143.2981-.2121a6.98,6.98,0,0,1,.6871-.4288,2.0054,2.0054,0,0,0,.7135-2.7215,2.0334,2.0334,0,0,0-2.7214-.7136Z"/><path class="cls-8" d="M479.4549,321.6115a239.1227,239.1227,0,0,1,12.0466-21.1509l29.8145,16.11,8.4829,4.5835,72.16-131.06L653.31,219.4215,592.5173,355.7051c-15.2373,27.39-48.9293,39.1428-78.6115,29.0771l-18.7506-7.8428L464.09,360.435A209.7893,209.7893,0,0,1,479.4549,321.6115Z"/><path d="M481.1724,322.6154a242.301,242.301,0,0,1,12.0466-21.1509l-2.7215.7136,14.9073,8.055,14.911,8.057,8.4791,4.5816a2.0207,2.0207,0,0,0,2.7215-.7136l7.229-13.13,17.2261-31.2868,20.8149-37.8049,17.9951-32.6835,5.9632-10.8307c.922-1.6745,2.0443-3.3477,2.8092-5.1021.0333-.0763.082-.1488.1222-.2219l-2.7214.7136,17.35,9.9085,27.6541,15.7931,6.3478,3.6252-.7136-2.7214-4.2611,9.5522L636.61,252.0057,622.519,283.5942l-14.3681,32.21-11.5535,25.9c-1.8815,4.2179-3.6994,8.4714-5.647,12.6593a30.3931,30.3931,0,0,1-1.9821,3.4166,59.39,59.39,0,0,1-7.8752,9.8813,62.2386,62.2386,0,0,1-20.2742,13.6531,65.6947,65.6947,0,0,1-23.99,5.0289c-7.5193.1425-15.5853-.8019-22.6261-3.5761-4.4955-1.7712-8.9249-3.733-13.3825-5.5975-1.6749-.7006-3.3472-1.4079-5.0249-2.1018-.3493-.1444.3916.233.3306.1364-.0488-.0773-.2785-.1463-.3558-.189-.5023-.2776-1.0143-.5389-1.5212-.8082l-26.8953-14.2888-2.2606-1.201.9141,2.2463a203.9066,203.9066,0,0,1,15.1648-38.3484c1.1506-2.28-2.28-4.2964-3.435-2.0078a209.1621,209.1621,0,0,0-15.5659,39.2987,2.0216,2.0216,0,0,0,.9141,2.2463l23.9077,12.7015c2.5653,1.3628,5.1058,2.9429,7.788,4.0681q6.6741,2.8,13.3544,5.5858c1.7012.7115,3.3906,1.47,5.11,2.1372a54.3379,54.3379,0,0,0,10.6659,2.7,70.5688,70.5688,0,0,0,25.65-.4372A66.726,66.726,0,0,0,591.23,361.5685c2.7461-4.0128,4.5043-8.22,6.4731-12.6336l10.2836-23.0534,14.0019-31.3889,14.564-32.649,11.97-26.8334,6.2271-13.96.2788-.625a2.0383,2.0383,0,0,0-.7136-2.7214l-17.35-9.9085L609.31,192.0023l-6.3478-3.6252a2.0168,2.0168,0,0,0-2.7214.7136l-7.229,13.13L575.786,233.5071,554.9711,271.312l-17.9952,32.6835-5.9632,10.8306c-.922,1.6746-2.0442,3.3478-2.8092,5.1022-.0332.0763-.0819.1488-.1222.2219l2.7215-.7136q-6.0228-3.2542-12.0455-6.5086l-20.481-11.0666-5.7709-3.1183a2.0347,2.0347,0,0,0-2.7215.7136,242.2964,242.2964,0,0,0-12.0465,21.1509C476.5822,322.8859,480.0132,324.9018,481.1724,322.6154Z"/><path class="cls-5" d="M590.5375,211.0077l5.7882-10.461a108.5361,108.5361,0,0,0,9.3188-22.482c1.7542-6.0835,3.8178-14.0629,5.7844-23.6629,4.8209-23.5338,13.4347-17.933,52.696,3.12-14.0356,12.1991-13.6939,18.5762-13.6939,18.5762l-1.1413,42.71-13.162,30.1145"/><path d="M592.255,212.0116c3.1863-5.7585,6.5632-11.4607,9.3262-17.4384,5.2586-11.3774,8.3139-23.6194,10.9614-35.8276a76.0129,76.0129,0,0,1,2.9528-11.59c.0676-.1736.1361-.3468.208-.5185-.1428.3412.011-.0209.0491-.105.1309-.2889.2645-.5762.4077-.8592a15.3148,15.3148,0,0,1,.878-1.5261c.079-.12.4961-.6977.3618-.5238-.1389.18.2988-.3519.39-.4518.1535-.1682.3127-.3313.4782-.4875.114-.1076.7771-.6347.3046-.2872a9.6044,9.6044,0,0,1,1.2056-.744c.0946-.05.194-.0914.2911-.136.259-.1188-.4728.1658-.0568.03.2493-.0814.4943-.17.7482-.2375.2608-.0692.5243-.1167.7886-.1694.1107-.0221.3852-.0467-.1189.0116.14-.0161.28-.0342.4207-.0427a14.2589,14.2589,0,0,1,1.716-.0105c.2944.0177.5875.0468.8806.0792.38.0422.04.0057-.0312-.005q.2554.0381.51.082c.6975.1211,1.3883.279,2.0727.46a42.997,42.997,0,0,1,4.6327,1.5471,136.6563,136.6563,0,0,1,12.9517,6.11c6.2195,3.2123,12.3686,6.56,18.5373,9.8688l-.4026-3.124c-5.3167,4.6437-11.0871,10.1369-13.6207,16.9174a13.8469,13.8469,0,0,0-.6988,4.6754l-.8238,30.83-.2744,10.2694.2715-1.0039-11.5009,26.314-1.6611,3.8a2.0535,2.0535,0,0,0,.7136,2.7214,2.0036,2.0036,0,0,0,2.7214-.7135l7.7226-17.669L650.06,221.98a10.4729,10.4729,0,0,0,1.2407-3.981l.5691-21.2937c.18-6.7292.3758-13.4582.5394-20.1878.0053-.2165.0251-.4407.019-.6574-.0125-.44-.0471.2219-.0277.16.0489-.1569.0594-.3357.0955-.4972a11.8748,11.8748,0,0,1,.4381-1.4325c.0253-.07.2151-.5455.1055-.28-.104.2524.0807-.1836.1126-.2514.1857-.3945.3746-.7859.58-1.1706a27.68,27.68,0,0,1,1.5393-2.5211,47.3571,47.3571,0,0,1,5.6419-6.6384c1.4836-1.4927,3.0333-2.9165,4.6181-4.3007a2.0029,2.0029,0,0,0-.4026-3.124c-9.8379-5.2763-19.5984-10.9436-29.881-15.3282-5.12-2.183-11.6333-4.8958-17.1273-2.421-5.03,2.2661-6.89,8.4539-8.0674,13.3653-2.8756,11.9987-5.0541,24.1615-9.58,35.6992-3.1349,7.9918-7.5076,15.3917-11.6533,22.884-1.24,2.2418,2.194,4.2508,3.4351,2.0078Z"/><path class="cls-5" d="M639.0887,159.229c-.569-11.9491,2.276-19.3462,2.276-19.3462,5.4361-15.9546,13.173-16.3313,27.1627-16.0164s17.6433-14.7631,5.6478-14.3985c0,0-36.7964-10.6825-50.7439,16.0981-1.3794,2.5878-2.5747,4.7513-3.6056,6.5582a78.0949,78.0949,0,0,0-8.67,23.0437l-1.588,7.7564"/><path d="M641.0778,159.229c-.2762-6.2745.1257-12.8264,2.2011-18.8073a28.8178,28.8178,0,0,1,4.7129-9.2285,13.4913,13.4913,0,0,1,6.4-4.32,30.5,30.5,0,0,1,8.8827-1.0714c3.6983-.04,7.4805.4043,11.0712-.7174,5.0275-1.57,10.6188-6.73,8.7053-12.5565a7.4648,7.4648,0,0,0-5.8644-4.8029,8.94,8.94,0,0,0-2.4436-.2516c-.79.0838.21.1086-.1443.0472-.2807-.0486-.5616-.1493-.8382-.2179a68.1147,68.1147,0,0,0-10.7742-1.7039c-12.0048-.9883-24.9385,1.1822-34.1042,9.5474a33.9188,33.9188,0,0,0-6.7025,8.55c-2.4565,4.4166-5.0422,8.8315-7.1573,13.423A80.7838,80.7838,0,0,0,609.721,152.44c-.5923,2.523-1.072,5.0749-1.5917,7.6134l-.4795,2.3419c-.5116,2.499,3.3221,3.5679,3.8361,1.0575a142.4543,142.4543,0,0,1,4.1049-17.0845,80.097,80.097,0,0,1,6.3022-13.856c2.05-3.6241,3.7824-7.5164,6.341-10.8243,7.46-9.6438,19.76-12.6606,31.35-12.3048a59.52,59.52,0,0,1,11.6291,1.4111c.7845.1695,1.5572.3976,2.3409.5653.8535.1826,1.8085.0623,2.5758.201a7.4715,7.4715,0,0,1,1.4726.4338,6.32,6.32,0,0,1,.6627.385c.0568.0377.2938.2333.0343.018.1368.1134.2571.2387.3859.3605a2.7719,2.7719,0,0,1,.229.2565c-.0523-.064-.2018-.3038-.0092.0047a5.6293,5.6293,0,0,1,.3249.5806c-.1811-.3844.0509.1691.0826.3026.0322.1357.0641.27.09.4072.0452.2366-.0136-.3333.0009.0574.0086.2309.0076.4581.0021.689-.0129.54.04.0126-.0628.44a6.4792,6.4792,0,0,1-.4372,1.3026,9.1568,9.1568,0,0,1-5.4843,4.4077c-3.3584,1.0826-6.9652.57-10.4359.62a36.4964,36.4964,0,0,0-8.9809,1.0161c-12.14,3.28-16.0658,17.8319-16.8324,28.906a66.144,66.144,0,0,0-.0725,7.48c.1122,2.55,4.091,2.5639,3.9782,0Z"/><path class="cls-5" d="M616.8975,241.7348l25.1091.1758s12.7053-22.1464,20.5246-36.2672a23.1327,23.1327,0,0,0,2.5954-14.7376,34.7938,34.7938,0,0,1,2.1477-18.811s13.3518,12.17,23.0248-1.4857q.12-.1964.2366-.389c4.4675-7.3523,8.2985-19.5262-1.8374-22.0789L687.16,145.798a14.3733,14.3733,0,0,0-12.0147-6.4842h-5.899l-.7955-1.5024c-2.6347-4.9768-7.8084-6.7973-13.43-6.4636h0c-7.397-7.9661-19.309-2.4922-23.7921,5.8134"/><path d="M616.8975,243.7238l21.9495.1538,3.16.0221a1.9955,1.9955,0,0,0,1.7176-.9852q5.7458-10.016,11.4323-20.0661,4.3809-7.7381,8.7075-15.507a27.1014,27.1014,0,0,0,3.3653-10.1352c.44-3.78-.4635-7.4193-.531-11.185a34.2269,34.2269,0,0,1,1.1224-9.4133,29.5849,29.5849,0,0,1,.9107-2.8685c.0556-.1472.1162-.2927.1711-.44.1487-.4-.026.0738-.0312.0683a1.4428,1.4428,0,0,1,.12-.2687l-3.124.4025c4.3511,3.9448,10.8065,6.5869,16.6692,5.1837,5.0168-1.2007,8.6468-5.2282,10.945-9.6441,1.9793-3.8031,3.6125-8.1124,3.6253-12.4554a10.1916,10.1916,0,0,0-7.88-10.3623l1.1887.9141a35.3641,35.3641,0,0,0-3.2413-4.5391,16.3865,16.3865,0,0,0-7.5947-4.66c-3.3087-.9345-6.9307-.613-10.3338-.613l1.7175.9852a16.2531,16.2531,0,0,0-5.5039-6.58,17.72,17.72,0,0,0-10.4388-2.3714l1.4065.5826c-8.3463-8.7564-21.753-3.1369-26.9161,6.216-1.2382,2.2429,2.1961,4.2521,3.435,2.0078,2.5944-4.7,7.7053-8.6678,13.2535-8.7084a10.0122,10.0122,0,0,1,7.1607,3.0312c1.34,1.2812,3.3376.71,5.0672.9275a12.3967,12.3967,0,0,1,3.8737,1.1023c2.5846,1.2662,3.9285,3.347,5.2271,5.8a1.9818,1.9818,0,0,0,1.7176.9851c4.37,0,8.82-.467,12.6791,2.0186,2.229,1.4358,3.4718,3.5146,4.9289,5.6305.8382,1.2172,2.243,1.2378,3.451,1.9339a5.2205,5.2205,0,0,1,2.0455,2.06c2.1738,3.9452-.1785,9.8945-2.1068,13.7037-2.4862,4.9112-6.7231,9.2064-12.593,8.3507a16.6828,16.6828,0,0,1-6.4766-2.514q-.6-.37-1.1779-.7736c-.1822-.1274-1.06-.7985-.5859-.42-.2467-.197-.4955-.3923-.73-.6045a2.01,2.01,0,0,0-3.124.4026,32.3721,32.3721,0,0,0-2.6749,10.7783,56.72,56.72,0,0,0,.4386,10.56,21.3491,21.3491,0,0,1-1.7176,10.6463c-1.2023,2.6533-2.7928,5.1723-4.2159,7.7121q-2.2462,4.0085-4.5085,8.0079-4.1141,7.2786-8.26,14.54-2.1614,3.788-4.33,7.572l1.7175-.9852-21.9494-.1537-3.16-.0221c-2.56-.018-2.5631,3.96,0,3.9781Z"/><polyline class="cls-2" points="587.309 213.285 599.807 194.003 651.038 223.527 641.934 241.735"/><path d="M589.0267,214.2884l10.9357-16.8718,1.5618-2.41-2.7215.7135,17.3092,9.975,27.5891,15.8991,6.3329,3.6495-.7136-2.7214-9.1041,18.2081c-1.1417,2.2834,2.2887,4.3005,3.435,2.0079l9.1041-18.2082a2.03,2.03,0,0,0-.7136-2.7214l-17.3091-9.975L607.1435,195.935l-6.3329-3.6495a2.0309,2.0309,0,0,0-2.7214.7136l-10.9357,16.8718-1.5618,2.41c-1.3966,2.1546,2.046,4.1509,3.435,2.0078Z"/><path class="cls-3" d="M337.73,253.2786l47.5-.127a56.6831,56.6831,0,0,1,25.97,6.2215l80.3018,41.0875L529.84,321.3955l20.0327-54.5719a143.8353,143.8353,0,0,1,41.5818-59.7814l2.6831-2.2928,51.7794,31.2953,7.1865,31.7715a41.1842,41.1842,0,0,1-4.7764,30.1444l-52.23,87.7816a70.2916,70.2916,0,0,1-89.4562,24.8027l-42.0394-20.3482-99.7729-50.5931"/><path class="cls-4" d="M404.803,256.5859a16.31,16.31,0,0,0-1.8771,13.4652,16.3153,16.3153,0,1,0,0,31.2556,16.3153,16.3153,0,1,0,31.2555,0,16.3253,16.3253,0,0,0,20.4948-19.6882L411.2,259.3731A56.6869,56.6869,0,0,0,404.803,256.5859Z"/><path class="cls-4" d="M506.6406,410.5449a70.0642,70.0642,0,0,0,30.6168,7.0272,16.3181,16.3181,0,0,0-.3066-8.1918,16.3153,16.3153,0,1,0,0-31.2556,16.3152,16.3152,0,1,0-31.2556,0,16.3166,16.3166,0,0,0-19.4688,22.5392l18.52,8.9642c.3193-.0751.6372-.1544.9489-.2478-.0618.2063-.11.4181-.1639.6277Z"/><path class="cls-4" d="M609.6715,257.1687a16.3179,16.3179,0,0,0-21.0045-15.6278A16.3209,16.3209,0,0,0,577.2,221.0738a143.8218,143.8218,0,0,0-27.3279,45.75l-2.1565,5.8745a16.3391,16.3391,0,0,0,9.6955.0984,16.3153,16.3153,0,1,0,31.2556,0,16.3182,16.3182,0,0,0,21.0045-15.6278Z"/><path d="M337.73,255.2677l41.9818-.1123c1.8246-.0048,3.6492-.016,5.4738-.0146a54.886,54.886,0,0,1,22.4714,4.7293c3.5492,1.6,6.9836,3.4946,10.4474,5.2669l44.9317,22.99c9.2193,4.7172,18.54,9.2784,27.671,14.1654,12.3656,6.6183,24.6234,13.4458,36.9331,20.1676l1.196.6531a2.0215,2.0215,0,0,0,2.9219-1.1887l13.3231-36.2938,6.3182-17.2119a146.2313,146.2313,0,0,1,14.823-29.7274c8.0952-12.3786,18.11-22.9544,29.3218-32.5353l-2.4105.311,17.53,10.5953,27.8073,16.8066,6.4419,3.8934-.9141-1.1887,3.9058,17.2678,2.4882,11a64.2954,64.2954,0,0,1,1.5669,8.33c.82,9.0168-1.5877,17.4615-6.1677,25.1589l-6.9246,11.638-24.4489,41.0906L595.4316,382.97c-9.5562,16.0607-26.0871,27.3759-44.3066,31.1914a68.3514,68.3514,0,0,1-35.1375-1.9741c-5.6181-1.8383-10.8653-4.58-16.172-7.1488-11.4032-5.5194-22.8644-10.9334-34.2147-16.5609-7.7006-3.818-15.335-7.7761-23.0008-11.6634L398.3586,354.38l-30.925-15.6815-1.6015-.8121c-2.2782-1.1552-4.2942,2.2757-2.0078,3.4351L393.8559,356.55l51.6067,26.1688c7.7621,3.936,15.4983,7.92,23.3318,11.7113l25.2669,12.23c6.5612,3.1758,13.1067,6.7194,20.0181,9.0788a72.8555,72.8555,0,0,0,77.4035-20.66,90.4409,90.4409,0,0,0,9.5953-13.8182l11.584-19.469,29.1606-49.0093,7.8211-13.1447a44.4079,44.4079,0,0,0,5.2738-32.8074q-2.7345-12.1647-5.5014-24.322l-1.1538-5.1011c-.1965-.8689-.28-2.1-.9393-2.7688-1.06-1.0755-2.8189-1.7715-4.09-2.5394L598.8282,205.26l-3.687-2.2284a2.0452,2.0452,0,0,0-2.41.311,159.1936,159.1936,0,0,0-26.7383,28.6423,147.0444,147.0444,0,0,0-18.1146,34.5179q-7.2141,19.6173-14.4056,39.2429l-5.5506,15.1207,2.9219-1.1887-36.31-19.8275c-7.9815-4.3584-16.1766-8.3468-24.2715-12.4886l-46.4431-23.7633q-5.7-2.9163-11.3994-5.8326a62.39,62.39,0,0,0-28.9313-6.5988l-44.4957.119-1.2627.0034c-2.56.0068-2.5643,3.985,0,3.9781Z"/><path class="cls-7" d="M439.3227,915.6676a37.7091,37.7091,0,0,1,2.643,14.3089H307.7267l-.1493-9.62h-.0743V903.5754s18.0315-6,39.0323,8.4c14.4006,5.4,18.6007-8.4,33.6013-6.6s9.9874,6.7759,19.0943,6.6882c0,0,10.8761.5121,18.0764-6.0882S433.7369,902.5588,439.3227,915.6676Z"/><path d="M437.4047,916.1964a34.5342,34.5342,0,0,1,2.5719,13.78l1.9891-1.9891H313.1977c-1.7209,0-3.5355-.1656-5.2508,0-.0719.0069-.1477,0-.22,0l1.9891,1.9891-.1493-9.62a2.02,2.02,0,0,0-1.9891-1.989h-.0743l1.9891,1.989V903.5754l-1.46,1.9181c.5046-.1667,1.0269-.2876,1.545-.4029.5968-.1328,1.1982-.2453,1.8018-.3426.1681-.0271.3364-.0523.5048-.0776a2.0642,2.0642,0,0,1,.2876-.0392c.4336-.0524.8677-.1,1.3027-.1388a44.2957,44.2957,0,0,1,14.981,1.2725,50.1268,50.1268,0,0,1,9.6158,3.5533,58.7894,58.7894,0,0,1,5.412,3.0277,16.06,16.06,0,0,0,2.524,1.5479,19.434,19.434,0,0,0,2.3634.7418c5.214,1.3058,10.0457.083,14.7079-2.3416,4.2031-2.1857,8.2535-4.7525,13.1179-5.053a28.4986,28.4986,0,0,1,9.4514,1.1929,14.5451,14.5451,0,0,1,2.7841,1.0551q.5466.2829,1.0639.6179c.1641.1065.93.6673.5895.4014a20.9356,20.9356,0,0,0,3.2013,2.4081,12.5843,12.5843,0,0,0,5.6621,1.1374,33.43,33.43,0,0,0,10.7413-1.5627,24.9613,24.9613,0,0,0,8.4563-4.609c1.75-1.4807,3.4742-2.8285,5.8085-3.1845,4.7318-.7216,8.8269,3.3639,11.2225,7.2379a36.5372,36.5372,0,0,1,2.4285,4.736,2.0017,2.0017,0,0,0,2.7214.7136,2.0405,2.0405,0,0,0,.7136-2.7214c-2.389-5.5259-6.1563-11.2159-12.0751-13.3368a11.789,11.789,0,0,0-7.1613-.2139c-2.7664.7973-4.6453,2.546-6.8529,4.2692-4.0121,3.1317-9.3157,4.51-14.2861,4.6852-.4559.0161-.9105.0141-1.3665.01-.2962-.0029-.5926-.0008-.8889-.009-.248-.0069-.4961-.0178-.7435-.0353-.1118-.0079-.84-.09-.5546-.0475a8.4615,8.4615,0,0,1-1.16-.2554c-.1543-.0458-.3053-.0995-.4573-.1522-.0213-.0074.1968.122-.1376-.064-.261-.1451-.5169-.2874-.7677-.45-.13-.0842-.2523-.1788-.3769-.27.3158.2317.0973.0772-.0647-.0607a19.9354,19.9354,0,0,0-3.8009-2.7256,31.3292,31.3292,0,0,0-17.5819-2.28,29.32,29.32,0,0,0-7.2684,2.76c-3.9845,2.0453-7.8689,4.7446-12.5137,4.7608a14.6885,14.6885,0,0,1-3.8814-.5322c-1.9034-.51-3.3487-1.675-5.0318-2.6719a58.16,58.16,0,0,0-10.5858-4.9173,49.4984,49.4984,0,0,0-17.1235-2.77,34.5981,34.5981,0,0,0-8.9744,1.1793c-.1372.04-.2755.0772-.4113.1221a2.0461,2.0461,0,0,0-1.46,1.918v16.7813a2.018,2.018,0,0,0,1.9891,1.9891h.0743l-1.9891-1.9891.1493,9.62a2.02,2.02,0,0,0,1.9891,1.989H425.3878c5.44,0,10.92.1961,16.3576,0,.0732-.0026.147,0,.22,0a2.03,2.03,0,0,0,1.9891-1.989,37.3884,37.3884,0,0,0-2.7141-14.8377,2.0451,2.0451,0,0,0-2.4468-1.3892A2.0046,2.0046,0,0,0,437.4047,916.1964Z"/><path d="M667.8767,176.4037c.1428-.4624.3013-.92.4622-1.3767q.2685-.7618.5578-1.5164.167-.4364.34-.87.0855-.2134.1725-.4264c.0435-.1066.2837-.6792.1077-.2649.6168-1.4518,1.2888-2.8815,2.0423-4.2678.4017-.7392.8265-1.4663,1.2826-2.1733q.3241-.5025.6706-.99c.1051-.1475.2125-.2933.3205-.4387.1861-.25-.1762.22.0162-.0224q.11-.1383.2218-.275a15.1465,15.1465,0,0,1,1.7526-1.803c.34-.2959-.1148.053.1521-.1234.1688-.1115.331-.2311.5036-.3371.1675-.1029.34-.1952.5131-.2875.0637-.0339.13-.0619.1949-.0939.2468-.1223-.4517.1749-.0158.01a2.0453,2.0453,0,0,0,1.3893-2.4468,2.0047,2.0047,0,0,0-2.4469-1.3892c-3.3572,1.2689-5.6307,4.304-7.3912,7.3021a53.3935,53.3935,0,0,0-4.0179,8.7918c-.2337.6423-.4627,1.2879-.6645,1.9412-.7572,2.4517,3.0817,3.5,3.8361,1.0576Z"/><line class="cls-2" x1="188.3781" y1="367.0745" x2="125.096" y2="381.555"/><path d="M187.8493,365.1565l-21.3448,4.8842-34.0629,7.7944-7.8744,1.8019c-2.4946.5708-1.4388,4.4072,1.0576,3.836l21.3448-4.8842,34.0629-7.7944,7.8744-1.8019c2.4946-.5708,1.4387-4.4072-1.0576-3.836Z"/><path class="cls-2" d="M363.5669,254.35H281.2342a22.529,22.529,0,0,1,22.2818-19.2008h16.6272a22.5294,22.5294,0,0,1,10.1468,2.4144Z"/><path d="M363.5669,252.3609H281.2342l1.9181,2.5179A20.77,20.77,0,0,1,301.5964,237.22c2.3363-.1981,4.7229-.0818,7.0639-.0818h9.7537a23.7851,23.7851,0,0,1,10.872,2.1428c1.0734.5311,2.1388,1.0789,3.208,1.6183l16.9717,8.5612,13.0973,6.6069c2.28,1.15,4.2966-2.28,2.0079-3.435l-29.3478-14.8044c-1.2992-.6553-2.5943-1.32-3.8978-1.9662a26.6543,26.6543,0,0,0-12.0685-2.7017c-5.4741,0-10.9716-.1579-16.4432.0108a24.71,24.71,0,0,0-23.4974,20.65,2.0228,2.0228,0,0,0,1.918,2.5179h82.3327C366.1267,256.3391,366.1309,252.3609,363.5669,252.3609Z"/><path d="M370.5882,195.6651a12.1222,12.1222,0,0,0,7.0973,5.4248,10.3727,10.3727,0,0,0,4.5247.0718,2,2,0,0,0,1.3893-2.4468,2.0408,2.0408,0,0,0-2.4468-1.3892q-.1329.0264-.2666.0487-.3315.0508.1353-.0152a2.0649,2.0649,0,0,0-.5124.044,7.7834,7.7834,0,0,1-.9827-.009c-.2008-.0147-.6208-.17-.0565.0056-.1417-.044-.3059-.051-.4518-.082a7.8871,7.8871,0,0,1-.86-.2348c-.1373-.0459-.2718-.0983-.4075-.1485-.33-.1219.471.2168-.0131-.01q-.3744-.1756-.7314-.3855-.3433-.2013-.6692-.4306c-.1049-.0736-.2055-.1539-.3108-.2269.5443.3772.1581.1213.0365.02a13.6381,13.6381,0,0,1-1.7312-1.7765c-.1892-.2257.3632.4855.1391.18-.0391-.0532-.0791-.1059-.1178-.1594q-.0933-.1287-.1823-.26c-.05-.0751-.1009-.15-.1473-.2282a1.9894,1.9894,0,1,0-3.435,2.0078Z"/><path d="M499.5508,307.1218l17.0934,9.7226,27.2569,15.5035,6.2724,3.5677c2.2286,1.2677,4.2354-2.168,2.0078-3.435l-17.0934-9.7226L507.831,307.2544l-6.2723-3.5677c-2.2287-1.2676-4.2355,2.168-2.0079,3.4351Z"/><line class="cls-1" x1="655.8995" y1="90.664" x2="654.0379" y2="70.0235"/><path d="M657.8886,90.664l-1.6273-18.0431-.2343-2.5974a2.0423,2.0423,0,0,0-1.9891-1.989,2.0038,2.0038,0,0,0-1.9891,1.989l1.6274,18.0432.2342,2.5973A2.0424,2.0424,0,0,0,655.9,92.6531a2.0039,2.0039,0,0,0,1.9891-1.9891Z"/><line class="cls-1" x1="634.8977" y1="97.2086" x2="622.1339" y2="80.8813"/><path d="M636.3042,95.8021,625.1205,81.496l-1.58-2.0212a2,2,0,0,0-2.813,0,2.04,2.04,0,0,0,0,2.813l11.1837,14.306,1.58,2.0213a2,2,0,0,0,2.813,0,2.0395,2.0395,0,0,0,0-2.813Z"/><line class="cls-1" x1="676.6914" y1="93.9896" x2="686.4663" y2="75.7153"/><path d="M678.409,94.9935l8.5412-15.968,1.2336-2.3063c1.2072-2.2569-2.2258-4.2686-3.4351-2.0078l-8.5412,15.968-1.2336,2.3062c-1.2072,2.257,2.2258,4.2687,3.4351,2.0079Z"/><path class="cls-4" d="M309.58,272.6788a16.3111,16.3111,0,0,0-4.6893.6874,16.3152,16.3152,0,1,0-31.2556,0,16.3153,16.3153,0,1,0,0,31.2557,16.3152,16.3152,0,1,0,31.2556,0,16.3157,16.3157,0,1,0,4.6893-31.9431Z"/><path class="cls-8" d="M277.3384,144.6159l2.924-12.437c3.7237-15.8384,17.7578-27.3626,34.028-27.31q.6087.0019,1.22.0235l44.93,1.5861a32.2583,32.2583,0,0,1,27.7469,17.8763l1.3717,2.7589a9.4858,9.4858,0,0,1-8.6568,13.7076l-16.652-.2862A12.1568,12.1568,0,0,0,350.6442,152.32l-.5529,23.2238c-.3158-10.71-9.2282-24.96-16.9039-24.734s-13.4986,2.9859-13.1746,13.9751c.2144,7.274,6.6847,19.7729,11.0288,22.9663,0,0,1.4842,6.9274.7891,23.26,0,0-1.7528,84.942-45.0539,100.36-8.3411,2.97-26.67,6.6612-38.4556,3.9782-13.4115-3.053-18.71-12.6075-21.519-20.4352-16.9366-47.1937-1.8223-55.8125,46.7937-140.8013A35.5018,35.5018,0,0,0,277.3384,144.6159Z"/><path d="M279.2564,145.1447l1.9383-8.2445a60.17,60.17,0,0,1,2.734-9.637,33.5413,33.5413,0,0,1,22.9233-19.5581c5.1841-1.2305,10.5036-.7582,15.7723-.5722l21.76.7682q7.8.2754,15.6007.5507a30.6,30.6,0,0,1,23.636,12.2236,39.1029,39.1029,0,0,1,3.3728,5.739,10.8078,10.8078,0,0,1,1.5788,5.0815,7.5931,7.5931,0,0,1-7.7919,7.3346c-5.49-.0317-11.0289-.0118-16.5115-.2839-5.3891-.2674-10.3632,1.7938-13.3828,6.4255-1.8295,2.8063-2.1977,5.9191-2.2749,9.1611l-.47,19.7359-.04,1.6744H352.08a34.7649,34.7649,0,0,0-6.4493-18.1855c-3.1408-4.4825-7.5652-8.853-13.4276-8.4933-4.92.3018-9.9725,1.9256-12.4022,6.574-2.8054,5.3674-1.99,11.9441-.05,17.44a52.5161,52.5161,0,0,0,4.6324,9.7959,23.7122,23.7122,0,0,0,5.6544,6.7941l-.9141-1.1888c.0493.2324.0871.4675.1251.702.032.1966.1643,1.1575.0771.4877q.0909.6985.1665,1.3987c.3322,3.105.4657,6.2316.5152,9.3527.0656,4.1407-.0454,8.2828-.2232,12.42-.1144,2.6627-.2991,5.3226-.5259,7.9779q-.2557,2.9946-.5892,5.9819c-.2663,2.39-.5455,4.5879-.8441,6.6821a187.113,187.113,0,0,1-7.8271,33.9206c-3.81,11.191-9.1049,22.377-17.2268,31.037a43.7909,43.7909,0,0,1-13.4673,9.9629c-6.3513,2.97-13.9965,4.444-21.0293,5.3631-8.4856,1.1088-17.94,1.5809-25.8145-2.3522-6.5005-3.2465-10.7866-9.0778-13.3406-15.7509a128.8487,128.8487,0,0,1-4.987-16.0808,66.4472,66.4472,0,0,1-1.9762-13.349,55.9606,55.9606,0,0,1,.0925-6.3868q.1143-1.5791.32-3.15c-.0582.4446.0608-.4169.0763-.52q.0525-.35.11-.6992.1359-.8334.2964-1.6626a72.8282,72.8282,0,0,1,3.9449-13.0731,150.3373,150.3373,0,0,1,6.7909-14.3067c3.135-5.9053,6.4879-11.6933,9.8794-17.454,9.6216-16.3432,19.4825-32.5418,28.9539-48.9739,2.7212-4.7212,5.3439-9.3174,6.6362-14.6625.6014-2.4875-3.2337-3.5488-3.8361-1.0576-1.5765,6.5208-5.2938,12.1027-8.6226,17.8408q-4.7613,8.2074-9.6051,16.3665c-5.3415,9.0091-10.7572,17.9742-16.0843,26.9918-7.1948,12.1789-14.7145,24.57-19.366,38.0006a63.0364,63.0364,0,0,0-2.5843,31.6254,115.47,115.47,0,0,0,4.89,18.1559c2.8055,8.13,6.7265,15.7243,14.28,20.3972,9.2863,5.7451,20.813,5.3436,31.2305,3.9073,8.3485-1.151,17.0658-2.9649,24.4832-7.139,12.4855-7.0263,20.7042-19.7316,26.201-32.6085,5.5726-13.0546,8.9369-26.9677,11.077-40.97a215.14,215.14,0,0,0,2.4773-24.876,159.93,159.93,0,0,0-.19-19.5016,26.303,26.303,0,0,0-.643-5.0363,2.1256,2.1256,0,0,0-.5155-.8968c-.3639-.3639-.3634-.2661-.787-.6572a16.3018,16.3018,0,0,1-1.8682-2.0829,39.5756,39.5756,0,0,1-3.5465-5.7264c-2.0305-3.887-4.0117-8.3916-4.2344-12.8345-.1848-3.6868.4058-8.2578,3.6136-10.3445,2.4963-1.624,6.8112-2.53,9.5723-1.5535,3.8425,1.3587,6.7267,5.4678,8.6816,8.8786a29.9636,29.9636,0,0,1,4.2227,13.5195,1.99,1.99,0,0,0,3.9781,0l.4234-17.7839a63.0293,63.0293,0,0,1,.1987-6.4855,10.2734,10.2734,0,0,1,10.1578-8.838c5.88.04,11.7768.2831,17.6613.3681a11.4995,11.4995,0,0,0,11.6584-14.347,26.1984,26.1984,0,0,0-2.1836-4.9214,34.6209,34.6209,0,0,0-26.9893-18.8531c-4.5426-.5243-9.2116-.4276-13.7742-.5886l-22.7341-.8026c-4.6262-.1633-9.3486-.5965-13.98-.3713a37.16,37.16,0,0,0-28.0764,15.3887,37.8608,37.8608,0,0,0-6.148,13.556q-1.131,4.7763-2.2467,9.5562l-.6269,2.666C274.8349,146.5771,278.67,147.64,279.2564,145.1447Z"/><path class="cls-8" d="M315.6615,104.8566l81.5493,1.406s20.5039,40.583-40.7683,43.4845A18.0319,18.0319,0,0,1,339.67,123.3449c.0946-.1789.1487-.2736.1487-.2736"/><path d="M315.6615,106.8457l27.6312.4764,43.865.7562,10.0531.1734-1.7175-.9852c.0724.1437.146.29.2071.4384.0694.1692.1447.3394.2226.5049.13.2759-.2265-.5682-.0444-.1036.0521.1328.1079.2643.1606.397a37.1045,37.1045,0,0,1,1.44,4.4405q.384,1.4916.6433,3.0117c.0443.2613.083.5232.1239.785.0122.078.0684.5009.0245.1669-.0453-.3447.0262.2219.0347.2979.0617.5566.1149,1.1137.15,1.6726a29.2383,29.2383,0,0,1,.008,3.6556q-.0282.4542-.0715.9074c-.0192.2-.1426,1.1569-.0618.5984-.0932.6441-.2054,1.2847-.3463,1.92a23.5288,23.5288,0,0,1-1.1854,3.7891c.1785-.438-.1916.4229-.2713.5909q-.2373.5006-.4994.9887-.52.9686-1.1336,1.8826c-.2029.3025-.4153.5979-.63.8918-.2131.2912-.0441.0635-.1052.1407q-.1884.2379-.3823.4714-.7748.9306-1.64,1.78a23.1365,23.1365,0,0,1-3.8965,3.1407c-8.6935,5.7331-19.7357,7.3943-29.9481,8.0218a19.3806,19.3806,0,0,1-8.7634-1.038,16.1749,16.1749,0,0,1-9.4493-18.9087,15.733,15.733,0,0,1,1.4569-3.6354c1.2482-2.2382-2.1865-4.2465-3.435-2.0079a20.073,20.073,0,0,0,12.1477,28.9808c3.3747.9262,6.79.7069,10.2364.4334,3.43-.2721,6.8544-.6881,10.2413-1.2962a59.0014,59.0014,0,0,0,15.5324-4.85c6.6025-3.2278,12.1574-8.3873,14.7081-15.3861a29.9778,29.9778,0,0,0,.8085-16.0451,29.6245,29.6245,0,0,0-2.789-8.5255c-.0217-.0387-.0387-.0806-.0587-.12a1.9808,1.9808,0,0,0-1.7175-.9852l-27.6312-.4764-43.865-.7563-10.0531-.1733c-2.5609-.0442-2.5614,3.934,0,3.9782Z"/><circle class="cls-2" cx="242.0224" cy="316.344" r="23.5375"/><path d="M263.5708,316.344a21.5476,21.5476,0,1,1-17.2921-21.1328,21.7448,21.7448,0,0,1,17.2921,21.1328c.0187,2.5588,3.9969,2.5646,3.9782,0a25.5294,25.5294,0,1,0-20.5447,25.0348c11.8659-2.2635,20.4574-13.0709,20.5447-25.0348C267.5677,313.7835,263.59,313.7809,263.5708,316.344Z"/><circle class="cls-8" cx="232.077" cy="332.9197" r="30.8308"/><path d="M260.9187,332.92a28.72,28.72,0,1,1-.3329-4.472,28.7756,28.7756,0,0,1,.3329,4.472c.0143,2.559,3.9925,2.5645,3.9782,0a32.8942,32.8942,0,1,0-.4219,5.1921,35.8713,35.8713,0,0,0,.4219-5.1921C264.9112,330.3594,260.9331,330.3564,260.9187,332.92Z"/><path class="cls-4" d="M317.5366,376.1112a16.3077,16.3077,0,0,0-4.6893.6874,16.3152,16.3152,0,1,0-31.2556,0,16.3153,16.3153,0,1,0,0,31.2556,16.3152,16.3152,0,1,0,31.2556,0,16.3156,16.3156,0,1,0,4.6893-31.943Z"/></svg>