<svg id="Layer_1" data-name="Layer 1" xmlns="http://www.w3.org/2000/svg" width="1000" height="1000" viewBox="0 0 1000 1000"><defs><style>.cls-1{fill:#fff;}.cls-2{fill:#ea2f2f;}.cls-3{fill:#a8542a;}.cls-4{fill:#458dc9;}.cls-5{fill:#ffc41f;}.cls-6{fill:#389b48;}.cls-7{fill:#fc7f3a;}.cls-8{fill:#e2e2e2;}</style></defs><rect x="25" y="80.9693" width="396.3521" height="886.2098"/><path d="M421.3521,965.0857H31.0322c-1.5383,0-3.883-.4547-5.3669,0a2.63,2.63,0,0,1-.6653,0l2.0934,2.0934V94.328c0-3.8657.4213-8.0039,0-11.8518a14.1315,14.1315,0,0,1,0-1.5069L25,83.0627H415.32c1.5383,0,3.883.4547,5.3669,0a2.63,2.63,0,0,1,.6653,0l-2.0934-2.0934v850.236c0,11.4835-.1844,22.9845,0,34.4669.008.502,0,1.0048,0,1.5069,0,2.694,4.1868,2.6985,4.1868,0V116.9431c0-11.4835.1844-22.9844,0-34.4669-.0081-.502,0-1.0048,0-1.5069a2.1238,2.1238,0,0,0-2.0934-2.0934H41.3109c-5.0908,0-10.5785-.5847-15.6456,0a5.93,5.93,0,0,1-.6653,0,2.1238,2.1238,0,0,0-2.0934,2.0934v850.236c0,11.4835-.1844,22.9845,0,34.4669.0081.502,0,1.0048,0,1.5069A2.1238,2.1238,0,0,0,25,969.2725H405.0412c5.0908,0,10.5785.5847,15.6456,0a5.93,5.93,0,0,1,.6653,0C424.0461,969.2725,424.0506,965.0857,421.3521,965.0857Z"/><path class="cls-1" d="M421.3521,94.9254H25V77.3391A47.3093,47.3093,0,0,1,72.3094,30.03H374.0427a47.3093,47.3093,0,0,1,47.3094,47.3094Z"/><path d="M421.3521,92.832H41.0891c-5.0965,0-10.3267-.3406-15.4152,0-.2225.0148-.4506,0-.6739,0l2.0934,2.0934c0-7.3738-.4935-14.9384.2314-22.2868A45.3881,45.3881,0,0,1,47.131,39.7718a45.95,45.95,0,0,1,25.6059-7.6487q3.1176-.0045,6.2354,0h283.085c6.347,0,13.0922-.4714,19.37.59a45.6532,45.6532,0,0,1,31.57,21.655,44.8667,44.8667,0,0,1,6.1048,19.0913c.304,3.7447.1568,7.5471.1568,11.3V94.9254c0,2.694,4.1868,2.6984,4.1868,0,0-7.6293.5637-15.51-.3183-23.1036a49.4249,49.4249,0,0,0-49.2831-43.8855c-1.8261-.0063-3.6524,0-5.4786,0H83.1492c-7.7927,0-15.6649-.3911-23.2844,1.5809A49.3578,49.3578,0,0,0,23.138,72.6386c-.3957,4.0113-.2314,8.0952-.2314,12.1206V94.9254A2.1238,2.1238,0,0,0,25,97.0188H405.263c5.135,0,10.2809.0982,15.4152,0,.2244-.0043.4494,0,.6739,0C424.0461,97.0188,424.0506,92.832,421.3521,92.832Z"/><path d="M664.7012,480.1433l2.489,13.4219a18.1317,18.1317,0,0,1-17.8277,21.4376H456.0664A18.1317,18.1317,0,0,1,438.41,492.7494l1.89-8.095,147.13-49.899,39.077,23.0275"/><path d="M662.6826,480.7l2.3869,12.8716a16.2706,16.2706,0,0,1-7.466,17.0668c-4.3061,2.5791-8.9392,2.2711-13.6985,2.2711h-187.23a16.5753,16.5753,0,0,1-10.6105-3.4806,16.3972,16.3972,0,0,1-5.7471-9.444,19.2217,19.2217,0,0,1,.5188-8.4274l1.4815-6.3465-1.4621,1.4621,14.6861-4.9808,35.136-11.9163L533.2735,455.33,569.96,442.8875l12.0741-4.0949c1.8706-.6344,3.9076-1.1223,5.71-1.9366.0763-.0345.1619-.055.2415-.0819l-1.6131-.2111,13.201,7.7792,21.043,12.4,4.833,2.848c2.3265,1.371,4.4355-2.2467,2.1132-3.6152l-18.68-11.0078-13.34-7.8611c-2.31-1.361-4.5852-2.8515-6.9583-4.1-1.1787-.62-2.0725-.1469-3.1854.2306l-5.362,1.8185-19.9406,6.7628-28.0509,9.5134L500.9416,461.88l-29.0007,9.8355-22.1395,7.5086c-3.3014,1.12-6.6391,2.1665-9.914,3.3623-1.3417.49-1.5954,1.4621-1.8811,2.6863-.5208,2.231-1.0484,4.4607-1.5625,6.6933a20.2283,20.2283,0,0,0,19.8476,25.13c1.0046.0027,2.0093,0,3.014,0h181.86c2.7131,0,5.427.0195,8.14,0a20.5056,20.5056,0,0,0,16.4037-8.3347,20.2014,20.2014,0,0,0,3.825-10.403,26.4653,26.4653,0,0,0-.6328-7.0061L666.72,479.5868a2.1126,2.1126,0,0,0-2.5752-1.4621,2.1386,2.1386,0,0,0-1.4621,2.5752Z"/><path class="cls-2" d="M720.8276,786.3686l82.4858,45.2274-63.65,117.1324s-31.2441-19.2742-11.734-63.36a17.2937,17.2937,0,0,0-7.6488-22.3034c-10.0982-5.365-19.8932-10.51-19.8932-10.51"/><path d="M719.771,788.1762l8.2312,4.5132,19.6524,10.7755,23.8759,13.0913,20.551,11.2682,6.7851,3.72a34.2758,34.2758,0,0,0,3.2408,1.7769,1.5851,1.5851,0,0,1,.1494.082l-.751-2.8642-6.317,11.6248-15.2322,28.0309-18.3712,33.8076L745.66,933.3091l-5.2245,9.6143c-.8113,1.493-1.8074,2.9881-2.4743,4.5534-.0286.067-.0711.1309-.106.1951l2.8641-.751c-.15-.0927-.2951-.1923-.44-.2916-.1657-.1133-.3291-.23-.4916-.3476-.1934-.14-.9949-.7687-.3567-.26a43.1261,43.1261,0,0,1-4.0415-3.6385q-1.2872-1.3237-2.4586-2.7536c-.1851-.2257-.3672-.4538-.5484-.6827-.3687-.4656.2509.3348-.1122-.1443q-.1658-.2185-.33-.4387-.6784-.9153-1.3088-1.8649a41.821,41.821,0,0,1-4.362-8.5256,47.4123,47.4123,0,0,1-1.725-25.1489,88.3873,88.3873,0,0,1,5.5442-17.2289,19.5846,19.5846,0,0,0-.5472-15.8087,19.0263,19.0263,0,0,0-5.62-6.8468c-2.9624-2.2713-6.5634-3.7955-9.8521-5.5352q-6.309-3.3372-12.6265-6.6587c-2.3832-1.252-4.5019,2.36-2.1131,3.6152q5.1273,2.6937,10.2476,5.4011c3.2161,1.6993,6.4534,3.3656,9.6456,5.1094a15.3193,15.3193,0,0,1,5.5526,4.9858,15.4885,15.4885,0,0,1,1.41,14.2949c-2.2775,5.6486-4.4488,11.2071-5.6125,17.2137-1.707,8.8112-1.6106,18.0327,1.2641,26.5958a46.104,46.104,0,0,0,9.6473,16.3794,34.7355,34.7355,0,0,0,7.1214,6.194,2.1163,2.1163,0,0,0,2.8642-.751l6.317-11.6248L763.02,910.1293l18.3712-33.8076,15.9253-29.3064c2.563-4.7165,5.2615-9.3844,7.6988-14.1677.0335-.0658.0707-.13.106-.195a2.1258,2.1258,0,0,0-.751-2.8642l-8.2312-4.5132L776.4864,814.5l-23.8759-13.0912L732.06,790.14c-3.3357-1.829-6.6327-3.7758-10.0259-5.4972-.05-.0257-.1-.0547-.1494-.0819-2.3638-1.2961-4.479,2.318-2.1132,3.6152Z"/><path class="cls-1" d="M759.4825,910.6286l-34.4271-17.8951c-11.8226,34.9882,9.4682,52.3531,13.8416,55.4745l-.0379.069,14.871,9.6764c2.97-1.7341,10.1925-4.3522,12.43-8.4323,2.9505-5.38-2.6341-8.4428.3164-13.8231s8.5344-2.317,11.4844-7.6964-2.6343-8.4423.316-13.8224,8.5349-2.3176,11.4852-7.6978-2.6339-8.4432.3169-13.8239,8.5342-2.3168,11.4842-7.6961c2.9508-5.3812-2.6338-8.4437.3172-13.8248s8.5355-2.319,11.4865-7.7-2.633-8.4445.3185-13.8267c1.8016-3.2857,4.5845-3.4242,7.1508-4.2581a2.8942,2.8942,0,0,0,.3787-5.3594l-6.7583-3.271-11.7056-5.08Z"/><path d="M760.539,908.821l-30.2008-15.6984-4.2262-2.1967a2.1267,2.1267,0,0,0-3.0752,1.251c-3.6752,10.979-4.9964,22.98-1.6859,34.2242A45.8591,45.8591,0,0,0,732.62,945.538a40.08,40.08,0,0,0,5.22,4.4776l-.751-2.8642-.0379.069a2.1418,2.1418,0,0,0,.751,2.8642l14.8711,9.6764a2.0888,2.0888,0,0,0,2.1131,0c5.4733-3.14,14.1952-5.739,14.3553-13.404.061-2.9211-2.1882-5.9125-1.2253-8.7763,1.1152-3.3167,4.371-3.3215,7.1425-4.4407a9.2046,9.2046,0,0,0,5.87-8.8832c-.182-2.8473-2.3077-5.8814-1.0215-8.6807,1.4377-3.1292,4.9636-2.9914,7.7126-4.28a9.1272,9.1272,0,0,0,5.0512-9.1282c-.36-3.0221-2.3606-5.8655-.593-8.7856,1.6226-2.6806,5.34-2.477,7.8543-3.8626a9.24,9.24,0,0,0,4.4211-9.7089c-.5222-2.9433-2.2939-5.6249-.1857-8.3945,1.8454-2.4244,5.6423-2.1043,8.0649-3.7213a9.3509,9.3509,0,0,0,3.8128-9.9643c-.6714-2.9554-2.2814-5.9874.5092-8.46,1.1737-1.04,2.7835-1.2924,4.2422-1.7188a5.3412,5.3412,0,0,0,3.91-3.4545,5.052,5.052,0,0,0-1.11-4.9166,7.4468,7.4468,0,0,0-2.3-1.4681c-1.8995-.9193-3.7865-1.872-5.7012-2.7594-3.4531-1.6-6.99-3.038-10.4819-4.5532l-1.3062-.5669a2.1435,2.1435,0,0,0-2.8642.751l-4.2946,7.84-10.3166,18.8333-12.4883,22.7977L762.9933,899.863c-1.7447,3.185-3.6069,6.3324-5.2447,9.5744-.023.0456-.0492.09-.0737.1346-1.2952,2.3643,2.3189,4.48,3.6152,2.1132l4.2946-7.84,10.3166-18.8333L788.39,862.2142l10.85-19.8078,3.5437-6.4691a31.64,31.64,0,0,0,1.701-3.1053,1.3875,1.3875,0,0,1,.0738-.1346l-2.8642.751,10.6158,4.6072c1.0741.4662,2.1222.9727,3.1767,1.483l3.2658,1.5807a8.2734,8.2734,0,0,1,1.6925.83c.5829.4954.3868,1.1458-.3141,1.43-1.578.64-3.2556.821-4.7794,1.6511a9.2523,9.2523,0,0,0-4.4313,9.87c.5385,2.8574,2.23,5.4886.2036,8.1892-1.8,2.3995-5.4344,2.16-7.863,3.6323a9.27,9.27,0,0,0-4.1714,9.5658c.5185,2.9218,2.2695,5.5609.2308,8.3267-1.7417,2.3629-5.3417,2.1726-7.7363,3.5574a9.2575,9.2575,0,0,0-4.2958,9.6365c.5025,2.8866,2.2618,5.5137.2756,8.259-1.7232,2.3819-5.2417,2.2226-7.6563,3.5536a9.2235,9.2235,0,0,0-4.443,9.5685c.4793,2.8862,2.231,5.4634.3976,8.2429-1.67,2.5318-5.2927,2.3506-7.7552,3.7078a9.2112,9.2112,0,0,0-4.465,9.4281c.4287,2.7928,2.2192,5.4133.57,8.1395-1.6258,2.6881-5.1288,4.2156-7.8256,5.5532-1.2428.6164-2.5091,1.1943-3.7131,1.8851h2.1131l-14.871-9.6764.751,2.8642.0379-.0691a2.1536,2.1536,0,0,0-.751-2.8641c-.2547-.1824-.5039-.3716-.755-.5589-.1476-.11.4295.3476-.0335-.0291-.1974-.1606-.3969-.3187-.5928-.4812q-1.1989-.9942-2.3157-2.0826a39.9,39.9,0,0,1-5.4278-6.46,42.6429,42.6429,0,0,1-7.208-23.5261,60.8711,60.8711,0,0,1,3.4533-19.9727l-3.0752,1.2511L754.2,910.2394l4.2262,2.1968C760.8136,913.6773,762.9332,910.0655,760.539,908.821Z"/><path d="M738.7838,899.7686l7.2978-14.38c.9373-1.847,1.89-3.6871,2.8123-5.5416a20.334,20.334,0,0,0,1.6041-14.1445,20.099,20.099,0,0,0-8.94-12.0631c-1.2035-.7355-2.4842-1.36-3.7276-2.0236l-17.0534-9.0977-13.5021-7.2032c-2.3765-1.2678-4.4939,2.3451-2.1132,3.6152l28.2734,15.0834q2.3868,1.2734,4.7737,2.5467a16.3785,16.3785,0,0,1,6.9891,6.9056,15.8745,15.8745,0,0,1,.6034,13.1335c-.705,1.7638-1.697,3.4482-2.5548,5.1384l-8.0781,15.9174c-1.2167,2.3975,2.3942,4.5191,3.6152,2.1132Z"/><path d="M789.12,856.01a27.464,27.464,0,0,1-6.304-4.48,19.0467,19.0467,0,0,1-4.6433-18.3137,25.1369,25.1369,0,0,1,2.7221-5.8767l3.1858-5.512c1.3508-2.3371-2.2659-4.4478-3.6152-2.1132-2.2383,3.8726-4.95,7.7373-6.2355,12.06a23.45,23.45,0,0,0,4.5021,21.4605,28.9523,28.9523,0,0,0,8.2749,6.39c2.3389,1.3472,4.45-2.2693,2.1131-3.6152Z"/><path class="cls-3" d="M730.3929,874.847a16.6959,16.6959,0,0,1,10.8553,1.0078"/><path d="M730.9494,876.8656a7.554,7.554,0,0,1,.821-.1971q.1977-.0388.3965-.0712a2.6919,2.6919,0,0,0,.2714-.0419c-.0925.0257-.5694.0679-.2091.029.4293-.0464.858-.0851,1.29-.1019q.7408-.0289,1.4824.0065.432.0208.8626.0629a2.8751,2.8751,0,0,1,.4093.0445c-.5119-.1276.0265.0056.12.0206a17.8627,17.8627,0,0,1,1.9793.4348q.4783.1336.949.294.2926.1.5819.2088c.06.0227.6005.24.2884.1078a2.3008,2.3008,0,0,0,1.6131.211,2.0939,2.0939,0,0,0,.5-3.8262,20.4635,20.4635,0,0,0-8.6547-1.7562,14.3282,14.3282,0,0,0-3.8137.5373,2.094,2.094,0,0,0,1.113,4.0373Z"/><path class="cls-3" d="M727.0706,867.5569a16.6954,16.6954,0,0,1,9.2447-5.7784"/><path d="M728.8782,868.6135c.2367-.337-.2981.3686-.1771.2251.139-.1649.2732-.333.4171-.4938a15.1158,15.1158,0,0,1,1.6546-1.5777c.1005-.0829.2052-.1613.3047-.2453-.5011.4228-.2256.1731-.0989.0783q.3487-.2607.71-.5037a17.5938,17.5938,0,0,1,1.5514-.93q.4061-.216.8231-.4107a1.7376,1.7376,0,0,1,.4989-.2239q-.43.18-.1122.0495.1321-.0532.2652-.1044a19.0718,19.0718,0,0,1,2.1566-.68,2.094,2.094,0,0,0-1.113-4.0373,20.35,20.35,0,0,0-7.8723,3.9859A13.9509,13.9509,0,0,0,725.263,866.5a2.1039,2.1039,0,0,0,.751,2.8642,2.1483,2.1483,0,0,0,2.8642-.751Z"/><path class="cls-3" d="M718.6692,861.844a16.6963,16.6963,0,0,1,5.8661-9.1893"/><path d="M720.6878,862.4005a7.5415,7.5415,0,0,1,.2071-.8419c.09-.3076.1911-.6116.3017-.9122.0683-.1854.1433-.368.2154-.5519.1255-.32-.2417.5526-.0276.0724q.0705-.1578.1442-.3142a17.3657,17.3657,0,0,1,1.7212-2.8842q.08-.1089.1618-.2165-.2618.336-.1166.1518c.1037-.1272.2052-.2562.3105-.3821q.3283-.3928.679-.7665a18.9248,18.9248,0,0,1,1.7311-1.62,2.1012,2.1012,0,0,0,0-2.9605,2.1507,2.1507,0,0,0-2.9606,0,19.3772,19.3772,0,0,0-5.1416,6.5651,14.169,14.169,0,0,0-1.2628,3.5479,2.1441,2.1441,0,0,0,1.4621,2.5751,2.1188,2.1188,0,0,0,2.5751-1.4621Z"/><path class="cls-3" d="M708.7419,856.4755a16.6956,16.6956,0,0,1,5.8661-9.1893"/><path d="M710.7605,857.032a7.57,7.57,0,0,1,.207-.842c.09-.3075.1912-.6115.3018-.9121.0683-.1854.1432-.368.2154-.552.1254-.32-.2417.5527-.0276.0725q.07-.1578.1442-.3142a17.3652,17.3652,0,0,1,1.7211-2.8842q.08-.1089.1618-.2165-.2618.336-.1166.1518c.1038-.1272.2052-.2562.31-.3822q.3285-.3927.679-.7664a18.9508,18.9508,0,0,1,1.7311-1.62,2.1012,2.1012,0,0,0,0-2.9606,2.1507,2.1507,0,0,0-2.9605,0,19.3785,19.3785,0,0,0-5.1416,6.5652,14.1732,14.1732,0,0,0-1.2629,3.5479,2.1442,2.1442,0,0,0,1.4622,2.5751,2.1188,2.1188,0,0,0,2.5751-1.4621Z"/><path class="cls-2" d="M453.9341,858.42,426.867,948.513,299.0511,910.6382s12.3486-34.5717,59.53-24.6656a17.2936,17.2936,0,0,0,20.2227-12.1237c3.1456-10.9938,6.1395-21.6453,6.1395-21.6453"/><path d="M451.9155,857.8632l-2.701,8.99-6.4488,21.465-7.8347,26.0779-6.7437,22.4464-2.2265,7.4108a35.7932,35.7932,0,0,0-1.0634,3.54,1.6353,1.6353,0,0,1-.049.1633l2.5751-1.4622-12.6851-3.7589-30.5875-9.0638L347.26,922.74,315.28,913.2637l-10.4912-3.1087c-1.6315-.4835-3.2981-1.1385-4.9687-1.4724-.0715-.0143-.1427-.0423-.2129-.0631l1.4622,2.5752c.06-.1677.1379-.33.196-.4976.1146-.3314-.2677.5906-.1026.2431.0476-.1.0877-.2043.1335-.3053.124-.2732.2485-.5459.3788-.8163a38.8724,38.8724,0,0,1,2.56-4.4883q.4629-.7036.9532-1.3887.2158-.3018.437-.6c.0906-.1222.1827-.2432.2737-.3651.35-.4693-.0754.0886.1482-.1925.837-1.052,1.7082-2.0736,2.6326-3.05a43.5222,43.5222,0,0,1,3.2431-3.0912,33.5085,33.5085,0,0,1,3.65-2.7729,45.9912,45.9912,0,0,1,22.9931-7.47,70.3592,70.3592,0,0,1,16.6759,1.0509c2.9993.5345,5.8924,1.2169,8.9587.8723a19.714,19.714,0,0,0,8.0886-2.7179,19.4451,19.4451,0,0,0,6.6608-6.79c1.9379-3.3414,2.697-7.2944,3.7435-10.9734q2.1441-7.5378,4.2673-15.0818c.73-2.5981-3.3081-3.7071-4.0373-1.113q-1.7467,6.2139-3.5117,12.4228c-.9958,3.5078-1.7746,7.1854-3.0807,10.59a15.1018,15.1018,0,0,1-4.6464,6.2868,15.45,15.45,0,0,1-7.0181,3.114c-2.859.4925-5.5136-.1478-8.3116-.6464a75.7473,75.7473,0,0,0-17.16-1.2363,51.1618,51.1618,0,0,0-24.6469,7.37,46.2021,46.2021,0,0,0-13.1438,12.5177,34.3129,34.3129,0,0,0-4.3733,8.0164,2.12,2.12,0,0,0,1.4621,2.5752l12.6851,3.7589,30.5876,9.0638,36.8911,10.9317,31.9793,9.4762c5.1374,1.5223,10.2628,3.2715,15.46,4.5811.0716.018.1421.0421.2129.0631a2.128,2.128,0,0,0,2.5751-1.4621l2.701-8.99,6.4488-21.465,7.8347-26.0779,6.7437-22.4464c1.0918-3.6341,2.3776-7.2657,3.29-10.95.0136-.055.0328-.109.0491-.1633.7769-2.586-3.2628-3.6911-4.0373-1.113Z"/><path class="cls-4" d="M474.9,470.4651,374.3725,847.9345l99.84,25.113s69.59-276.0463,77.0961-318.2248,12.5617-99.634,12.5617-99.634"/><path d="M472.8813,469.9086l-2.6884,10.0947-7.3165,27.4726-10.8213,40.6328-13.203,49.5758-14.4615,54.3012-14.5967,54.8091-13.6088,51.1L384.6873,801.067l-8.2633,31.0281c-1.2994,4.879-2.6979,9.7435-3.9009,14.6474-.0522.2128-.1129.4238-.1693.6355a2.1231,2.1231,0,0,0,1.4621,2.5751l33.7893,8.4991,53.7908,13.53,12.26,3.0837a2.1253,2.1253,0,0,0,2.5751-1.4621q1.3456-5.3379,2.6865-10.677,3.5861-14.2674,7.1587-28.538,5.2123-20.8166,10.4-41.6392,6.1554-24.7079,12.2718-49.4254,6.5074-26.3055,12.9552-52.6257,6.1686-25.199,12.2478-50.42,5.2455-21.8013,10.352-43.6359c2.4393-10.4885,4.8609-20.984,7.0868-31.52,3.3752-15.9772,5.6439-32.1762,7.7665-48.36q3.817-29.1027,6.5123-58.3442.15-1.6149.2949-3.23c.2364-2.6834-3.9518-2.6675-4.1868,0-1.2664,14.3734-2.8194,28.7268-4.5071,43.056-2.3866,20.263-4.8611,40.637-8.8634,60.6557-1.8751,9.3785-4.0126,18.7062-6.1521,28.0271q-4.7448,20.6717-9.7136,41.2911-5.8935,24.6361-11.9112,49.2424-6.3938,26.2035-12.8636,52.3885-6.245,25.297-12.5373,50.5822-5.4518,21.9151-10.9319,43.8231-4.0162,16.0575-8.0476,32.1113c-1.283,5.1086-2.9385,10.2622-3.8844,15.4469-.0415.2276-.1142.4533-.1708.6779l2.5751-1.4621L440.9794,862.53,387.1886,849l-12.26-3.0837,1.4621,2.5751,2.6884-10.0947,7.3165-27.4726,10.8213-40.6328,13.203-49.5758,14.4615-54.3012,14.5967-54.8091,13.6088-51.1,11.4977-43.1726,8.2634-31.0281c1.2994-4.879,2.6978-9.7435,3.9009-14.6474.0522-.2128.1129-.4238.1692-.6355.6942-2.6064-3.3434-3.7183-4.0372-1.113Z"/><path class="cls-4" d="M532.3028,475.228l-20.818,180.2777c-5.9779,53.9717,16.6656,107.4529,60.2813,139.8a138.1619,138.1619,0,0,0,16.2853,10.44L692.5421,862.53l50.35-89.7972S656.5826,718.23,617.835,699.9546l14.73-144.2868A119.9262,119.9262,0,0,0,628.22,509.34l-21.2527-58.5349H541.3742"/><path d="M530.2094,475.228l-2.2442,19.4336-5.2744,45.6754-6.2781,54.3657L511.309,638.9c-.9077,7.8607-2.0207,15.7413-2.5356,23.6412a157.0634,157.0634,0,0,0,16.8173,81.3408c13.3578,26.1223,34.415,48.5856,60.0716,62.9375,8.0953,4.5284,16.3008,8.8688,24.4507,13.2977l46.8647,25.4677,32.7873,17.8176,1.7205.9349a2.1274,2.1274,0,0,0,2.8641-.751l17.07-30.4438,27.0713-48.2809,6.2083-11.0725a2.1367,2.1367,0,0,0-.751-2.8641q-15.6236-9.865-31.4114-19.4691c-20.6468-12.6242-41.4128-25.0773-62.5227-36.9146-10.2228-5.7323-20.5221-11.3844-31.1226-16.3942l1.0369,1.8076,3.2273-31.6138,6.3817-62.5117,4.7438-46.4673a139.0934,139.0934,0,0,0,.5435-26.2947,121.0184,121.0184,0,0,0-7.0345-31.0287l-18.338-50.5069-.4659-1.2831a2.166,2.166,0,0,0-2.0186-1.5369H541.3742c-2.694,0-2.6985,4.1868,0,4.1868h65.5935l-2.0186-1.5369,16.6739,45.9238c2.6168,7.2074,5.29,14.1718,6.8955,21.6979a122.7337,122.7337,0,0,1,1.7978,38.2047l-4.2189,41.3263L619.66,661.5735l-2.5637,25.1123c-.43,4.2166-1.0515,8.4621-1.2959,12.6947-.0111.1914-.0392.3832-.0586.5741a2.0234,2.0234,0,0,0,1.0368,1.8076c20.2988,9.5931,39.74,21.1119,59.06,32.5094q27.6324,16.3008,54.8493,33.2955,5.5825,3.4721,11.1472,6.973l-.751-2.8642L724.014,802.12l-27.0712,48.2808-6.2083,11.0725,2.8641-.751-23.7322-12.8969-46.4215-25.2268-32.6665-17.7519A148.1844,148.1844,0,0,1,539.4378,758.91a152.3391,152.3391,0,0,1-26.6118-78.5556c-.5875-11.7214.5646-23.2244,1.9038-34.8208l4.5556-39.4508,6.16-53.3419,5.6805-49.1911,3.1248-27.0606.1457-1.2611c.3085-2.6718-3.8809-2.65-4.1868,0Z"/><path d="M481.1169,845.6355l-9.9537-2.5316-23.78-6.0481-28.885-7.3465-24.8825-6.3285c-4.0475-1.0294-8.0871-2.2028-12.1679-3.0947-.058-.0127-.1154-.0294-.173-.044-2.6124-.6644-3.7268,3.3725-1.1131,4.0373l9.9538,2.5315,23.78,6.0481,28.885,7.3465,24.8825,6.3285c4.0475,1.0294,8.0871,2.2029,12.1679,3.0947.058.0127.1154.0294.173.044,2.6124.6644,3.7268-3.3725,1.113-4.0372Z"/><path d="M720.5264,759.6657l-4.9922,8.9095-11.9926,21.4034-14.5775,26.0165-12.5509,22.4c-2.0317,3.6261-4.1962,7.2082-6.1074,10.9-.0274.0529-.0584.1042-.0875.1561-1.3185,2.3533,2.2966,4.4665,3.6152,2.1132l4.9921-8.91,11.9927-21.4034,14.5774-26.0165,12.551-22.4c2.0317-3.6261,4.1962-7.2081,6.1074-10.9.0274-.0528.0584-.1041.0875-.1561,1.3185-2.3532-2.2966-4.4665-3.6152-2.1132Z"/><path class="cls-1" d="M340.442,922.0929l10.337-37.3978c-36.6828-4.2808-49.2356,20.1582-51.3782,25.0855l-.0754-.0227-6.3691,16.56c2.3143,2.5436,6.3786,9.0633,10.835,10.4024,5.8766,1.7659,7.71-4.3338,13.5862-2.5678s4.0426,7.8652,9.9183,9.6308,7.7091-4.3339,13.5853-2.5681,4.0435,7.8655,9.92,9.6313,7.71-4.3337,13.5871-2.5676c5.8755,1.7655,4.0425,7.8651,9.918,9.6307,5.8776,1.7661,7.71-4.3336,13.588-2.5673s4.0449,7.8658,9.9227,9.632,7.7115-4.3331,13.59-2.5665c3.5887,1.0781,4.3036,3.7713,5.6533,6.1078a2.8943,2.8943,0,0,0,5.3209-.7452l1.7926-7.2911,2.5324-12.5067Z"/><path d="M342.4606,922.65l9.0681-32.807,1.269-4.5909a2.127,2.127,0,0,0-2.0187-2.65c-11.4837-1.31-23.4052-.06-33.7,5.4784a45.8276,45.8276,0,0,0-16.3556,14.9836,37.07,37.07,0,0,0-3.1306,5.66l2.3641-.962-.0754-.0227a2.1452,2.1452,0,0,0-2.5752,1.4621l-6.369,16.5595a2.0865,2.0865,0,0,0,.5384,2.0368c4.3676,4.8779,9.4011,13.7336,17.3359,10.812,2.7391-1.0086,4.9646-3.359,8.0089-2.4391s3.6324,4.3651,5.4185,6.63a9.1321,9.1321,0,0,0,9.9543,2.9175c2.7-.96,4.9775-3.3607,7.96-2.5327,3.06.85,3.5719,3.9625,5.2627,6.2545a9.21,9.21,0,0,0,10.0338,3.4259c2.6516-.8449,4.9918-3.3565,7.8738-2.7028,3.2414.7352,3.7487,3.7259,5.4443,6.1285a9.2548,9.2548,0,0,0,9.9341,3.7137c2.6539-.7428,4.98-3.2791,7.8-2.8481,3.4253.5236,4.0092,3.62,5.7016,6.0909a9.2833,9.2833,0,0,0,9.7523,3.8894c2.7236-.6519,5.0627-3.2729,7.897-2.9452a5.1649,5.1649,0,0,1,3.9055,2.6077c.9353,1.5509,1.4987,3.4148,3.0866,4.4516a5.0529,5.0529,0,0,0,7.6131-3.1652c.5669-2.1914,1.0852-4.3972,1.6218-6.5962.918-3.7618,1.56-7.6072,2.3285-11.4022l.3158-1.56a2.144,2.144,0,0,0-1.4621-2.5751L418.7,943.3848l-20.5682-6.17-24.8978-7.4693-21.6326-6.49c-3.4688-1.0406-6.9374-2.2748-10.4563-3.1369-.05-.0121-.0982-.0294-.147-.0441-2.5863-.7759-3.6915,3.2637-1.1131,4.0373l8.5622,2.5686,20.5682,6.17,24.8979,7.4693,21.6325,6.49,7.065,2.1194a32.9719,32.9719,0,0,0,3.3913,1.0174,1.4247,1.4247,0,0,1,.147.0442l-1.4621-2.5752L422.2953,959.23c-.2788,1.3773-.6427,2.7364-.9781,4.1008l-.8269,3.3631c-.1543.6276-.3186,1.1166-.7661,1.1792-1.0021.14-1.5614-1.7767-2.0523-2.665a9.82,9.82,0,0,0-3.7912-4.0288c-3.4819-1.887-6.9257-1.1957-10.212.64a8.8187,8.8187,0,0,1-3.3529,1.3726,5.06,5.06,0,0,1-3.9943-1.4554,15.004,15.004,0,0,1-2.08-3.4421,10.5405,10.5405,0,0,0-3.1506-3.7264c-3.1143-2.1887-6.9015-1.9567-10.1363-.252-2.4788,1.3062-4.947,2.851-7.63.8285a8.834,8.834,0,0,1-2.23-3.2229,12.4128,12.4128,0,0,0-2.6477-3.7408,9.3461,9.3461,0,0,0-10.1831-1.332c-2.611,1.1947-4.6872,3.1039-7.6547,1.6984-2.5857-1.2247-3.2109-4.694-5.002-6.7612a9.1385,9.1385,0,0,0-9.87-2.4151c-2.685,1.0353-4.8861,3.2948-7.8859,2.3934-2.9235-.8785-3.4581-3.9931-5.0911-6.2067a9.2308,9.2308,0,0,0-9.78-3.5019c-2.597.7271-4.8932,3.1956-7.6368,2.8788-3.4374-.397-6.08-4.0862-8.0606-6.5674-.9423-1.1808-1.8389-2.4037-2.8473-3.53l.5384,2.0368,6.369-16.56-2.5751,1.4622.0754.0227a2.106,2.106,0,0,0,2.3641-.9621,36.0112,36.0112,0,0,1,2.4916-4.669q1.07-1.7112,2.2968-3.316c.0592-.0776-.138.1718.1035-.1312.1119-.14.2233-.2811.3362-.4206q.3774-.4662.7673-.922.8225-.9612,1.6993-1.8738a42.7252,42.7252,0,0,1,21.5191-11.9458,60.9307,60.9307,0,0,1,20.3568-.77l-2.0186-2.65-9.0681,32.807-1.269,4.5908C337.7044,924.1373,341.7425,925.2472,342.4606,922.65Z"/><path d="M346.8562,899.6178l15.5839,4.1448c2.0016.5323,4,1.0811,6.0055,1.5972a20.3449,20.3449,0,0,0,13.9989-1.3781,20.0488,20.0488,0,0,0,10.0334-11.3712c.4794-1.3568.83-2.7682,1.2281-4.15l5.3624-18.6211,4.2009-14.5878c.747-2.5941-3.2918-3.7016-4.0373-1.1131l-8.8678,30.7937q-.7409,2.5728-1.4818,5.1456a16.329,16.329,0,0,1-5.3245,8.27A15.78,15.78,0,0,1,370.809,901.61c-1.8827-.3637-3.7385-.9488-5.59-1.4411l-17.25-4.588c-2.6066-.6932-3.7186,3.3443-1.1131,4.0373Z"/><path d="M400.064,939.612a27.3531,27.3531,0,0,1,3.1243-7.1312,19.05,19.05,0,0,1,17.11-8.2081,25.4422,25.4422,0,0,1,6.1656,1.4578l6.0544,1.9686c2.5683.8352,3.6686-3.2062,1.113-4.0372-4.184-1.3605-8.404-3.1264-12.8161-3.535a23.2876,23.2876,0,0,0-20.28,8.9249,29.8609,29.8609,0,0,0-4.5086,9.4472c-.8314,2.5695,3.21,3.67,4.0372,1.113Z"/><path class="cls-3" d="M369.3848,886.1925a16.6961,16.6961,0,0,1,1.2738,10.8274"/><path d="M367.5772,887.2491c.1341.2363.2308.49.3511.7327-.3618-.73-.0866-.2042-.01-.0044q.0984.2573.1869.5181.2049.6023.3607,1.22.1876.74.3087,1.4944c.0248.1543.1708.5466.0084.0231a2.42,2.42,0,0,1,.0514.4538q.0435.4356.0652.8731a17.8485,17.8485,0,0,1-.0112,1.9844q-.0342.5586-.1029,1.1142c.0382-.3127.0053-.0483-.0213.1165-.0371.23-.0795.46-.1241.6887a2.094,2.094,0,0,0,4.0373,1.1131,20.52,20.52,0,0,0-.1444-8.8549,14.2343,14.2343,0,0,0-1.34-3.5856,2.0938,2.0938,0,0,0-3.6152,2.1132Z"/><path class="cls-3" d="M375.8236,881.4255a16.6961,16.6961,0,0,1,7.5762,7.8394"/><path d="M374.767,883.2331a10.3,10.3,0,0,1,1.729.9972q.1885.1286.3733.2624.0906.0657.18.1327c.041.0306.0816.0619.1227.0925.2128.1581-.2387-.1851-.236-.1824.2814.28.6269.51.9222.7778a17.5487,17.5487,0,0,1,1.9215,2.0445c.28.35-.2516-.3378.021.0263q.14.1872.2755.378.2623.37.5059.7531a19.0265,19.0265,0,0,1,1.01,1.8063,2.1058,2.1058,0,0,0,2.8642.751,2.1464,2.1464,0,0,0,.751-2.8641,19.2047,19.2047,0,0,0-7.68-8.2634,7.0077,7.0077,0,0,0-.6467-.3271,2.3,2.3,0,0,0-1.6131-.211,2.135,2.135,0,0,0-1.2511.9621,2.1129,2.1129,0,0,0-.211,1.613,2.0133,2.0133,0,0,0,.962,1.2511Z"/><path class="cls-3" d="M379.6626,872.019a16.6956,16.6956,0,0,1,10.209,3.8248"/><path d="M379.6626,874.1124a7.463,7.463,0,0,1,.83.0246q.2244.0161.4481.04c.07.0074.14.0165.2109.0239.364.0384-.5437-.0833-.19-.0258.4311.07.86.1448,1.2858.2431q.7356.17,1.4542.4049.3814.1243.7567.2661a2.8852,2.8852,0,0,1,.4267.1677c-.4453-.2591-.0363-.0146.082.0387a17.9166,17.9166,0,0,1,1.8162.9476q.476.2838.9339.5969.1978.1351.3918.2754c.0608.0439.58.4427.283.2087a2.2791,2.2791,0,0,0,1.48.6132,2.0935,2.0935,0,0,0,1.48-3.5737,20.416,20.416,0,0,0-7.8734-3.9549,14.3023,14.3023,0,0,0-3.8159-.4831,2.0934,2.0934,0,1,0,0,4.1868Z"/><path class="cls-3" d="M382.8471,861.1916a16.6965,16.6965,0,0,1,10.2091,3.8249"/><path d="M382.8471,863.2851a7.4389,7.4389,0,0,1,.83.0246q.2244.0159.4481.04c.07.0075.1406.0165.2109.0239.364.0384-.5437-.0833-.19-.0257.4311.07.86.1447,1.2858.243q.7357.17,1.4543.4049.3813.1245.7566.2662a2.8848,2.8848,0,0,1,.4267.1676c-.4453-.259-.0363-.0145.082.0388a17.9052,17.9052,0,0,1,1.8162.9475q.4761.284.9339.597.1979.135.3918.2754c.0608.0439.58.4426.283.2087a2.28,2.28,0,0,0,1.48.6131,2.0934,2.0934,0,0,0,1.48-3.5737,20.416,20.416,0,0,0-7.8734-3.9549,14.3058,14.3058,0,0,0-3.8159-.4831,2.0935,2.0935,0,0,0,0,4.1869Z"/><path d="M598.2207,335.7319c5.389-1.247,7.5169-14.6111,7.1743-30.0865l-24.9717,10.5217C584.314,328.9182,592.5094,337.0533,598.2207,335.7319Z"/><path d="M598.7772,337.7505c4.4921-1.1482,6.196-6.7282,7.0909-10.6809,1.5807-6.9813,1.7668-14.2972,1.62-21.4242-.0249-1.2083-1.3443-2.5688-2.65-2.0187l-21.8555,9.2088-3.1162,1.313a2.1413,2.1413,0,0,0-1.4621,2.5751c1.8282,5.8965,4.6471,11.7225,8.969,16.2085,2.9233,3.0343,7.0037,5.7521,11.4035,4.8184,2.6343-.559,1.5195-4.5959-1.113-4.0372a5.8088,5.8088,0,0,1-1.467.0014,7.41,7.41,0,0,1-1.8325-.6294,16.1847,16.1847,0,0,1-4.4589-3.57,36.439,36.439,0,0,1-7.4638-13.9044l-1.4622,2.5751,21.8555-9.2087,3.1162-1.313-2.65-2.0186a88.701,88.701,0,0,1-1.2593,19.3237,23.7713,23.7713,0,0,1-1.9317,6.1851,12.2364,12.2364,0,0,1-.7008,1.1874,4.4579,4.4579,0,0,1-.5765.6823,4.8858,4.8858,0,0,1-.4162.377c.2807-.2206-.04.01-.1585.0807-.05.03-.4785.24-.2081.1237.2541-.11-.3233.0918-.3863.108C595.0555,334.38,596.1611,338.4192,598.7772,337.7505Z"/><path class="cls-3" d="M497.4126,370.5575,418.2807,439.436l-17.164,14.0368c-23.3764,18.59-41.3094,17.5935-81.4993-8.4818L210.0548,351.3647,236.34,309.7511,364.7321,393.798l6.1308-6.8437,84.39-97.1933a42.9824,42.9824,0,0,1,32.4559-14.8025H510.15"/><path d="M495.9324,369.0773l-16.7142,14.5484-33.6924,29.3268L419.574,435.5416c-6.2376,5.4294-12.7337,10.56-19.1347,15.7943-5.448,4.4554-11.5114,8.54-18.2249,10.8036a39.76,39.76,0,0,1-23.0589.35c-10.8824-2.8633-20.9481-8.4754-30.4992-14.2819a72.8942,72.8942,0,0,1-9.85-6.6545l-21.5085-18.38-33.83-28.909-32.5842-27.8447L212.416,350.6373l-.8809-.7528.3273,2.5368,23.0652-36.5164,3.22-5.0972-2.8642.751,12.78,8.366,30.6877,20.0885,37.116,24.2964,32.0652,20.99c5.1511,3.372,10.2086,7.05,15.5234,10.1618.0753.0441.1469.0962.22.144a2.1079,2.1079,0,0,0,2.5369-.3273c4.9047-5.4751,9.7387-10.9991,14.5579-16.55l28.8635-33.2427,31.6352-36.435c5.1512-5.9327,10.2761-11.8893,15.454-17.7987a41.4743,41.4743,0,0,1,31.1685-14.2005c6.74-.0132,13.481,0,20.2214,0H510.15c2.6941,0,2.6985-4.1868,0-4.1868H490.7259a62.6041,62.6041,0,0,0-11.1331.7444,44.551,44.551,0,0,0-18.4436,7.9242,61.2773,61.2773,0,0,0-9.7825,9.5175l-9.3373,10.754L411.1843,337.33,380.705,372.4338c-4.9091,5.6539-9.7905,11.33-14.7866,16.9073l-2.6666,2.9767,2.5369-.3274-12.78-8.366L322.3209,363.536,285.2048,339.24l-32.0652-20.99c-5.151-3.3719-10.2086-7.05-15.5233-10.1617-.0754-.0442-.147-.0962-.22-.1441a2.1257,2.1257,0,0,0-2.8642.751l-23.0651,36.5164-3.22,5.0973a2.1085,2.1085,0,0,0,.3274,2.5368L221.8973,364.23l30.6941,26.23,34.9562,29.8716,25.3844,21.6922c1.6744,1.4309,3.3293,2.889,5.0253,4.2943a16.2954,16.2954,0,0,0,1.6036,1.1277c3.0621,1.9726,6.1527,3.9014,9.2847,5.761a160.807,160.807,0,0,0,16.5014,8.7047c8.3118,3.708,17.282,6.6285,26.4907,6.3333,8.126-.26,15.7764-3.1535,22.6132-7.4411,5.5069-3.4535,10.4366-7.7233,15.4565-11.8286,3.37-2.7561,6.8072-5.448,10.1117-8.2829,6.7267-5.7706,13.3719-11.6392,20.0569-17.458l34.2812-29.8393,23.352-20.3262,1.1837-1.03c2.0361-1.7722-.9356-4.7231-2.9605-2.9605Z"/><path class="cls-5" d="M514.8577,362.8817l-77.7363,74.4609-17.1641,14.0368c-23.3764,18.59-72.855,40.1547-113.0449,14.0794L223.176,390.096l45.96-60.8064,95.5958,64.5084,6.1308-6.8437,84.39-97.1933a42.9824,42.9824,0,0,1,32.4559-14.8025H510.15"/><path d="M513.3774,361.4014l-14.01,13.42L469.8885,403.058,443.0248,428.79l-6.6807,6.3992c-1.9763,1.893-4.2018,3.5347-6.3182,5.2655-4.1143,3.3646-8.1629,6.834-12.3661,10.088a123.2353,123.2353,0,0,1-23.34,14.0395c-19.2607,8.9884-41.5645,13.7278-62.6131,9.0372a71.6562,71.6562,0,0,1-16.1016-5.6248,39.9745,39.9745,0,0,1-7.5187-4.2919c-1.9637-1.6223-3.8042-3.4237-5.697-5.1272l-26.1976-23.5779-31.2237-28.1013-19.3837-17.4454-.9278-.8349.3273,2.5368,15.5392-20.5586,24.7554-32.752,5.6657-7.4958-2.8641.751,9.5132,6.42,22.8439,15.4153,27.6313,18.6456,23.7923,16.0552c3.8558,2.6019,7.6366,5.4969,11.6467,7.8592.058.0342.1125.076.1683.1136a2.1041,2.1041,0,0,0,2.5369-.3273c4.8834-5.4513,9.6969-10.9509,14.4952-16.4772l28.869-33.2491,31.756-36.5741c5.13-5.9085,10.2354-11.84,15.3909-17.7261a41.4633,41.4633,0,0,1,31.1588-14.2c6.7174-.0127,13.4349,0,20.1523,0H510.15c2.6941,0,2.6985-4.1868,0-4.1868H490.79a62.67,62.67,0,0,0-11.3689.7755,44.5255,44.5255,0,0,0-18.1875,7.8312,61.1531,61.1531,0,0,0-9.88,9.5941l-9.363,10.7836L411.195,337.3178l-30.6435,35.2928c-4.8525,5.5887-9.678,11.1992-14.6166,16.7121l-2.6831,2.9951,2.5369-.3274-9.5132-6.42-22.844-15.4152L305.8,351.51l-23.7923-16.0552c-3.8558-2.6019-7.6366-5.4969-11.6467-7.8592-.0579-.0342-.1125-.0759-.1683-.1136a2.1434,2.1434,0,0,0-2.8642.751L251.79,348.7916l-24.7554,32.752-5.6657,7.4958a2.0915,2.0915,0,0,0,.3273,2.5369l14.0716,12.6644,30.2857,27.2572,28.9442,26.05,8.5006,7.65a45.6255,45.6255,0,0,0,11.7149,7.2323c20.641,9.5184,44.1209,8.7667,65.4514,1.9645a132.5885,132.5885,0,0,0,43.6682-23.9027c5.829-4.767,11.8328-9.3356,17.2724-14.546l23.2334-22.2545,30.908-29.6057L515.344,365.314l.994-.952c1.95-1.8675-1.0137-4.8254-2.9606-2.9606Z"/><path class="cls-5" d="M510.15,274.704l72.46,1.6776c11.0425-.7787,17.1335,3.3807,23.0161,19.2523,0,0,26.8558,133.1224,35.64,186.5668-17.9012-16.7589-167.9274-4.2567-167.9274-4.2567l16.6132-164.7791"/><path d="M510.15,276.7974l16.1789.3746,31.9684.74,22.9058.53c3.0321.07,5.9619-.2331,8.7848.5353a13.2092,13.2092,0,0,1,6.1316,3.6765,29.476,29.476,0,0,1,5.2616,8.1647,30.2116,30.2116,0,0,1,2.5366,6.9127q.6222,3.0921,1.2421,6.1848,2.3994,11.9665,4.7768,23.9374,3.45,17.3641,6.8572,34.7366,3.9186,19.9864,7.7659,39.9869,3.7961,19.7622,7.477,39.5465c2.09,11.2792,4.1456,22.5655,6.0766,33.8731q.5771,3.3784,1.1343,6.76l3.4989-2.0368c-2.5935-2.4038-6.145-3.6467-9.4859-4.5938a98.3871,98.3871,0,0,0-15.1228-2.7564c-13.59-1.6319-27.3469-1.9378-41.0215-1.995-15.438-.0646-30.8772.35-46.3006.9954q-19.3886.8112-38.7528,2.113-6.2721.4171-12.5407.8848c-1.9464.1459-3.9942.1373-5.9219.4606-.0852.0143-.1751.0144-.2614.0216l2.0934,2.0934,1.6515-16.38,3.9663-39.34,4.799-47.6,4.15-41.1586,1.3682-13.57c.2155-2.1379.5485-4.3.65-6.4473.0044-.0944.0191-.1893.0286-.2835a2.1079,2.1079,0,0,0-2.0934-2.0934,2.14,2.14,0,0,0-2.0935,2.0934l-1.6514,16.38-3.9663,39.34-4.799,47.6-4.15,41.1586-1.3682,13.57c-.2155,2.1379-.5485,4.3-.65,6.4472-.0044.0945-.0191.1894-.0286.2836a2.0989,2.0989,0,0,0,2.0934,2.0934c5.0211-.4182,10.0479-.7744,15.0744-1.12q18.2683-1.2566,36.5622-2.1035c15.2032-.6983,30.42-1.18,45.64-1.25,14.1019-.0645,28.2576.1329,42.3077,1.4407a119.7248,119.7248,0,0,1,15.623,2.2621,52.4079,52.4079,0,0,1,6.0189,1.6559c.4257.1485.8466.3081,1.267.4707.1378.0533.804.3418.1486.0556.2065.09.4133.1794.618.2736a17.6082,17.6082,0,0,1,1.9965,1.0653c.2862.18.5554.38.834.57.1638.1119-.398-.3474-.0165-.0059.1236.1107.2512.2163.373.3292a2.1124,2.1124,0,0,0,3.4989-2.0368c-1.751-10.6455-3.6582-21.2652-5.5989-31.8775q-3.58-19.5791-7.3318-39.1261-3.886-20.359-7.8668-40.7-3.5757-18.3043-7.2035-36.5984-2.6586-13.4135-5.3421-26.8221c-.7525-3.7588-1.2729-7.67-2.2827-11.3707a43.0993,43.0993,0,0,0-3.4407-8.0257,28.9657,28.9657,0,0,0-5.7663-8.0433,17.6146,17.6146,0,0,0-7.2394-4.11,29.2269,29.2269,0,0,0-8.6035-.6826c-5.484.1015-11.0155-.2551-16.4976-.382l-32.241-.7464-22.5673-.5225-1.1533-.0267c-2.6952-.0624-2.6943,4.1244,0,4.1868Z"/><path class="cls-3" d="M626.5062,356.6015l90.1807,1.828,14.4395,152.7744,48.92-5.427,4.7958-144.0376c.0656-47.006-15.1135-62.3117-44.2272-68.9785l-21.679-4.6536-85.3769-16.5325a82.2974,82.2974,0,0,0-15.6448-1.5008l-1.1771,11.8627"/><path d="M626.5062,358.6949l8.9986.1824,21.4805.4354,26.1027.5291,22.4662.4554,7.4467.151a32.9959,32.9959,0,0,0,3.5328.0716,1.4259,1.4259,0,0,1,.1532.0031l-2.0934-2.0934,1.439,15.2254,3.4548,36.5525,4.1656,44.073,3.601,38.1c.5848,6.1878,1.1137,12.3839,1.7548,18.5662.0089.0857.0162.1716.0243.2574.0972,1.0283.8847,2.2275,2.0934,2.0934l16.5326-1.8341,26.3461-2.9228,6.041-.67a2.1532,2.1532,0,0,0,2.0934-2.0934l.5642-16.9474,1.3175-39.5691,1.5-45.0518,1.1384-34.191c.3421-10.2746.3041-20.465-1.1535-30.691-1.2282-8.6164-3.49-17.27-7.8615-24.8618a44.1661,44.1661,0,0,0-14.9123-15.4285c-11.3828-7.11-25.0835-9.05-37.9757-11.8177-6.9069-1.4826-13.8453-2.7917-20.7809-4.1347l-42.904-8.308q-13.4221-2.599-26.8442-5.1981a87.6283,87.6283,0,0,0-16.3135-1.5973,2.1474,2.1474,0,0,0-2.0935,2.0934l-1.177,11.8627a2.108,2.108,0,0,0,2.0934,2.0934,2.14,2.14,0,0,0,2.0934-2.0934l1.1771-11.8627-2.0934,2.0934c10.9892.0319,21.8475,2.7349,32.59,4.8151l42.8553,8.2985c8.3357,1.6141,16.6924,3.1456,25.0117,4.8433,5.342,1.09,10.6642,2.289,15.9949,3.4333a117.8787,117.8787,0,0,1,16.988,4.5519,45.55,45.55,0,0,1,17.08,10.9033c5.0489,5.3214,8.4128,12.1914,10.4969,19.3505,3.511,12.06,4.1016,24.87,3.6856,37.3643l-.9773,29.3519L780.18,438.8747l-1.4036,42.156-.7872,23.6416-.0367,1.1046,2.0934-2.0934-16.5326,1.834L737.1674,508.44l-6.041.67,2.0934,2.0934-1.439-15.2255-3.4548-36.5525-4.1656-44.073-3.601-38.1c-.5848-6.1878-1.1137-12.3839-1.7548-18.5662-.0089-.0857-.0162-.1716-.0243-.2573a2.1459,2.1459,0,0,0-2.0934-2.0935l-8.9987-.1824-21.4805-.4354-26.1026-.5291-22.4663-.4554c-3.6433-.0738-7.3356-.33-10.9795-.2225-.0508.0015-.1023-.0021-.1531-.0031-2.6953-.0547-2.695,4.1322,0,4.1868Z"/><path class="cls-5" d="M607.6655,370.5575h90.0166l7.6758,84.4342,76.0605-2.7912,1.1045-29.1852,2.319-61.276c.0656-47.006-15.1135-62.3117-44.2272-68.9785l-21.679-4.6536-85.3769-16.5325a82.2974,82.2974,0,0,0-15.6448-1.5008H574.8688"/><path d="M607.6655,372.651H693.99a32.3836,32.3836,0,0,0,3.5388,0,1.4036,1.4036,0,0,1,.1535,0l-2.0934-2.0935,2.6024,28.6263,4.122,45.3428.9514,10.4651a2.1315,2.1315,0,0,0,2.0934,2.0934l25.8658-.9492,40.8629-1.5,9.3318-.3425a2.1385,2.1385,0,0,0,2.0934-2.0934l1.105-29.1973,1.14-30.1264c.3915-10.346.95-20.7007,1.1751-31.0519a125.9127,125.9127,0,0,0-2.7267-29.7212c-1.6946-7.6437-4.4873-15.2388-9.1333-21.6037-8.212-11.25-21.13-17.0165-34.4322-19.8719-7.9877-1.7146-15.9584-3.5347-23.9793-5.0879l-33.7421-6.5338-39.3514-7.62q-4.5771-.8862-9.1541-1.7726a99.1581,99.1581,0,0,0-18.8834-1.6332H574.8688c-2.6941,0-2.6985,4.1868,0,4.1868h33.0481c4.596,0,9.22-.1247,13.8127.0885a102.8165,102.8165,0,0,1,14.8082,2.0222l34.5,6.68,38.6811,7.49c7.1661,1.3876,14.2943,2.8864,21.4322,4.4186,12.0572,2.5882,24.6123,5.13,34.0294,13.0775,12.46,10.5161,16.0983,27.4808,17.1761,43.2513.771,11.28.0135,22.546-.4133,33.8249l-1.42,37.5226-1.0325,27.2817-.1656,4.3751,2.0934-2.0934-25.8658.9492L714.69,452.5558l-9.3319.3425,2.0934,2.0934-2.6024-28.6263-4.122-45.3427-.9514-10.4652a2.14,2.14,0,0,0-2.0934-2.0934H618.73c-3.6247,0-7.2889-.157-10.9112,0-.0509.0022-.1024,0-.1534,0-2.694,0-2.6985,4.1869,0,4.1869Z"/><path class="cls-3" d="M574.6223,269.7637a37.6707,37.6707,0,1,1-75.1547,5.3Z"/><path d="M572.5289,269.7637a35.5719,35.5719,0,0,1-61.1875,27.25,35.6675,35.6675,0,0,1-9.78-21.95l-2.0934,2.0934,25.4551-1.795,40.5-2.856,9.1995-.6487c2.6726-.1885,2.6933-4.3767,0-4.1868l-25.455,1.795-40.5,2.8559-9.1995.6488a2.12,2.12,0,0,0-2.0934,2.0934A39.7482,39.7482,0,0,0,569.3313,295.61a39.7519,39.7519,0,0,0,7.3844-25.8461C576.5394,267.0889,572.3513,267.0692,572.5289,269.7637Z"/><polyline class="cls-3" points="558.063 277.87 554.435 230.495 515.076 248.25 515.573 279.458"/><path d="M560.1563,277.87l-1.2242-15.9872-1.9529-25.5037-.4506-5.8835a2.127,2.127,0,0,0-3.15-1.8076l-13.3118,6.0048-21.1234,9.5286-4.9239,2.2211a2.05,2.05,0,0,0-1.0368,1.8076l.4351,27.3172.062,3.8911c.0429,2.6915,4.23,2.7,4.1868,0l-.4351-27.3172-.062-3.8911-1.0368,1.8076,13.3118-6.0049,21.1235-9.5285,4.9238-2.2211-3.15-1.8076,1.2242,15.9871,1.9529,25.5037.4506,5.8836c.2044,2.67,4.3929,2.6916,4.1868,0Z"/><path class="cls-3" d="M555.7033,246.8511c22.1623-19.21,14.0447-36.8825,14.5766-50.0621.3089-7.6529-10.6527-23.6154-10.6527-23.6154l-63.2082-14.04-13.8628,21.1517s-26.5121,88.048,47.2867,71.25"/><path d="M557.1836,248.3313c6.6533-5.8093,12.2626-12.9778,14.7068-21.58,1.7895-6.2981,1.6731-12.8223,1.0975-19.2813-.2454-2.7542-.5532-5.5085-.6255-8.2746-.0317-1.2131.08-2.437-.0274-3.6459a20.4174,20.4174,0,0,0-.91-4.354c-1.863-5.8849-5.0673-11.3987-8.36-16.5872-.6849-1.0792-1.5821-3.04-2.8863-3.4544-.488-.155-1.02-.2265-1.5189-.3373l-9.4238-2.0933-31.0821-6.9039c-6.9452-1.5427-13.8756-3.2084-20.8467-4.6305-.1109-.0226-.2212-.0492-.3318-.0737a2.172,2.172,0,0,0-2.3641.962L486.7251,170.11l-4.82,7.3537a10.9182,10.9182,0,0,0-1.3952,2.3577,89.2557,89.2557,0,0,0-3.1225,14.3876c-1.4631,9.197-2.1551,18.6447-.9673,27.914,1.2238,9.55,4.5372,19.3657,12.09,25.7864,9.8325,8.3586,23.401,8.792,35.5736,6.8688,2.1188-.3348,4.2231-.7517,6.3152-1.2245,2.6271-.5937,1.5152-4.6313-1.113-4.0373-7.1346,1.6125-14.5185,2.5652-21.8293,1.7837a30.8007,30.8007,0,0,1-14.17-4.9678q-.3556-.2433-.7036-.4979c-.0923-.0675-.1837-.1361-.2754-.2042-.46-.3418.3294.2669-.1168-.09-.44-.352-.8724-.7136-1.2916-1.0908a27.41,27.41,0,0,1-2.39-2.4394q-.2437-.2817-.48-.57c-.0887-.1081-.5863-.7442-.2883-.354q-.5514-.7221-1.0581-1.4769a32.0154,32.0154,0,0,1-1.6985-2.8416q-.39-.7354-.745-1.4891-.178-.3781-.3475-.76c-.0452-.102-.09-.2045-.1343-.3068-.1692-.3864.1235.3115-.0819-.1959q-.65-1.607-1.1743-3.26a50.8816,50.8816,0,0,1-1.5954-6.6912c-.0979-.5722-.1853-1.1459-.2687-1.72-.0891-.6138.01.1346-.0635-.4817-.0416-.3472-.0839-.6942-.1218-1.0418q-.1895-1.74-.2924-3.4885c-.1423-2.3733-.1746-4.7528-.12-7.13.0521-2.2485.1828-4.4949.3791-6.7353q.1479-1.6884.3445-3.3721.0816-.7.1711-1.4c.0233-.1826.1208-.9119.0457-.3594q.0613-.4509.1253-.9014a122.4175,122.4175,0,0,1,3.3149-16.0612,2.2881,2.2881,0,0,0,.134-.4659c.0056-.1465-.4346.7121-.0192.1711,1.27-1.6544,2.32-3.54,3.4625-5.2831l9.5714-14.6038.6568-1.0022-2.3641.9621,21.41,4.7556,33.9794,7.5475,7.8185,1.7367-1.251-.962c1.8358,2.6773,3.52,5.4724,5.0958,8.309a64.8669,64.8669,0,0,1,3.5249,7.1588,32.1668,32.1668,0,0,1,1.277,3.7368,10.6692,10.6692,0,0,1,.4731,2.8521c.0409,2.1779.0169,4.3278.1912,6.5048.1917,2.3943.4512,4.7828.6239,7.1787a45.0886,45.0886,0,0,1-1.1525,15.6678c-2.2525,7.9278-7.5106,14.3894-13.63,19.7326-2.0334,1.7755.9379,4.7266,2.96,2.96Z"/><path d="M508.2924,199.108a9.3425,9.3425,0,0,1,1.14-.6535c.1916-.0963.3863-.1853.5807-.2757.2816-.1308.099-.04-.0762.0285.1322-.0519.2633-.1065.3961-.1571a15.4757,15.4757,0,0,1,1.7762-.5571q.4868-.121.9806-.21c.0405-.0072.6584-.1028.2051-.0419.1646-.0222.33-.0386.4955-.054a14.2863,14.2863,0,0,1,2.449-.0165,5.3777,5.3777,0,0,1,.9363.1262q.6636.1255,1.3134.313a13.5081,13.5081,0,0,1,2.7483,1.1549,2.0938,2.0938,0,1,0,2.1132-3.6152,17.0371,17.0371,0,0,0-12.0069-1.7755,14.9533,14.9533,0,0,0-5.1645,2.1192,2.1483,2.1483,0,0,0-.751,2.8642,2.1119,2.1119,0,0,0,2.8642.751Z"/><path d="M481.5016,199.112c.4286-.2085-.2109.0667.0739-.034.5389-.1906,1.0729-.3811,1.625-.532a18.3713,18.3713,0,0,1,5.04-.6324,7.0076,7.0076,0,0,1,6.77,4.5868c.9638,2.7708-.0917,6.0019-1.329,8.5238a25.3189,25.3189,0,0,1-3.1249,4.8684c-.7073.8641-1.5418,1.5664-1.6971,2.7168a6.0573,6.0573,0,0,0,.0682,2.2787c.9564,3.9238,5.6212,3.7011,8.74,3.2659a2.1064,2.1064,0,0,0,1.4621-2.5751,2.149,2.149,0,0,0-2.5751-1.4621,8.0483,8.0483,0,0,1-3.4537-.0985c-.0871-.0366-.0716-.1283-.0573.0362a2.4353,2.4353,0,0,1-.0689-.8671l-.5384.9237c3.8376-4.3117,7.779-10.49,7.06-16.5716a11.1326,11.1326,0,0,0-4.4537-7.67,12.6312,12.6312,0,0,0-8.9124-2.0578,19.4425,19.4425,0,0,0-6.7408,1.6847c-2.4226,1.1783-.3024,4.79,2.1132,3.6152Z"/><circle cx="484.4314" cy="209.2906" r="2.7084"/><path d="M482.77,209.3524c-.0007-.0876-.033-.2979.0171-.3741l-.0166.1325q.0122-.072.0284-.1433c.0107-.0471.0227-.094.0359-.14.02-.07.0448-.1366.0673-.2051.0488-.1483-.0319.029-.0226.0524-.0234-.0591.1762-.313.21-.37.1156-.197-.1181.114-.0161.0138.0413-.0406.076-.09.1156-.1329.0457-.0491.1971-.2432.2563-.2418-.0372-.0009-.1687.1155-.0435.0349.06-.0384.1172-.0792.1784-.1155q.0611-.0361.1242-.0693t.1281-.0628q-.1945.0789-.0845.0365c.1163-.0248.2294-.0783.3466-.1055.0381-.0088.1465-.0506.18-.0356-.1169-.0518-.1794.0187-.0187.0084a2.7519,2.7519,0,0,1,.3766.0017c.1431.01.1172.0771-.0216-.0064a1.1289,1.1289,0,0,0,.2139.0454.96.96,0,0,1,.3416.1121l-.1191-.0485q.0644.03.1272.0635t.1233.07a1.2677,1.2677,0,0,0,.1483.0962c.1272.0526-.1817-.1644-.0155-.0139.1056.0956.2027.1934.3017.2958.1363.141-.0232-.043-.0307-.047.0423.0227.0946.1348.12.1752.036.0573.186.2554.1691.3128,0-.0008-.0865-.2476-.0237-.0509.022.0691.0467.1368.066.2068.0129.0469.0245.0943.0349.1418s.02.0962.0274.1447q-.0263-.2152-.0143-.0936c.0035.1135.014.2257.01.3395a.6592.6592,0,0,1-.0163.2229c.0583-.0956.0346-.18.0033-.0605-.0305.1171-.0547.2344-.0941.3493l-.0242.0675q-.0627.16.0226-.0524c.0121.027-.0858.1683-.0977.1894-.0291.0513-.0632.1-.0925.1508-.0459.08-.0569.1883.019-.0115a1.0615,1.0615,0,0,1-.2367.2609,1.4173,1.4173,0,0,0-.1306.1183c-.0858.1086.2062-.1337.0166-.0121-.12.0772-.2414.1471-.3662.217-.1106.0619-.0068.0508.0536-.0187a.632.632,0,0,1-.2043.0714c-.1055.0321-.2129.0512-.32.0762-.15.035.2651-.01.02-.0045-.063.0014-.1258.0073-.1889.0079s-.1254-.0007-.1881-.0045q-.0743-.0043-.1481-.0129l.1325.0166c-.0456.04-.3529-.0839-.4213-.1074-.04-.0139-.2-.1159-.0747-.0259.1353.0972-.0981-.0554-.13-.0734q-.0615-.035-.1213-.073t-.1171-.0792q.1758.1407.0445.0341c-.0871-.0793-.1748-.1564-.2547-.2433l-.047-.0525q-.108-.13.0307.047a.7464.7464,0,0,1-.12-.1752q-.0567-.09-.1063-.1847l-.0322-.0636q-.0719-.1552.0187.0536c-.0714-.0621-.1079-.33-.1266-.4158a.7954.7954,0,0,0-.0274-.1447q.0288.2337.0109.0563-.0059-.0754-.0076-.151a1.0467,1.0467,0,0,0-2.0934,0A3.8262,3.8262,0,0,0,483.24,212.85a3.7479,3.7479,0,0,0,4.0735-1.1624,3.7519,3.7519,0,1,0-6.6366-2.3354,1.0467,1.0467,0,1,0,2.0934,0Z"/><circle cx="509.9317" cy="207.6797" r="2.7084"/><path d="M508.2708,207.7416c-.0008-.0876-.0331-.298.017-.3742l-.0166.1325q.0123-.072.0284-.1432c.0107-.0471.0228-.094.0359-.1405.02-.0695.0448-.1366.0673-.2051.0488-.1482-.0319.029-.0226.0525-.0234-.0592.1762-.3131.21-.37.1156-.197-.118.1139-.0161.0138.0413-.0406.0761-.09.1157-.133.0457-.0491.197-.2432.2562-.2418-.0372-.0008-.1686.1156-.0435.035.06-.0385.1173-.0793.1784-.1155q.0612-.0363.1242-.0693t.1281-.0629q-.1946.079-.0845.0366c.1163-.0248.23-.0783.3466-.1055.0382-.0089.1465-.0507.18-.0357-.1168-.0517-.1793.0188-.0187.0085a2.7359,2.7359,0,0,1,.3766.0017c.1432.0105.1172.077-.0216-.0065a1.1289,1.1289,0,0,0,.2139.0455.9593.9593,0,0,1,.3417.1121l-.1192-.0486q.0645.03.1272.0636t.1234.07a1.28,1.28,0,0,0,.1482.0963c.1272.0525-.1817-.1645-.0155-.014.1056.0957.2028.1935.3018.2959.1362.141-.0233-.043-.0308-.047.0423.0226.0946.1347.12.1751.036.0573.186.2555.1691.3129,0-.0009-.0865-.2476-.0237-.0509.022.0691.0467.1367.066.2068.0129.0469.0246.0943.035.1418s.02.0962.0274.1447q-.0264-.2153-.0144-.0936c.0036.1134.014.2256.01.3394a.6615.6615,0,0,1-.0164.2229c.0583-.0955.0346-.18.0034-.06-.0306.1171-.0548.2344-.0942.3493l-.0242.0676q-.0627.16.0226-.0525c.0121.0271-.0858.1684-.0977.1894-.0291.0513-.0632.1-.0924.1509-.046.08-.0569.1882.0189-.0116a1.0613,1.0613,0,0,1-.2366.2609,1.4185,1.4185,0,0,0-.1307.1183c-.0857.1086.2062-.1337.0166-.0121-.12.0772-.2414.1472-.3662.2171-.1106.0619-.0068.0507.0537-.0187a.6348.6348,0,0,1-.2044.0713c-.1054.0322-.2128.0512-.32.0762-.15.0351.2651-.01.02-.0045-.063.0014-.1258.0074-.1889.0079s-.1254-.0007-.1881-.0044q-.0742-.0045-.1481-.0129l.1325.0166c-.0455.04-.3529-.084-.4212-.1074-.04-.0139-.2-.116-.0747-.0259.1353.0971-.0981-.0555-.13-.0735q-.0616-.0348-.1214-.073t-.1171-.0791q.1758.1405.0445.0341c-.0871-.0793-.1748-.1565-.2547-.2434l-.047-.0525q-.108-.13.0307.047a.7467.7467,0,0,1-.12-.1751q-.0567-.09-.1062-.1847l-.0323-.0636q-.0718-.1554.0187.0536c-.0713-.0621-.1079-.33-.1265-.4159a.8057.8057,0,0,0-.0274-.1447q.0288.2338.0109.0563c-.0039-.05-.0065-.1006-.0076-.1509a1.0467,1.0467,0,1,0-2.0934,0,3.8262,3.8262,0,0,0,2.563,3.4978,3.7479,3.7479,0,0,0,4.0735-1.1624,3.7519,3.7519,0,1,0-6.6365-2.3354,1.0467,1.0467,0,1,0,2.0934,0Z"/><path d="M553.7326,196.0142a6.5805,6.5805,0,0,0-3.5893.0138,9.9394,9.9394,0,0,0-5.929,5.2884,26.1342,26.1342,0,0,0-2.37,7.323,2.0939,2.0939,0,1,0,4.0372,1.113,32.7041,32.7041,0,0,1,.8222-3.4563q.213-.7057.469-1.3977c.0752-.2014.1618-.3989.2352-.6008.1048-.288-.2159.4754-.023.0584.0554-.12.1081-.241.1644-.3606a13.3232,13.3232,0,0,1,1.0972-1.9282c.0394-.0567.0807-.1123.12-.1693.1266-.1845.3139-.2439-.0861.1029a2.6828,2.6828,0,0,0,.2431-.2975,8.42,8.42,0,0,1,.6123-.6478q.15-.1417.3068-.2754c.04-.0342.0827-.0667.1224-.1016.2483-.2183-.4122.2935-.21.1609s.394-.2786.6042-.4012c.1823-.1063.3723-.1919.56-.2879.2523-.1293-.6177.2251-.1855.0818.1025-.034.203-.073.3063-.1049q.2367-.073.48-.124c.0838-.0175.17-.0278.2531-.0464.2447-.0545-.69.0673-.2672.0376a5.9994,5.9994,0,0,1,.7943-.0159c.0688.0042.1374.0133.2062.0172.3453.0195-.5012-.0869-.3746-.0517.085.0236.1779.0288.2644.0483a2.137,2.137,0,0,1,.2242.0592,2.1081,2.1081,0,0,0,2.5752-1.4622,2.1437,2.1437,0,0,0-1.4621-2.5751Z"/><path class="cls-3" d="M216.9547,357.261l-27.3514-16.4982a43.9688,43.9688,0,0,1-10.2055-8.4983h0c-6.7232-7.5916-14.1142-13.2783-24.124-14.9021l-3.8948-7.8281s32.9553-40.6561,37.81-39.7749l13.579-1.1553a9.0211,9.0211,0,0,1,1.8636-9.5937h0a9.021,9.021,0,0,1,13.9052,1.0739l6.2906,8.9975a47.2357,47.2357,0,0,1,7.79,18.7762l1.4353,8.0525a32.9168,32.9168,0,0,0,14.4575,21.8165l2.1227,1.3808"/><path d="M218.0113,355.4534,199.8183,344.48l-8.62-5.2a44.5775,44.5775,0,0,1-5.2081-3.586c-3.0779-2.5125-5.5479-5.5675-8.3541-8.3546-6.0321-5.9911-13.3255-10.57-21.8055-11.9955l1.2511.9621-3.8948-7.828-.3273,2.5368q8.0528-9.9327,16.4958-19.5476c4.0762-4.6491,8.2094-9.2667,12.5935-13.63,1.6014-1.5937,3.2426-3.1447,4.9864-4.5823.073-.06.1481-.1179.2216-.1773.3791-.3065-.3742.2762.0054-.0054.1363-.1011.2714-.2037.4093-.3026.3029-.2172.6113-.4285.9323-.6182.1756-.1038.9115-.4381.5421-.3015-.4146.1534-.0061.0032.0912-.0159.5239-.1028-.505.0073-.173.0064.5234-.0014-1.4918-.0264.2313.0117.067.0015.1345-.0155.2015-.0171.4326-.01.87-.0741,1.3014-.1107l4.66-.3966,7.41-.63c1.23-.1047,2.5358-1.2715,2.0186-2.65a7.0821,7.0821,0,0,1,2.9787-8.8475,6.975,6.975,0,0,1,7.98.8659,23.9692,23.9692,0,0,1,3.2126,4.262l3.7754,5.4a47.7474,47.7474,0,0,1,7.9534,19.1774c.9074,5.0772,1.562,10.2074,3.5983,14.9893a34.959,34.959,0,0,0,7.2932,10.8691,46.928,46.928,0,0,0,7.9986,6.1516c2.2653,1.4735,4.366-2.15,2.1132-3.6152a42.04,42.04,0,0,1-7.0183-5.3625,30.8227,30.8227,0,0,1-6.7045-10.0058c-1.8982-4.6094-2.4356-9.6971-3.32-14.57a51.85,51.85,0,0,0-8.8389-20.52l-4.315-6.1718c-1.4094-2.0158-2.7928-3.985-5.0322-5.1814A11.1163,11.1163,0,0,0,200.75,269.1606l2.0187-2.65-6.2931.5354-4.68.3982-1.5533.1322a3.005,3.005,0,0,0-.9585.0816c-.3345.2166,1.4275.0713-.1409.0008-.0787-.0035-.1538-.0035-.2328-.0012a3.8357,3.8357,0,0,0-1.1547.2309,8.5,8.5,0,0,0-2.0028,1.0594,40.64,40.64,0,0,0-4.9093,4.1249c-8.8587,8.3943-16.7349,17.9091-24.559,27.2542q-3.2172,3.8426-6.3848,7.727a2.2071,2.2071,0,0,0-.3273,2.5368l2.8522,5.7326c.3408.685.6336,1.4371,1.0385,2.0872.6663,1.07,1.8985,1.0623,3.0058,1.3015a33.3038,33.3038,0,0,1,3.3463.9071,34.4152,34.4152,0,0,1,10.8907,6.0893c3.4728,2.829,6.25,6.2622,9.44,9.3715,3.649,3.5567,7.882,6.1766,12.2051,8.7843l13.6738,8.2479,9.8745,5.9563c2.3131,1.3952,4.42-2.2237,2.1132-3.6152Z"/><path class="cls-3" d="M175.9424,306.27a142.4079,142.4079,0,0,0-43.3536-5.33c-14.8588,1.9812-13.8328,12.8347.773,14.3878s20.6225-.8076,37.0163,8.888"/><path d="M176.4989,304.2515a106.8623,106.8623,0,0,0-13.103-3.0538c-4.7807-.8651-9.6067-1.5119-14.4474-1.9264q-4.0638-.3478-8.1431-.4612a54.1061,54.1061,0,0,0-8.7731.1117c-3.6912.5144-7.9376,1.6751-10.447,4.6458a6.6185,6.6185,0,0,0-.7054,7.9628c1.9295,3.0342,5.6024,4.5934,8.98,5.3425,4.25.9425,8.733,1.0008,13.067,1.2253a59.797,59.797,0,0,1,11.7194,1.4453,56.8084,56.8084,0,0,1,14.6753,6.48c2.3275,1.3692,4.4366-2.2484,2.1132-3.6152a67.0989,67.0989,0,0,0-12.9645-6.1127,47.1669,47.1669,0,0,0-10.49-2.054c-3.5411-.3219-7.1-.3981-10.6459-.6549-3.7662-.2728-7.8542-.4986-11.13-2.589a5.4241,5.4241,0,0,1-1.2088-.976,3.8339,3.8339,0,0,1-.7907-1.0963c.0577.13-.1388-.4584-.1731-.5916-.0273-.1061-.0415-.3963-.0046.046-.01-.1139-.0122-.2268-.0171-.3411-.0049-.1126.0055-.2293.0116-.3411-.0234.43-.03.1621-.0033.0464.0348-.15.3083-.8944.1278-.5069a5.1019,5.1019,0,0,1,2.2889-2.2767,15.9038,15.9038,0,0,1,4.9829-1.7177,37.8572,37.8572,0,0,1,7.78-.28q4.0277.0607,8.047.36,6.7284.4949,13.387,1.6232a110.5177,110.5177,0,0,1,14.7548,3.3431c2.5756.8123,3.6778-3.2284,1.113-4.0372Z"/><path class="cls-3" d="M176.5467,290.232s-22.9229-9.46-46.3856-13.0472c-14.9665-.8438-15.9965,10.0094-1.9421,14.277s26.8386,9.2386,50.37,18.185"/><path d="M177.1032,288.2134c-5.5657-2.2936-11.3008-4.226-17.0425-6.0224-5.6122-1.756-11.2853-3.3243-17.0165-4.6431-5.8515-1.3465-12.0934-3.1056-18.1228-2.2263-3.4151.4981-7.2963,2.1335-8.4433,5.6969-1.0644,3.3064.9455,6.5678,3.4568,8.5851,3.6036,2.8946,8.0994,3.9561,12.4124,5.34,3.8607,1.2386,7.697,2.5518,11.5167,3.9115,11.459,4.079,22.8,8.4882,34.1688,12.8106a2.11,2.11,0,0,0,2.5752-1.4621,2.14,2.14,0,0,0-1.4621-2.5751c-9.8789-3.7561-19.7405-7.5624-29.6686-11.1871-3.7605-1.3729-7.5328-2.7138-11.3267-3.9919-3.7552-1.2651-7.6658-2.2412-11.3524-3.687a14.5826,14.5826,0,0,1-4.6939-2.8007,5.7787,5.7787,0,0,1-1.2-1.4316c-.0635-.1057-.4154-.8433-.2753-.4863-.0676-.1722-.2829-1.1449-.2313-.6866a4.5856,4.5856,0,0,1-.0123-.78c.0192-.3293-.1286.4841.0132-.0345.03-.11.0595-.22.09-.33.1419-.519-.1315.2351.0143-.0612.0653-.1328.14-.2583.2122-.3873a2.818,2.818,0,0,1,.202-.3c-.2564.342.0928-.087.1607-.1494a8.03,8.03,0,0,1,3.749-1.7414,18.1923,18.1923,0,0,1,6.86-.0359c2.9831.5,5.9512,1.0873,8.9036,1.7444,5.5571,1.2367,11.0595,2.7163,16.5052,4.3747,6.3707,1.94,12.7335,4.0552,18.895,6.5942a2.1064,2.1064,0,0,0,2.5752-1.4621,2.1462,2.1462,0,0,0-1.4622-2.5751Z"/><path class="cls-3" d="M188.1241,279.4955s-26.3533-19.0789-48.3844-27.9106c-14.3821-4.2268-17.8543,6.1074-5.1394,13.4607s24.0328,15.1026,44.912,29.1681"/><path d="M189.1806,277.6879c-4.5464-3.2894-9.2427-6.3854-13.9721-9.403A234.8247,234.8247,0,0,0,145.4,251.7386c-4.7331-2.1272-10.141-4.3093-15.4015-2.7495-3.749,1.1116-6.0392,4.43-5.1,8.3352,1.14,4.7377,5.7175,7.8189,9.646,10.11q5.7466,3.352,11.3551,6.933c11,6.989,21.7486,14.3728,32.5558,21.6536,2.2407,1.51,4.3384-2.116,2.1131-3.6152-9.479-6.386-18.9208-12.8332-28.51-19.0544-3.6128-2.3439-7.252-4.6476-10.9361-6.878-3.705-2.243-8.1925-4.1462-10.8785-7.67a10.39,10.39,0,0,1-1.0522-1.7693,3.4162,3.4162,0,0,1-.3316-1.9178c-.0295.4539.0881-.3489.1371-.504.1675-.53-.1272.2262.032-.07.0705-.131.1442-.2579.2249-.3831.3-.4661-.2772.2548.1241-.1426.0888-.0879.175-.1753.267-.26.4315-.3989-.3213.1821.1917-.1444.1737-.1106.3494-.2129.532-.3083a8.5793,8.5793,0,0,1,1.9283-.5394,13.453,13.453,0,0,1,3.3577.052,25.4547,25.4547,0,0,1,7.1155,2.3058,227.3658,227.3658,0,0,1,28.6509,15.716c5.304,3.3424,10.5646,6.788,15.6454,10.464a2.11,2.11,0,0,0,2.8642-.751,2.14,2.14,0,0,0-.7511-2.8642Z"/><path class="cls-3" d="M203.78,271.7058s-27.2457-28.2319-47.4788-40.6411c-13.4669-6.5841-18.6268,3.0194-7.3288,12.4053s21.1522,18.9273,39.37,36.3024"/><path d="M205.26,270.2256a335.8359,335.8359,0,0,0-36.6269-33.0882c-2.2274-1.7121-4.49-3.3789-6.8068-4.9688a34.4829,34.4829,0,0,0-7.3014-4.1364c-4.08-1.5393-10.4067-2.3438-12.9828,2.19-2.5724,4.527.9342,9.8794,4.092,13.04,1.81,1.8118,3.8853,3.3739,5.827,5.042q2.66,2.2851,5.2723,4.6243c10.2749,9.187,20.1563,18.813,30.1285,28.3243,1.95,1.86,4.915-1.0963,2.96-2.96-8.7261-8.3229-17.3953-16.7128-26.2929-24.8534-3.4225-3.1313-6.8884-6.2154-10.4235-9.2193-3.0693-2.608-8.1975-6.2265-8.2349-10.4262a6.2275,6.2275,0,0,1,.0149-.6408c-.0406.43.0473-.2033.0558-.2442.1007-.4869-.0179-.134.2155-.573.025-.0471.38-.5315.1062-.1972a3.7679,3.7679,0,0,1,.4013-.4116c.45-.4038-.1816.1085.1259-.09a4.326,4.326,0,0,1,.6326-.347,6.4858,6.4858,0,0,1,2.0029-.3054,12.3083,12.3083,0,0,1,3.5355.5929,26.3282,26.3282,0,0,1,7.2168,3.8416c2.1218,1.44,4.1979,2.9464,6.2419,4.4944a296.9236,296.9236,0,0,1,23.9377,20.5952c4.397,4.1353,8.7481,8.3344,12.9414,12.6776,1.875,1.942,4.8335-1.0206,2.96-2.9605Z"/><path class="cls-3" d="M250.6332,319.1078l-2.1227-1.3808a32.9168,32.9168,0,0,1-14.4575-21.8165l-1.4353-8.0525a47.2357,47.2357,0,0,0-7.79-18.7762l-6.2906-8.9975a9.021,9.021,0,0,0-13.9052-1.0739h0a9.0211,9.0211,0,0,0-1.8636,9.5937l5.499,13.7453s-11.0178,17.315-12.0087,36.3718"/><path d="M251.69,317.3a38.4909,38.4909,0,0,1-9.2937-7.8843,30.972,30.972,0,0,1-6.2548-13.6841c-.491-2.5744-.9223-5.1614-1.3822-7.7415a51.3729,51.3729,0,0,0-4.5606-13.97,72.386,72.386,0,0,0-5.7228-9.084c-1.49-2.1313-2.9168-4.3272-4.4943-6.3953a11.1,11.1,0,0,0-19.7184,8.9449,17.9928,17.9928,0,0,0,1.1314,3.2864l1.8732,4.6823,2.9809,7.4512.2111-1.6131a69.9438,69.9438,0,0,0-3.856,7.1365,91.962,91.962,0,0,0-6.5036,17.68,68.1753,68.1753,0,0,0-1.9349,12.6123c-.1506,2.6921,4.0367,2.6836,4.1869,0,.658-11.7566,4.8888-23.4052,10.6947-33.5833a10.8253,10.8253,0,0,0,1.2391-2.232c.3184-1.1585-.61-2.6375-1.0209-3.665l-4.226-10.5632a7.8717,7.8717,0,0,1-.3857-5.8636,6.9345,6.9345,0,0,1,12.0806-1.6671c.8261,1.0944,1.5766,2.255,2.3621,3.3786a100.5886,100.5886,0,0,1,7.0918,10.8322c2.6593,5.0937,3.9588,10.5181,4.9582,16.1249.848,4.7571,1.6613,9.3722,3.7539,13.7922a35.4324,35.4324,0,0,0,12.75,14.3872q.9623.6282,1.9268,1.2533c2.2653,1.4735,4.366-2.15,2.1132-3.6152Z"/><circle class="cls-2" cx="60.4904" cy="62.7289" r="10.3695"/><circle class="cls-5" cx="100.7116" cy="62.7289" r="10.3695"/><circle class="cls-6" cx="140.9328" cy="62.7289" r="10.3695"/><path d="M870.6234,888.6969c-3.5272-11.023-6.6558-22.499-7.3258-34.1081a41.9535,41.9535,0,0,1,.4237-10.1592,13.2578,13.2578,0,0,1,2.26-5.7544,3.7591,3.7591,0,0,1,3.356-1.5914,6.99,6.99,0,0,1,1.8956.5364,10.8692,10.8692,0,0,1,2.356,1.5727c4.6134,3.9823,7.41,10.0886,9.4915,15.6791,4.05,10.8765,5.782,22.5571,6.3652,34.1032a1.052,1.052,0,0,0,2.056.2782c2.5475-6.78,5.5039-13.4293,8.6453-19.9514a185.4449,185.4449,0,0,1,8.9967-16.6916,69.22,69.22,0,0,1,10.5441-13.8432c2.6939-2.5933,6.4-5.5008,10.3991-5.0037,3.287.4085,4.6174,3.0159,4.7668,6.1747.2218,4.6911-1.2684,9.4634-2.7765,13.8447a142.9727,142.9727,0,0,1-6.8145,16.0372c-3.6156,7.4178-7.6754,14.5717-11.84,21.6887-.0705.12-.1453.2387-.2186.3576-.5845.9478.5419,1.8666,1.4321,1.4321,2.4982-1.22,5.0746-2.2945,7.6662-3.2967a61.8239,61.8239,0,0,1,15.1-4.2062c3.1948-.3608,8.8736-.5007,9.46,3.8064.2722,2-.7914,4.017-1.8331,5.64a33.4466,33.4466,0,0,1-4.9113,5.7715A66.285,66.285,0,0,1,931.45,908.17a1.0518,1.0518,0,0,0,.8065,1.9131,77.7546,77.7546,0,0,1,16.4371-1.7008c3.2786.0319,7.13.1813,9.9924,1.9844,3.436,2.1644,2.2493,7.4441.7981,10.5006a18.5439,18.5439,0,0,1-6.5893,7.5562c-.9617.6055-.3593,2.32.8066,1.9131a7.1173,7.1173,0,0,1,3.9969-.298c3.4958.827,3.44,5.0927,3.0552,7.9458-.0688.51.1155,1.1891.731,1.2876,4.4068.7047,9.6884,2.2594,11.7351,6.6672a7.9345,7.9345,0,0,1,.732,3.2134,8.9517,8.9517,0,0,1-.0508,1.1176c.0168-.1568.0081.0057-.0421.2237-.3023,1.3112,1.7156,1.8709,2.0186.5565a9.7311,9.7311,0,0,0-.85-6.1677c-2.321-4.8792-8.0275-6.8364-12.9862-7.6294l.7311,1.2876c.5142-3.8126.3727-8.8622-3.9466-10.3547a9.0364,9.0364,0,0,0-5.6806.1318l.8065,1.9131a20.9312,20.9312,0,0,0,6.5282-6.8,16.55,16.55,0,0,0,2.4223-7.9128,7.766,7.766,0,0,0-1.4441-5.4977c-2.2544-2.6944-6.3262-3.3114-9.6143-3.5907a61.9461,61.9461,0,0,0-12.6177.453c-2.5178.3039-5.0413.6656-7.5258,1.1816l.8065,1.9131a71.0277,71.0277,0,0,0,8.1032-6.5432c3.5018-3.2575,7.9318-7.63,8.3539-12.69.4158-4.9846-4.2789-7.1247-8.5234-7.2024-5.5065-.1009-11.0883,1.6772-16.2136,3.5157a105.4062,105.4062,0,0,0-10.6474,4.433l1.4321,1.4321c3.8411-6.2282,7.36-12.6809,10.6531-19.2124a170.8469,170.8469,0,0,0,7.5063-16.8051c1.8075-4.8148,3.4851-9.91,3.7631-15.0845.1846-3.4348-.47-7.4937-3.8048-9.2712-3.6766-1.96-8.0036-.5207-11.2088,1.6758-4.5731,3.1338-8.1127,7.687-11.2416,12.1959a146.2845,146.2845,0,0,0-9.9665,17.0326c-2.6483,5.194-5.0982,10.4892-7.3968,15.8467a90.9443,90.9443,0,0,0-3.67,8.97c-.0442.1442-.1091.2845-.1623.4259l2.056.2783c-.5545-10.9786-2.1283-22.0569-5.6711-32.4971-2.1733-6.4045-5.1035-13.2726-10.0427-18.071-2.6678-2.5917-6.8084-4.8537-10.24-2.239-4.18,3.185-4.4793,10.0917-4.4864,14.8288-.0166,11.069,2.7021,22.1862,5.8067,32.7362q.8154,2.7706,1.7,5.52c.409,1.2782,2.4309.7318,2.0186-.5565Z"/><path d="M902.1721,933.7a40.9087,40.9087,0,0,0-2.3667-5.8693c-1.4556-2.9858-3.3558-6.18-6.2259-8.0038a6.4062,6.4062,0,0,0-8.6361,1.3615c-2.0385,2.8062-1.3815,6.8428-.5583,9.9591a37.743,37.743,0,0,0,2.8833,7.5346l1.182-1.5376c-4.0386-1.6452-9.3985-2.3253-13.3481-.1578-1.7009.9334-2.8057,2.5514-2.1334,4.5146a10.3776,10.3776,0,0,0,3.6278,4.3543,28.4468,28.4468,0,0,0,3.624,2.4811v-1.8076c-3.6259,2.3592-5.8643,6.7923-3.1593,10.7111.76,1.1015,2.5756.0559,1.8076-1.0566a4.5352,4.5352,0,0,1,.1413-5.6955,9.1662,9.1662,0,0,1,2.2669-2.1514,1.0583,1.0583,0,0,0,0-1.8076,25.6848,25.6848,0,0,1-3.2875-2.2229c-1.06-.8427-3.4-2.5871-3.1329-4.1912.1837-1.1056,1.9155-1.6763,2.7893-1.9341a12.5756,12.5756,0,0,1,4.7-.3523,19.5957,19.5957,0,0,1,5.5482,1.3345c.9153.3729,1.5546-.8117,1.1821-1.5376a35.7429,35.7429,0,0,1-2.0853-5.0718c-.91-2.7464-1.9024-6.1737-.9209-9.031a4.1979,4.1979,0,0,1,6.2762-1.9977c2.5576,1.5337,4.2081,4.4637,5.5,7.0547a37.4264,37.4264,0,0,1,2.3075,5.6768c.3944,1.2841,2.4157.7364,2.0186-.5565Z"/><path class="cls-3" d="M700.8913,522.4482c-1.99,25.0962-2.68,31.5078-2.8362,46.1951s-10.8627,16.7414-14.2489,2.1386c-3.1342-23.5276.5322-55.8549.5322-55.8549h0a15.495,15.495,0,0,1,13.9231-14.4988l16.2163-1.6245a15.4949,15.4949,0,0,0,13.8816-16.8757l-.5746-6.0795,38.98,3.5663-8.3737,43.9616"/><path d="M698.7979,522.4482c-1.1357,14.3134-2.536,28.6276-2.7912,42.9921-.0611,3.4364.1284,7.0775-1.3464,10.2731a5.9759,5.9759,0,0,1-1.9269,2.5294c-.0986.0584-.7192.3673-.3089.2016a4.1917,4.1917,0,0,1-.7542.2172c.156-.031.0067-.0043-.3875-.0069-.1027-.0006-.3968-.0564.0357.0178a3.475,3.475,0,0,1-.4352-.0994,2.8205,2.8205,0,0,1-1.1406-.5892c.185.1334-.3067-.2662-.4148-.37a7.8046,7.8046,0,0,1-.8081-.89,15.0746,15.0746,0,0,1-2.19-4.61,30.0608,30.0608,0,0,1-.9676-6.1176c-.2127-2.2878-.368-4.5808-.4813-6.8756a285.8614,285.8614,0,0,1,1.3932-42.7012,24.0527,24.0527,0,0,1,.6639-4.3244,13.5287,13.5287,0,0,1,6.8494-8.2293,16.9355,16.9355,0,0,1,6.2242-1.5195l7.9613-.7975c2.0776-.2081,4.1558-.4107,6.2329-.6244a18.1436,18.1436,0,0,0,9.3525-3.5411,17.6545,17.6545,0,0,0,6.4893-9.9341c.6975-3.0048.3677-5.9129.0825-8.93l-.2524-2.6709a2.1509,2.1509,0,0,0-2.0934-2.0934,2.1085,2.1085,0,0,0-2.0934,2.0934c.1913,2.024.4029,4.0472.574,6.073a13.434,13.434,0,0,1-11.9626,14.8063c-2.0683.2152-4.1384.4146-6.2075.6219l-8.1624.8177a23.2446,23.2446,0,0,0-7.6564,1.79,17.423,17.423,0,0,0-8.4783,8.6258,22.798,22.798,0,0,0-1.6291,7.0461,287.1442,287.1442,0,0,0-1.5281,42.3285c.0994,2.3053.24,4.609.4345,6.9083a44.3758,44.3758,0,0,0,.8551,7.059c.912,3.5995,2.5366,7.488,5.699,9.6736a6.5409,6.5409,0,0,0,7.53.0442c2.7949-1.9778,4.1127-5.489,4.6235-8.7541.57-3.6434.3892-7.3878.4928-11.0663q.1232-4.3669.3752-8.7287c.4313-7.4989,1.078-14.9851,1.68-22.4715q.3288-4.087.6536-8.1745c.2132-2.6863-3.9747-2.6724-4.1868,0Z"/><path class="cls-3" d="M698.2945,514.927s-3.6665,32.3273-.5322,55.8549c3.3861,14.6028,14.0928,12.5487,14.2489-2.1386s.846-21.0989,2.8362-46.1951"/><path d="M696.2011,514.927c-.6429,5.6837-1.0363,11.404-1.341,17.1142a231.1728,231.1728,0,0,0,.3072,34.33c.48,5.0071,1.349,10.6548,5.239,14.2811,2.8,2.61,6.69,2.9222,9.5888.289,3.542-3.217,4.0642-8.691,4.1194-13.158.0481-3.8906.1478-7.78.3332-11.6671.5362-11.2386,1.6033-22.4537,2.4931-33.6678.2131-2.6863-3.9748-2.6724-4.1868,0-.7875,9.9246-1.6867,19.846-2.2831,29.7847q-.3216,5.3586-.4558,10.7257c-.1008,4.0882.339,8.5335-1.2348,12.3957a5.44,5.44,0,0,1-2.5721,3.1575c.3932-.1927-.3454.0968-.497.1337-.53.1293.4176.0144-.1269.01-.1151-.0009-.23,0-.3454-.0013-.5495-.0034.4035.1181-.1384-.016-.1766-.0437-.3492-.0894-.5223-.146-.0755-.0247-.3539-.1574-.0207-.0023a5.8164,5.8164,0,0,1-.6883-.39,9.9607,9.9607,0,0,1-2.8872-4.0373,24.06,24.06,0,0,1-1.5916-7.3184,224.64,224.64,0,0,1-.4439-32.7131c.3034-6.3741.724-12.7618,1.4414-19.1046a2.106,2.106,0,0,0-2.0934-2.0934,2.1426,2.1426,0,0,0-2.0934,2.0934Z"/><path class="cls-3" d="M713.6462,514.927s-3.6665,32.3273-.5322,55.8549c3.3861,14.6028,14.0927,12.5487,14.2489-2.1386s.846-21.0989,2.8362-46.1951"/><path d="M711.5528,514.927c-.6429,5.6837-1.0363,11.404-1.341,17.1142a231.1728,231.1728,0,0,0,.3071,34.33c.48,5.0071,1.349,10.6548,5.239,14.2811,2.8,2.61,6.69,2.9222,9.5889.289,3.542-3.217,4.0641-8.691,4.1194-13.158.0481-3.8906.1477-7.78.3332-11.6671.5362-11.2386,1.6032-22.4537,2.4931-33.6678.2131-2.6863-3.9748-2.6724-4.1869,0-.7875,9.9246-1.6866,19.846-2.2831,29.7847q-.3216,5.3586-.4557,10.7257c-.1008,4.0882.3389,8.5335-1.2348,12.3957a5.44,5.44,0,0,1-2.5721,3.1575c.3932-.1927-.3454.0968-.497.1337-.53.1293.4175.0144-.1269.01-.1151-.0009-.23,0-.3454-.0013-.55-.0034.4035.1181-.1384-.016-.1767-.0437-.3492-.0894-.5223-.146-.0755-.0247-.3539-.1574-.0207-.0023a5.8164,5.8164,0,0,1-.6883-.39,9.9609,9.9609,0,0,1-2.8873-4.0373,24.0633,24.0633,0,0,1-1.5915-7.3184,224.64,224.64,0,0,1-.444-32.7131c.3035-6.3741.724-12.7618,1.4415-19.1046a2.1061,2.1061,0,0,0-2.0934-2.0934,2.1426,2.1426,0,0,0-2.0934,2.0934Z"/><path class="cls-3" d="M730.3934,514.927s-3.6664,32.3273-.5322,55.8549c3.3862,14.6028,14.0928,12.5487,14.2489-2.1386l.709-4.0159c1.49-8.4417-1.082-16.8279,16.3227-16.9465h0a24.0023,24.0023,0,0,0,18.9465-23.3824l1.33-58.84"/><path d="M728.3,514.927c-.6066,5.3629-.9857,10.7589-1.2879,16.1461a244.3017,244.3017,0,0,0,.0562,33.0359c.4117,5.1723.8371,10.6422,4.0615,14.9507,2.22,2.9663,5.883,4.9241,9.4524,2.9847,3.76-2.0431,5.038-6.8265,5.468-10.7517.0746-.681.1331-1.3709.14-2.0564.0064-.6014-.0673.1374-.049-.11.0085-.1152.0462-.23.0608-.3446.1026-.8071.2843-1.61.4257-2.4117.26-1.474.4912-2.9478.652-4.4368.08-.7381.1475-1.4774.2228-2.216.0385-.3771.0782-.7541.1229-1.1306.0724-.61.0232-.2775.1339-.9406a17.53,17.53,0,0,1,.4127-1.8947c.1025-.3618.22-.7187.3553-1.07.1462-.38.0391-.0887.0045-.0132.1027-.2242.2122-.445.3323-.66a5.7391,5.7391,0,0,1,2.6315-2.5237,15.496,15.496,0,0,1,5.6058-1.5041c1.5091-.1581,3.1093-.0176,4.5965-.2813a19.651,19.651,0,0,0,3.5337-1.05,26.8372,26.8372,0,0,0,7.0156-3.9614,26.2039,26.2039,0,0,0,8.6289-12.32c1.45-4.3462,1.3245-8.9247,1.4266-13.4434l.42-18.59.7736-34.2232.0147-.6535c.061-2.6953-4.1259-2.6945-4.1868,0l-.6425,28.4227q-.3428,15.1641-.6855,30.3282a22.2071,22.2071,0,0,1-13.5548,20.2764,16.562,16.562,0,0,1-3.51,1.0987c-.3345.0532-.84.0153-1.5066.0435-.776.0328-1.5513.0856-2.3239.1657a22.1221,22.1221,0,0,0-6.87,1.6628,10.8923,10.8923,0,0,0-6.044,7,26.1112,26.1112,0,0,0-.8069,4.6412c-.0763.6961-.14,1.3936-.21,2.09-.0358.3557-.0722.7113-.1124,1.0665-.0532.4713-.0922.7766-.1182.9508-.2055,1.3757-.4711,2.7435-.7129,4.1131-.3465,1.9631-.2506,3.9531-.7069,5.9078a9.8912,9.8912,0,0,1-2.0926,4.4692,5.8891,5.8891,0,0,1-.4441.4169c.0652-.0545.2954-.2-.0378.0265-.1164.0791-.8833.4738-.4662.3054-.164.0662-.3327.1079-.5.1617-.1084.0347-.6369.0737-.1239.0395-.1145.0076-.2294.0155-.3443.0134q-.1736-.0006-.3463-.0159.4.0618.0349-.0044a2.7212,2.7212,0,0,1-1.4017-.6548c.16.1149-.4494-.401-.5791-.5322a7.301,7.301,0,0,1-.7826-.9314,16.2025,16.2025,0,0,1-2.5752-6.4614,114.9278,114.9278,0,0,1-1.1162-16.3761c-.12-5.3965-.0473-10.7968.1538-16.1905.2675-7.1779.7376-14.3569,1.475-21.5026.0366-.3544.0734-.7087.1134-1.0627a2.106,2.106,0,0,0-2.0934-2.0934A2.1427,2.1427,0,0,0,728.3,514.927Z"/><path d="M746.1065,570.7035a137.7026,137.7026,0,0,1,2.4853-22.9846,29.7215,29.7215,0,0,1,.8488-3.187c.0827-.2452.1719-.4876.2649-.729.0875-.2271-.0524.1166-.0589.1312.05-.1138.0981-.23.156-.34.12-.2287.7268-1.1267.2994-.5947a2.1573,2.1573,0,0,0,0-2.9605,2.1085,2.1085,0,0,0-2.9606,0,13.15,13.15,0,0,0-2.2331,5.07,64.6431,64.6431,0,0,0-1.352,7.3245c-.69,4.9876-1.1363,10.0066-1.4546,15.0308-.0684,1.0793-.1333,2.1591-.1821,3.2395-.1214,2.6938,4.0657,2.6878,4.1869,0Z"/><path class="cls-7" d="M586.6428,196.2182a49.7828,49.7828,0,0,0-39.4489-52.0526q-.1737-.0365-.3429-.0713a31.3942,31.3942,0,0,0-56.5433-16.2c-17.3739,16.8826-7.952,52.3565-7.952,52.3565l29.6336.6383a20.3771,20.3771,0,0,1,18.5575,12.9987h0l6.8587,22.3946s-1.6012-14.8871,3.11-21.5878c2.0356-2.6791,4.4185-4.49,6.8155-4.6413,6.5824-.4158,11.7815,1.4821,12.3768,10.9061.394,6.2381-4.1473,17.4411-7.609,20.517l3.6045,25.3744.0127-.0116.4194.0081a14.9425,14.9425,0,0,0,14.1778-9.4335Z"/><path d="M588.7362,196.2182a51.8152,51.8152,0,0,0-41.3287-54.1425l1.5369,2.0186A33.4738,33.4738,0,0,0,501.1422,116.33a33.4213,33.4213,0,0,0-7.271,4.7175,31.7293,31.7293,0,0,0-2.929,2.8056c-.9209,1.003-1.6914,2.1451-2.6531,3.1a33.2376,33.2376,0,0,0-7.3325,11.8676c-3.129,8.2427-3.6414,17.4176-3.035,26.14a85.3958,85.3958,0,0,0,2.4155,15.8475,2.1366,2.1366,0,0,0,2.0186,1.5369l27.5974.5944A28.6705,28.6705,0,0,1,515,183.3a18.6725,18.6725,0,0,1,10.622,6.2739c3.0875,3.6453,4,8.443,5.3621,12.8909l4.4023,14.3742c.6579,2.1481,4.3719,1.8887,4.1121-.5565-.6037-5.6814-.58-11.9845,1.2771-17.43a11.6745,11.6745,0,0,1,3.2577-4.9452,6.9016,6.9016,0,0,1,5.39-1.8065c3.089.0757,5.7642,1.0077,7.1276,3.9843,1.6729,3.6524,1.1572,7.8742.14,11.6156a32.5067,32.5067,0,0,1-5.0817,11.2359,15.11,15.11,0,0,0-1.3183,1.4837,2.5435,2.5435,0,0,0-.1893,1.7656c.089.6382.1812,1.276.2718,1.914l1.1252,7.9205,2.1857,15.3874c.2369,1.6672,2.4678,1.865,3.4989.9238l.0127-.0116-1.48.6131a17.351,17.351,0,0,0,16.6268-10.99c.8734-2.1593,1.7168-4.3312,2.5751-6.4965l10.8381-27.3421,2.9053-7.3295a2.1081,2.1081,0,0,0-1.4621-2.5751,2.143,2.143,0,0,0-2.5751,1.4621l-7.429,18.7417q-4.36,10.9987-8.72,21.9978a13.6252,13.6252,0,0,1-3.753,5.3222,12.6428,12.6428,0,0,1-4.9567,2.5912,12.427,12.427,0,0,1-2.9141.4362c-.97.0276-1.841-.0989-2.6286.62l3.4989.9238-3.1549-22.21-.4495-3.1644-.5384,2.0368a19.9867,19.9867,0,0,0,4.0937-6.0646,45.5591,45.5591,0,0,0,3.23-8.7418c1.38-5.4592,1.5459-12.1957-2.4168-16.6817a10.6152,10.6152,0,0,0-6.0331-3.242c-2.7041-.4948-5.7539-.6034-8.29.57-5.9445,2.7491-8.0141,9.3148-8.7494,15.29a53.9793,53.9793,0,0,0-.101,12.1956l4.1121-.5565-3.9022-12.7415c-1.372-4.48-2.35-9.4939-4.8487-13.523a22.9426,22.9426,0,0,0-19.28-10.6786l-14.97-.3224-14.0679-.303,2.0186,1.5369a76.6007,76.6007,0,0,1-1.9459-11.1415c-.8539-7.8892-.87-16.0518,1.0619-23.79a35.2557,35.2557,0,0,1,4.9579-11.4407c1.1929-1.7458,2.7168-3.1754,4.015-4.8266a29.0392,29.0392,0,0,1,5.6893-5.5275,29.2971,29.2971,0,0,1,46.6051,21.1261,2.15,2.15,0,0,0,1.5369,2.0187,47.6844,47.6844,0,0,1,38.2549,50.1052C584.3785,198.9087,588.5659,198.8984,588.7362,196.2182Z"/><path d="M515.5555,117.2551a29.3167,29.3167,0,0,1,27.0656,40.6112c-.2545.6119-.5412,1.2118-.84,1.8033-.189.3739-.4118.7356-.592,1.1132-.4943,1.0359.1117-.04.1129-.0488-.0139.109-.2373.2955-.3067.3764q-.8412.9809-1.7623,1.8861a25.529,25.529,0,0,1-7.505,5.228,17.791,17.791,0,0,1-11.5167,1.1973,24.3121,24.3121,0,0,1-12.8753-8.2789,13.9949,13.9949,0,0,1-2.6254-5.2493,8.8884,8.8884,0,0,1-.3349-2.0362,17.1108,17.1108,0,0,1,.0328-2.32c.0057-.0819.0808-.6781.0069-.1426.0229-.166.05-.3318.0784-.4969q.0808-.4617.19-.9178a14.5456,14.5456,0,0,1,.4434-1.4971c.067-.188.1466-.3715.2135-.5593.0452-.1268-.2417.5107-.0036.0244.0538-.11.1043-.2213.1633-.3285,1.301-2.3616-2.3134-4.4764-3.6151-2.1132-2.5978,4.7158-2.1235,10.8865.3757,15.5033,2.6519,4.8988,7.595,8.7123,12.6069,10.9569a22.2375,22.2375,0,0,0,15.02,1.3471,28.5742,28.5742,0,0,0,14.38-9.6263,16.6643,16.6643,0,0,0,2.0166-3.8171,33.4787,33.4787,0,0,0-30.7292-46.8019c-2.6946-.0147-2.6978,4.1721,0,4.1869Z"/><path d="M502.1559,232.3178a14.5809,14.5809,0,0,0,2.0667-.72,14.2577,14.2577,0,0,0,4.4531-2.7379,8.1829,8.1829,0,0,0,1.92-2.8891,2.0967,2.0967,0,0,0-.211-1.6131,2.0934,2.0934,0,0,0-2.8642-.751,2.4585,2.4585,0,0,0-.9621,1.2511l-.03.0734.2111-.5a5.1641,5.1641,0,0,1-.3651.7c-.0772.1233-.1644.2387-.2457.359-.1154.1708.375-.4574.1566-.2045-.0433.05-.0848.1019-.1284.1519a7.1273,7.1273,0,0,1-.5591.5714q-.1629.1493-.3336.29c-.0413.0341-.0835.0671-.125.1011-.2683.22.4512-.3326.1687-.132a14.3515,14.3515,0,0,1-2.6987,1.5038l.5-.211a14.3927,14.3927,0,0,1-2.0666.72,2.094,2.094,0,0,0,1.113,4.0373Z"/><path class="cls-1" d="M643.9512,370.5575l22.33,117.9288h-99.393l-.3541-209.5025a23.3078,23.3078,0,0,1,22.8224-23.3422h0a23.3076,23.3076,0,0,1,17.7691,7.6653l6.1226,6.767H590.1967l8.4638,116.8628a12.2379,12.2379,0,0,0,9.1109,10.9585h0a12.2379,12.2379,0,0,0,15.0917-14.2589l-2.6372-13.0788Z"/><path d="M641.9326,371.1141l2.228,11.7663,5.3256,28.1261,6.4406,34.0142,5.5885,29.5145,1.83,9.6661c.2883,1.5227.4532,3.1439.8779,4.6362.0188.0661.026.1376.0388.2053l2.0186-2.65H570.9828a39.1886,39.1886,0,0,0-3.9217,0,1.7251,1.7251,0,0,1-.1732,0l2.0934,2.0935-.0127-7.5058-.0339-20.0556-.0489-28.9127-.0576-34.0773-.06-35.5491-.0561-33.22-.0464-27.4421-.03-17.849c-.0079-4.6994-.1826-9.292,1.8787-13.7125a21.2255,21.2255,0,0,1,30.6-9.19,30.8028,30.8028,0,0,1,6.3714,5.8483l4.2826,4.7334,1.48-3.5737H590.1967a2.1105,2.1105,0,0,0-2.0935,2.0934l1.37,18.9178,2.988,41.2564,2.9159,40.26.9082,12.54c.2132,2.9433.253,5.9168,1.4373,8.6757a14.3158,14.3158,0,0,0,25.289,1.9484c2.2857-3.5757,2.4757-7.5884,1.6608-11.63l-1.95-9.6713-.4779-2.37-2.0187,2.65h23.7253c2.6941,0,2.6985-4.1869,0-4.1869H620.2259a2.1225,2.1225,0,0,0-2.0186,2.65l1.4891,7.3849c.4935,2.4474,1.3172,5.0666,1.3226,7.5828a10.1449,10.1449,0,0,1-18.9259,5.0661c-1.4069-2.4193-1.4019-5.0778-1.5967-7.7668l-.8617-11.8971-2.7974-38.6248-2.9589-40.8542-1.0519-14.5241c-.17-2.3442-.1742-4.7738-.5143-7.1012-.0146-.1-.0148-.2046-.0221-.3058l-2.0934,2.0934h23.0512a2.1183,2.1183,0,0,0,1.48-3.5736c-3.56-3.935-6.95-8.4-11.5013-11.2364a25.3866,25.3866,0,0,0-38.6646,19.1887,39.3133,39.3133,0,0,0-.1192,4.0826l.0236,13.92.0423,25.0693.0545,32.2244.06,35.6389.06,35.36.0524,31.0167.0389,22.9879c.0063,3.72-.038,7.4433.0189,11.1626.0024.1591.0005.3183.0008.4775a2.1241,2.1241,0,0,0,2.0934,2.0934H654.024c4.016,0,8.07.1613,12.0837,0,.0575-.0024.1156,0,.1732,0a2.124,2.124,0,0,0,2.0187-2.65l-2.228-11.7663-5.3256-28.1261-6.4406-34.0142-5.5885-29.5145-1.83-9.6661c-.2907-1.5355-.4963-3.12-.8779-4.6363-.0169-.0671-.0259-.1371-.0388-.2052C645.4692,367.3568,641.4332,368.4765,641.9326,371.1141Z"/><path class="cls-1" d="M483.6213,278.2373,439.495,488.4863H491.83l15.3517-214.2256,7.6758-.6978v-12.56l-11.748.5874A20.9836,20.9836,0,0,0,483.6213,278.2373Z"/><path d="M481.6027,277.6808l-1.1825,5.6341-3.2177,15.3313-4.737,22.5706-5.8012,27.6411-6.329,30.1558-6.4143,30.5622L447.94,438.0714,442.9058,462.06l-3.636,17.3244c-.5726,2.7281-1.1777,5.4516-1.7181,8.1863-.0237.12-.05.2393-.0754.3589a2.1217,2.1217,0,0,0,2.0187,2.65H491.83a2.1405,2.1405,0,0,0,2.0934-2.0934l.4114-5.7407,1.1194-15.6213,1.6481-22.9975,2.0182-28.1638,2.2019-30.7262,2.2315-31.14,2.0807-29.0345,1.7516-24.4425,1.2649-17.652c.1984-2.7675.5385-5.5661.5978-8.3411.0026-.1217.0175-.2443.0262-.3658l-2.0934,2.0934,7.6758-.6978a2.14,2.14,0,0,0,2.0934-2.0934v-12.56a2.1142,2.1142,0,0,0-2.0934-2.0934l-11.1145.5557a23.6921,23.6921,0,0,0-16.5034,7.3891,23.3673,23.3673,0,0,0-5.6371,10.8269c-.5741,2.6263,3.4612,3.7482,4.0372,1.113a19.1464,19.1464,0,0,1,11.3173-13.7271c4.04-1.6458,8.4859-1.5,12.7691-1.7142l5.1314-.2566-2.0934-2.0934v12.56l2.0934-2.0934-7.6758.6978a2.16,2.16,0,0,0-2.0934,2.0934l-.4114,5.7407-1.12,15.6213L501.91,318.62l-2.0183,28.1638L497.69,377.51l-2.2316,31.14-2.0806,29.0345-1.7516,24.4424-1.265,17.6521c-.1983,2.7675-.5385,5.5661-.5977,8.3411-.0026.1217-.0175.2443-.0262.3658l2.0934-2.0935H439.495l2.0186,2.65,1.1825-5.6341,3.2176-15.3313,4.7371-22.5707,5.8012-27.641,6.329-30.1558,6.4143-30.5622,5.9805-28.4956,5.0347-23.9887,3.636-17.3244c.5725-2.728,1.1777-5.4516,1.7181-8.1863.0237-.12.05-.2393.0753-.3589C486.1917,276.165,482.1567,275.0412,481.6027,277.6808Z"/><polygon class="cls-8" points="636.973 465.459 580.451 465.459 580.451 420.799 632.089 420.799 636.973 465.459"/><path d="M636.9732,463.3653h-56.522l2.0934,2.0935V420.7994l-2.0934,2.0934h51.6374l-2.0934-2.0934,1.6545,15.1271,2.623,23.9815.6071,5.5508a2.1554,2.1554,0,0,0,2.0934,2.0934,2.1071,2.1071,0,0,0,2.0934-2.0934l-1.6545-15.1272-2.623-23.9815-.6071-5.5507a2.1438,2.1438,0,0,0-2.0934-2.0934H580.4512a2.1238,2.1238,0,0,0-2.0934,2.0934v44.6594a2.1238,2.1238,0,0,0,2.0934,2.0934h56.522C639.6672,467.5522,639.6717,463.3653,636.9732,463.3653Z"/><polygon class="cls-8" points="474.385 465.459 434.61 465.459 439.495 420.799 479.27 420.799 474.385 465.459"/><path d="M474.3851,463.3653H434.61l2.0934,2.0935,1.6545-15.1272,2.623-23.9815.6071-5.5507-2.0934,2.0934H479.27l-2.0934-2.0934-1.6545,15.1271-2.623,23.9815-.6071,5.5508a2.1066,2.1066,0,0,0,2.0934,2.0934,2.1418,2.1418,0,0,0,2.0934-2.0934l1.6546-15.1272L480.756,426.35l.6072-5.5507a2.1115,2.1115,0,0,0-2.0935-2.0934H439.495a2.1505,2.1505,0,0,0-2.0934,2.0934l-1.6546,15.1271-2.6229,23.9815-.6072,5.5508a2.1116,2.1116,0,0,0,2.0935,2.0934h39.7747C477.0791,467.5522,477.0836,463.3653,474.3851,463.3653Z"/><path class="cls-1" d="M580.4512,420.7994l41.17,23.7253,9.19-7.4227a18.0267,18.0267,0,0,0,6.1617-18.396h0Z"/><path d="M579.3946,422.607l13.8935,8.0064,22.1638,12.7724,5.1131,2.9465a2.1716,2.1716,0,0,0,2.5368-.3274l7.4132-5.9875a37.8659,37.8659,0,0,0,3.3212-2.8386,20.1173,20.1173,0,0,0,5.1556-19.0294,2.1178,2.1178,0,0,0-2.0186-1.5369l-19.18.71-30.3042,1.1224-7.0375.2607c-2.6861.0994-2.6991,4.2867,0,4.1868l19.18-.71,30.3041-1.1224,7.0376-.2606-2.0186-1.5369c1.6057,6.4229-1.05,12.6657-6.0739,16.7231l-8.7394,7.0588,2.5368-.3273-13.8935-8.0065-22.1638-12.7723-5.113-2.9465C579.1691,417.644,577.0582,421.2605,579.3946,422.607Z"/><path class="cls-1" d="M479.27,420.7994H431.1213l-2.9052,16.3485a5.9418,5.9418,0,0,0,6.1705,6.9728l8.76-.473a28.7437,28.7437,0,0,0,16.9654-6.7156Z"/><path d="M479.27,418.706H431.1213a2.1146,2.1146,0,0,0-2.0186,1.5369l-2.5149,14.1518c-.4662,2.6232-.9162,5.1116.4141,7.6226a8.049,8.049,0,0,0,5.156,3.9781,12.3862,12.3862,0,0,0,3.5513.1473c2.4669-.1332,4.9348-.2538,7.401-.4a31.37,31.37,0,0,0,14.5339-4.4652c4.1574-2.5412,7.8289-6.1334,11.5417-9.26L480.75,422.28c2.0636-1.7377-.9111-4.6864-2.9605-2.9605q-9.5346,8.0291-19.0694,16.0584a26.8679,26.8679,0,0,1-11.0187,5.51,47.7282,47.7282,0,0,1-8.5632.883l-3.9337.2123a5.3917,5.3917,0,0,1-2.9346-.3879c-2.15-1.1195-2.1489-3.2513-1.7867-5.2892l2.6568-14.95-2.0187,1.5369H479.27C481.9638,422.8928,481.9682,418.706,479.27,418.706Z"/><polygon class="cls-8" points="489.039 357.299 461.127 357.299 463.22 335.667 491.132 335.667 489.039 357.299"/><path d="M489.039,355.2059H461.1269l2.0934,2.0934,1.831-18.921.2624-2.7109-2.0934,2.0934h27.9121l-2.0934-2.0934-1.8311,18.9209-.2623,2.711a2.1083,2.1083,0,0,0,2.0934,2.0934,2.1391,2.1391,0,0,0,2.0934-2.0934l1.8311-18.921.2623-2.7109a2.1125,2.1125,0,0,0-2.0934-2.0934H463.22a2.147,2.147,0,0,0-2.0934,2.0934l-1.8311,18.9209-.2623,2.711a2.1124,2.1124,0,0,0,2.0934,2.0934H489.039C491.733,359.3927,491.7375,355.2059,489.039,355.2059Z"/><path d="M564.7506,511.1648a27.4041,27.4041,0,0,0,1.4157,10.4317,19.4077,19.4077,0,0,0,14.0773,13.2189l-1.4622-2.5752c-2.1117,13.7366-4.0631,27.498-6.0048,41.2594q-3.644,25.8264-7.1675,51.67-1.7129,12.5061-3.4106,25.0143c-1.0711,7.889-2.6533,15.9032-2.7063,23.8793a66.4914,66.4914,0,0,0,18.5848,46.3343c4.1625,4.3038,8.9765,7.7315,13.79,11.2306l17.9646,13.06,25.374,18.447,26.6555,19.3785,22.1755,16.1216,11.5605,8.4045.5267.3828c2.1821,1.5865,4.2738-2.0444,2.1131-3.6152l-7.9177-5.7561-19.8454-14.4277-25.9129-18.8386-26.1194-18.9888-20.396-14.8279q-4.5068-3.2765-9.0137-6.553a62.3865,62.3865,0,0,1-24.2863-38.464c-1.5785-8.22-1-16.268.1131-24.4931q1.6071-11.872,3.2256-23.7425,3.5147-25.7706,7.1051-51.5307c2.0748-14.8411,4.1665-29.68,6.3717-44.5027q.62-4.1659,1.2581-8.3289a2.14,2.14,0,0,0-1.4621-2.5752,15.3057,15.3057,0,0,1-11.3848-11.028,22.511,22.511,0,0,1-1.0344-8.5853c.2-2.6877-3.9874-2.6749-4.1868,0Z"/><path d="M510.7457,517.2375l-2.11,8.5135L502.8945,548.92l-8.4914,34.2664-10.36,41.8061L472.6966,670.78,461.245,716.9925l-10.6421,42.9448-9.0238,36.415-6.487,26.1774c-1.0212,4.121-2.1043,8.2322-3.0649,12.3679-.0417.18-.0889.3587-.1333.538-.6481,2.6154,3.3885,3.7311,4.0373,1.113l2.11-8.5135,5.7414-23.1689L452.2738,770.6l10.36-41.8061,11.3466-45.788,11.4517-46.2121,10.642-42.9448,9.0239-36.4149,6.4869-26.1775c1.0212-4.121,2.1043-8.2322,3.0649-12.3679.0418-.18.0889-.3587.1333-.538.6481-2.6154-3.3885-3.7311-4.0372-1.113Z"/><path d="M519.1193,474.6627l-4.6041,26.642L511.79,517.076c-.1945,1.126-.3925,2.2514-.5837,3.378a28.6247,28.6247,0,0,0,.6083,12.7727c1.8618,6.4554,6.43,11.6808,10.3072,17.025a2.1544,2.1544,0,0,0,2.8642.751,2.11,2.11,0,0,0,.751-2.8642L521.79,542.7a45.2044,45.2044,0,0,1-4.7745-7.4031,23.5688,23.5688,0,0,1-1.7931-13.6121c.1541-.9237.319-1.8457.4785-2.7685l5.6688-32.8031,1.7864-10.3372a2.1544,2.1544,0,0,0-1.4622-2.5751,2.1108,2.1108,0,0,0-2.5751,1.4621Z"/><path d="M697.6821,372.651h12.56a2.0935,2.0935,0,0,0,0-4.1869h-12.56a2.0935,2.0935,0,0,0,0,4.1869Z"/><path d="M359.3692,403.2681l7.2714-8.2594,1.0284-1.1682a2.0934,2.0934,0,1,0-2.96-2.9605l-7.2714,8.26-1.0284,1.1681a2.0934,2.0934,0,0,0,2.96,2.9605Z"/></svg>