<svg id="Layer_1" data-name="Layer 1" xmlns="http://www.w3.org/2000/svg" width="1000" height="1000" viewBox="0 0 1000 1000"><defs><style>.cls-1{fill:#ea2f2f;}.cls-2{fill:#fc7272;}.cls-3{fill:#fff;}.cls-4{fill:#ffc41f;}.cls-5{fill:#458dc9;}.cls-6{fill:#389b48;}</style></defs><path d="M371.1971,458.8792l3.35-.5912a19.8885,19.8885,0,0,0,16.296-21.91l-1.2411-10.55-22.2589-1.6358"/><path d="M371.7094,460.7374a35.5847,35.5847,0,0,0,8.1356-2.0644,21.815,21.815,0,0,0,13.03-18.8086,39.93,39.93,0,0,0-.5115-6.9409l-.8347-7.095a1.9948,1.9948,0,0,0-1.927-1.927l-19.497-1.4329-2.7619-.203c-2.4744-.1818-2.4628,3.6731,0,3.8541l19.497,1.4329,2.7619.203-1.9271-1.9271c.4407,3.7456,1,7.4955,1.3116,11.2541a18.1862,18.1862,0,0,1-9.8538,17.6887c-2.6469,1.3448-5.5614,1.74-8.4478,2.25-2.4382.43-1.4049,4.1451,1.0246,3.7164Z"/><path d="M231.0645,412.9506s-30.5,6.2608-34.0193,25.0433,41.0577,23.1651,41.0577,23.1651"/><path d="M230.5522,411.0924a70.1411,70.1411,0,0,0-14.4711,4.8875c-7.8309,3.5275-15.9624,8.8873-19.49,17.0535-1.4866,3.4418-2.3066,7.3624-1.0038,10.9973a17.39,17.39,0,0,0,6.3177,7.88c6.05,4.5261,13.7941,6.8419,21.0527,8.5623q4.69,1.1115,9.4583,1.85a51.4324,51.4324,0,0,0,5.4468.7374c.08.0038.16.0172.24.0251a1.9405,1.9405,0,0,0,1.9271-1.927,1.97,1.97,0,0,0-1.9271-1.9271c-.31-.0306-.6191-.0668-.9282-.1033q-.4719-.0558-.943-.1168c-.1546-.02-.9028-.1223-.2375-.03-.2857-.04-.5714-.0787-.857-.12q-4.0959-.5864-8.1493-1.4348c-6.9323-1.4523-13.98-3.3605-20.0771-6.85a18.8967,18.8967,0,0,1-6.7266-5.8382q-.2573-.41-.4811-.84c-.0669-.1287-.4069-.8978-.2766-.5682a10.29,10.29,0,0,1-.5973-2.1771c.0573.3626-.0432-.5585-.0489-.7277q-.0156-.4575.0088-.9153a11.07,11.07,0,0,1,.4707-2.5477c2.1786-7.9131,9.544-13.1186,16.524-16.5932a65.6943,65.6943,0,0,1,15.7929-5.5608c2.4276-.5006,1.4-4.2164-1.0245-3.7164Z"/><path class="cls-1" d="M173.3553,230.8473V191.9036a38.1376,38.1376,0,0,1,38.1376-38.1376h63.995l4.4964,77.0813"/><path d="M175.2823,230.8473V202.3347c0-3.4741-.0134-6.9485,0-10.4226a36.3071,36.3071,0,0,1,8.0793-22.8259,36.6868,36.6868,0,0,1,21.0824-12.7125,53.7987,53.7987,0,0,1,10.7349-.6806h50.31c3.1711,0,6.3757.1347,9.5447,0,.1509-.0064.3034,0,.4545,0l-1.927-1.9271,1.5188,26.0369L277.501,221.31l.5563,9.537c.1438,2.4652,3.9988,2.4818,3.854,0L280.3925,204.81l-2.4212-41.5074-.5564-9.537a1.9639,1.9639,0,0,0-1.927-1.927H217.0973c-2.7911,0-5.6173-.101-8.4034.1012a40.39,40.39,0,0,0-23.9863,10.1721,39.9807,39.9807,0,0,0-12.649,22.7223,75.9171,75.9171,0,0,0-.63,13.0606v32.9521c0,2.48,3.854,2.484,3.854,0Z"/><path class="cls-2" d="M147.8186,750.9647,62.6929,804.9893,136.4655,922.065s34.4274-18.9107,10.54-64.727a18.5348,18.5348,0,0,1,6.653-24.379c10.4332-6.43,20.557-12.6045,20.557-12.6045"/><path d="M146.846,749.3008l-8.4516,5.3638-20.3022,12.8846L93.5188,783.1446,72.2532,796.6407c-3.4576,2.1943-6.9947,4.3-10.3884,6.5929-.0472.0319-.0964.0612-.1445.0917a1.9557,1.9557,0,0,0-.6913,2.6366l7.36,11.68L86.0545,845.677l21.288,33.7836,18.3932,29.19c2.9765,4.7237,5.8453,9.5394,8.94,14.1873.0437.0655.0842.1335.1262.2a1.9674,1.9674,0,0,0,2.6365.6914,33.4182,33.4182,0,0,0,6.5228-4.9914,42.97,42.97,0,0,0,10.412-15.2235c3.3421-8.2683,3.6472-17.4047,1.9836-26.0932a74.088,74.088,0,0,0-5.9305-17.5146c-1.3039-2.7712-2.8256-5.3224-3.3822-8.3727a16.6408,16.6408,0,0,1,5.4181-15.3149,29.9487,29.9487,0,0,1,4.2765-2.8938q2.85-1.7539,5.7016-3.5041,6.3692-3.909,12.748-7.8024c2.1143-1.29.18-4.6241-1.9453-3.3278q-5.2379,3.1947-10.4672,6.4033-4.8364,2.9654-9.6671,5.9407a21.7947,21.7947,0,0,0-6.628,6.1867,20.6309,20.6309,0,0,0-3.0167,16.0122c.7129,3.2248,2.4374,6.04,3.8153,9.0047a75.7444,75.7444,0,0,1,3.446,8.77c2.8568,8.8973,3.8771,18.4993,1.2733,27.5839a36.4339,36.4339,0,0,1-4.1851,9.4232,35.8126,35.8126,0,0,1-5.182,6.6252q-1.3471,1.3877-2.8184,2.6473c-.3985.3409-.8059.67-1.2147.9985-.504.4047.2067-.1421-.2932.2255-.1839.1353-.3659.273-.5509.4068a22.1264,22.1264,0,0,1-2.2611,1.4829l2.6365.6913-7.36-11.68-17.6658-28.0354-21.288-33.7836-18.3932-29.19-6.0615-9.62c-.9427-1.4961-1.7921-3.1692-2.8782-4.5678-.0476-.0613-.0847-.1343-.1262-.2l-.6913,2.6365,8.4516-5.3638,20.3022-12.8846,24.5734-15.5954,21.2656-13.4961c3.4576-2.1944,6.9947-4.3,10.3884-6.5929.0472-.0319.0964-.0612.1445-.0918,2.0885-1.3254.1572-4.6621-1.9452-3.3278Z"/><path class="cls-3" d="M146.8419,843.9465a19.0981,19.0981,0,0,0,.85,15.8518c24.5174,47.0242-10.8176,66.4334-10.8176,66.4334L89.453,833.51l6.0589-1.2555a63.38,63.38,0,0,1,51.33,11.6921Z"/><path d="M144.9838,843.4342a21.1269,21.1269,0,0,0,.3052,15.75c1.0726,2.5234,2.4437,4.9183,3.5471,7.4326.9855,2.2455,1.8569,4.5438,2.6175,6.875,2.4068,7.376,3.65,15.2467,2.6123,22.9887a39.4327,39.4327,0,0,1-13.59,24.7717q-.4938.4259-1.0009.8363c-.1636.1322-.329.2621-.4937.3929-.2962.2352.3364-.2448-.1628.1238s-1.0006.7366-1.5163,1.084c-.4562.3073-.9187.6132-1.4009.8789l2.6365.6913-4.7152-9.22-11.3241-22.1419L108.798,867.109,96.9536,843.95,93.05,836.3169a38.6457,38.6457,0,0,0-1.8524-3.622,1.68,1.68,0,0,1-.0806-.1576l-1.1517,2.8308c5.687-1.1784,11.3-2.3776,17.139-2.4928a61.3552,61.3552,0,0,1,25.89,5.1223,63.505,63.505,0,0,1,12.8746,7.6128,1.94,1.94,0,0,0,2.6366-.6913,1.973,1.973,0,0,0-.6913-2.6365A65.7664,65.7664,0,0,0,95,830.3962c-2.0207.4132-4.0393.837-6.059,1.2555a1.9492,1.9492,0,0,0-1.1516,2.8308l4.7152,9.22,11.3241,22.142,13.7,26.7885,11.8444,23.1594c1.907,3.7287,3.6354,7.6407,5.756,11.2547.03.0506.0539.1053.0807.1576a1.9552,1.9552,0,0,0,2.6365.6913c5.0875-2.8027,9.455-7.4462,12.7464-12.1425,7.816-11.1522,9.1776-25.0946,6.043-38.1239a79.8452,79.8452,0,0,0-5.7046-15.6489c-1.374-2.8782-2.9389-5.5676-3.3582-8.7894a17.92,17.92,0,0,1,1.127-8.7321,1.9443,1.9443,0,0,0-1.3459-2.37A1.9679,1.9679,0,0,0,144.9838,843.4342Z"/><path class="cls-3" d="M127.4653,934.87c-6.8048,4.2048-10.7944-2.6231-15.0809-9.3768s2.2215-10.8841-2.0649-17.6378-10.7938-2.6221-15.08-9.3749,2.2223-10.8829-2.0633-17.6352-10.7937-2.622-15.0794-9.3745,2.2224-10.8829-2.0633-17.6352-10.7931-2.6211-15.0782-9.3726,2.223-10.8819-2.0621-17.6333a9.5768,9.5768,0,0,0-6.2118-4.3507,5.46,5.46,0,0,1-1.54-9.8309l18.4372-12.1085,74.6774,119.6818S136.6416,929.1993,127.4653,934.87Z"/><path d="M126.4927,933.2056a5.0236,5.0236,0,0,1-4.4057.7766,9.2654,9.2654,0,0,1-3.5368-2.8776,44.2443,44.2443,0,0,1-3.5081-5.0165c-.9727-1.529-2.0379-3.0174-2.2352-4.8692-.3317-3.114,1.2287-6.1061.9286-9.2442a11.753,11.753,0,0,0-6.2076-9.25c-2.8087-1.3852-6.3617-1.2944-8.8786-3.2415-2.7389-2.1189-3.3511-5.3848-2.7273-8.5917.7024-3.6112,1.16-6.9275-.6694-10.3176a12.41,12.41,0,0,0-8.3938-6.1,18.7019,18.7019,0,0,1-4.2949-1.3389,8.03,8.03,0,0,1-3.5531-4.0217c-1.2116-2.913.0812-5.96.4072-8.9121a11.6954,11.6954,0,0,0-4.2-10.1984c-2.6473-2.1486-5.8242-2.3132-8.8886-3.468a7.8631,7.8631,0,0,1-4.957-7.8492c.2112-3.198,1.446-6.0956.6869-9.3459a11.8766,11.8766,0,0,0-7.9522-8.4487c-1.2634-.4144-2.3923-.6917-3.0669-1.9466A3.6554,3.6554,0,0,1,50.91,815.72a6.4112,6.4112,0,0,1,2.668-2.3693l5.2871-3.4722,10.9932-7.22.6934-.4555-2.6365-.6913,7.4808,11.9892,17.8193,28.558,21.5331,34.51L133.37,906.4139l6.1776,9.9c.9572,1.5341,1.8186,3.2459,2.9214,4.6821.0464.06.0825.1322.123.197l.3013-2.3352a71.8148,71.8148,0,0,1-16.4008,14.3473c-2.1,1.31-.1673,4.6457,1.9452,3.3278a75.11,75.11,0,0,0,17.1808-14.95,1.9873,1.9873,0,0,0,.3014-2.3352l-7.4809-11.9892L120.62,878.7011l-21.5331-34.51L80.4646,814.3461c-3.0292-4.8548-5.9434-9.8082-9.099-14.5826-.0426-.0645-.082-.1314-.1229-.197a1.9512,1.9512,0,0,0-2.6366-.6913c-6.1368,4.03-12.3825,7.93-18.4248,12.1a7.5124,7.5124,0,0,0-3.1594,8.2437,7.4163,7.4163,0,0,0,2.8728,4.0577c1.37.9706,3.056,1.1058,4.5124,1.8781,3.3476,1.7753,4.52,5.439,3.859,8.9751-.6829,3.6528-1.2675,6.9639.5245,10.4319,1.8452,3.571,4.9863,5.4056,8.7659,6.3411a15.58,15.58,0,0,1,4.4114,1.496,7.9483,7.9483,0,0,1,3.3383,4.3271c.9826,3.1276-.5893,6.2654-.6671,9.4124a11.7715,11.7715,0,0,0,5.579,10.0961c2.7956,1.6836,6.281,1.5392,9.025,3.2532,3.1356,1.9586,3.91,5.5594,3.2512,8.9458-.7168,3.6852-1.1658,7.0586.7676,10.4918,1.9677,3.494,5.1016,5.144,8.8635,6.0657a13.6935,13.6935,0,0,1,4.3923,1.5922,8.047,8.047,0,0,1,3.17,4.4869c.8571,3.1033-.7766,6.2665-.7657,9.39.0146,4.1866,2.7741,7.8078,5.1182,11.0681,2.19,3.0453,4.949,6.2289,8.9456,6.5411a9.4245,9.4245,0,0,0,5.4519-1.5357C130.5682,935.2673,128.6319,931.9341,126.4927,933.2056Z"/><path class="cls-3" d="M94.9691,835.1629,84.3214,777.4854a7.975,7.975,0,0,1,8.9327-8.99l0,0a6.7368,6.7368,0,0,1,7.8477,5.4018L111.75,831.5743Z"/><path d="M96.8273,834.6506l-4.2416-22.9764L86.72,779.8982c-.569-3.0823-1.2091-5.6955,1.5672-8.1042,1.5028-1.3038,3.1052-1.2806,4.9673-1.3719,1.8981-.0931,3.5581.0061,4.8919,1.5792a7.0387,7.0387,0,0,1,1.3026,3.5178l5.3457,28.9573,3.189,17.2744c.6043,3.2732,1.08,6.6035,1.8183,9.85.0365.16.06.3243.09.486l1.3459-2.37-16.7805,3.5886c-2.4241.5184-1.3982,4.2345,1.0246,3.7164l16.78-3.5886a1.968,1.968,0,0,0,1.346-2.37l-4.4651-24.187-5.8371-31.619c-.1357-.7349-.2419-1.4836-.4171-2.2108a8.7247,8.7247,0,0,0-4.0291-5.3973,8.5573,8.5573,0,0,0-3.068-1.0769,8.23,8.23,0,0,0-1.6839-.1034c-.3418.0192-.6833.101-1.0231.1149-.9254.0381.3973.073-.5627-.0517a9.2847,9.2847,0,0,0-6.0395,1.8048,10.1513,10.1513,0,0,0-3.5,4.5538,9.981,9.981,0,0,0-.4292,5.5943c1.7244,9.4546,3.4894,18.9019,5.2341,28.3528,1.7426,9.4393,3.243,18.962,5.2341,28.3527.0341.1609.06.3241.09.486C93.5606,838.1109,97.2757,837.0792,96.8273,834.6506Z"/><circle cx="102.6789" cy="831.6337" r="13.0782"/><path d="M106.1933,842.2183a11.1487,11.1487,0,1,1,7.5645-11.9782,11.324,11.324,0,0,1-7.5645,11.9782c-2.3368.7907-1.3341,4.5145,1.0246,3.7164a14.9932,14.9932,0,0,0,1.0283-28.22,14.9993,14.9993,0,1,0-1.0283,28.22C109.58,845.2047,108.5724,841.4832,106.1933,842.2183Z"/><path class="cls-2" d="M337.9119,803.7937l9.4325,100.38,137.8145-12.5017s-1.1974-39.261-52.865-38.8068a18.5347,18.5347,0,0,1-18.6917-17.0063c-.9857-12.2158-1.8843-24.04-1.8843-24.04"/><path d="M335.9849,803.7937l.9365,9.9661,2.25,23.94,2.7229,28.9768L344.25,891.753c.3836,4.0822.7175,8.1727,1.1511,12.25.006.0568.0106.1137.016.1705a1.953,1.953,0,0,0,1.927,1.927l13.7487-1.2472,33.0016-2.9937,39.7679-3.6075,34.36-3.117c5.5655-.5048,11.1408-.9476,16.7-1.5149.0784-.008.1571-.0143.2356-.0214a1.963,1.963,0,0,0,1.927-1.927,33.0017,33.0017,0,0,0-1.3235-7.6275,43.2482,43.2482,0,0,0-8.0351-15.63,44.9849,44.9849,0,0,0-20.362-13.8251,67.5442,67.5442,0,0,0-16.6237-3.3485c-3.3366-.28-6.6867-.1074-10.0161-.3549a16.665,16.665,0,0,1-13.4638-9.0155c-1.5843-3.0582-1.76-6.3335-2.0286-9.7019q-.768-9.6174-1.5032-19.2374-.0426-.5562-.0849-1.1125c-.1869-2.4576-4.0425-2.4778-3.8541,0q.5406,7.1115,1.1024,14.2214c.5532,7.03.2732,14.5194,4.7116,20.426a20.78,20.78,0,0,0,15.64,8.3062c3.347.156,6.6807.065,10.0259.3687a67.4048,67.4048,0,0,1,8.4524,1.2982c8.5267,1.8835,16.6368,5.6534,22.7175,11.8295a35.2675,35.2675,0,0,1,5.837,7.7213,43.1115,43.1115,0,0,1,1.9764,3.9375c.029.0653.2065.4821.1147.2641s.08.1942.1058.26c.1281.32.2559.6407.3779.9635q.3357.8878.6311,1.79a40.4264,40.4264,0,0,1,1.4542,5.86c.0579.3441.1054.6895.1585,1.0342-.1152-.7477.0156.1411.0448.4187.0348.33.02.691.0846,1.0157a.869.869,0,0,1,.0064.1381l1.927-1.9271L471.41,890.9918l-33.0015,2.9937-39.768,3.6075-34.36,3.117-11.3234,1.0272a53.7367,53.7367,0,0,0-5.377.4878,2.3617,2.3617,0,0,1-.2356.0213l1.927,1.9271-.9365-9.9661-2.25-23.94L343.3624,841.29l-2.3564-25.0762c-.3836-4.0822-.7175-8.1727-1.1511-12.25-.006-.0567-.0106-.1136-.016-.17a1.98,1.98,0,0,0-1.927-1.927,1.9408,1.9408,0,0,0-1.927,1.927Z"/><path class="cls-3" d="M420.2912,846.924a19.0979,19.0979,0,0,0,14.5061,6.4478c53.03-.4662,54.2587,39.83,54.2587,39.83L384.9115,893.3l1.6355-5.9676a63.38,63.38,0,0,1,33.7442-40.4079Z"/><path d="M418.9286,848.2866a21.3054,21.3054,0,0,0,14.6747,6.9862c2.7985.15,5.6039.04,8.4055.2269,2.3453.1568,4.6847.4042,7.0046.7845a52.33,52.33,0,0,1,21.4638,8.17,39.37,39.37,0,0,1,15.7691,23.251q.2932,1.2068.5132,2.43c.06.3379.1143.6766.1673,1.0157.0235.15.0424.3017.0649.4523-.05-.3381-.0476-.407-.0071-.0342.0589.5427.1271,1.0866.1443,1.6328l1.9271-1.927-10.3555.01-24.87.0234-30.0887.0283L397.73,891.36l-8.573.0081a37.2013,37.2013,0,0,0-4.0682.0038,1.6346,1.6346,0,0,1-.1771,0l1.8582,2.4393c1.6284-5.9419,3.21-11.8255,6.0074-17.3569a62.2615,62.2615,0,0,1,16.2793-20.1889,61.39,61.39,0,0,1,12.2074-7.6781c2.236-1.0711.2831-4.3953-1.9452-3.3279a65.7023,65.7023,0,0,0-34.2674,40.29c-.7113,2.3986-1.3367,4.8243-1.9979,7.237a1.9472,1.9472,0,0,0,1.8582,2.4393l10.3555-.01,24.87-.0234,30.0887-.0282,26.0124-.0245c4.2008-.0039,8.443.1646,12.6412-.0119.0588-.0024.1182,0,.1771,0a1.9494,1.9494,0,0,0,1.927-1.9271c-.1834-5.8051-2.2817-11.8083-4.9656-16.88-6.3458-11.9913-18.0525-19.6149-31.0469-22.7585a79.8214,79.8214,0,0,0-16.6718-2.0887c-3.1163-.081-6.1149.0773-9.1221-.9054a17.4776,17.4776,0,0,1-7.5228-5.0075C419.9894,843.7153,417.2707,846.4479,418.9286,848.2866Z"/><path class="cls-4" d="M376.9782,406.8494l44.3723,402.3028L298.3812,819.65s-32.7379-297.0885-33.531-342.997S287.387,361.3992,287.387,361.3992"/><path class="cls-5" d="M380.8322,431.2584l40.5183,377.8938L298.3812,819.65s-32.7379-297.0885-33.531-342.997S287.387,361.3992,287.387,361.3992"/><path class="cls-3" d="M291.0323,751.8492A45.9156,45.9156,0,0,1,357.828,814.575l-59.4468,5.075S295.3127,791.8041,291.0323,751.8492Z"/><path class="cls-3" d="M408.222,735.6714a45.9275,45.9275,0,1,1-6.7119-91.6095c1.0142-.0743,2.0208-.1031,3.0234-.1113l9.2592,90.9583A46.3034,46.3034,0,0,1,408.222,735.6714Z"/><circle class="cls-3" cx="339.3662" cy="534.2934" r="45.9276"/><path d="M378.9052,431.2584l1.0824,10.0948,2.9458,27.4737,4.3573,40.6386,5.3169,49.5883,5.849,54.551,5.856,54.6162,5.5055,51.3464,4.6151,43.0432,3.3468,31.2135,1.0323,9.6279a47.4723,47.4723,0,0,0,.544,5.0736,5.8767,5.8767,0,0,1,.0672.6266l1.927-1.927-41.7133,3.561-65.982,5.6328-15.274,1.3039,1.927,1.927q-.6711-6.0915-1.3349-12.1838-1.7808-16.3053-3.54-32.6128-2.5437-23.5648-5.0484-47.1339-2.9483-27.7482-5.8342-55.5029-3.0356-29.2216-5.9749-58.4531-2.7707-27.63-5.3949-55.275c-1.45-15.3892-2.8573-30.7831-4.1182-46.1891-.8474-10.3546-1.6958-20.7224-2.14-31.1038-.8913-20.8135,2.5027-41.6382,6.8355-61.93a562.7554,562.7554,0,0,1,14.5494-54.48c.3081-.9593.6172-1.9186.9382-2.8737.792-2.3563-2.929-3.3673-3.7164-1.0246-4.3979,13.0849-8.0814,26.4477-11.4225,39.8355-6.0206,24.1249-11.3092,49.2223-11.2017,74.1981.04,9.2958.8423,18.6062,1.55,27.8685,1.0947,14.3329,2.37,28.6521,3.6862,42.9661q2.4631,26.7807,5.1388,53.5414,2.8838,29.1108,5.8944,58.2088,2.9374,28.4881,5.9529,56.9683,2.6439,25.0053,5.3344,50.0058,1.974,18.3492,3.972,36.696c.643,5.9023,1.2676,11.8072,1.9366,17.7067.029.2559.0563.5119.0845.7678.1064.9653.7988,2.0234,1.927,1.9271l41.7133-3.5611,65.982-5.6328,15.274-1.3039c.9509-.0812,2.0456-.8208,1.927-1.927l-1.0824-10.0947-2.9457-27.4738-4.3573-40.6386-5.317-49.5883-5.849-54.5509L397.87,572.19l-5.5054-51.3464L387.75,477.8l-3.3467-31.2135c-.5254-4.9-1.0271-9.8038-1.5763-14.7015-.0235-.2088-.0448-.4178-.0672-.6267-.2617-2.44-4.1186-2.4671-3.8541,0Z"/><path class="cls-5" d="M343.4663,436.4171l5.9151,203.8556A160.8176,160.8176,0,0,1,276.7886,755.04L169.5461,823.9187l-60.8508-92.0406s87.9868-65.0169,127.9728-87.5856l-17.1266-159.12a165.62,165.62,0,0,1,.429-39.06l7.35-56.5752L344.7235,348.088"/><path class="cls-3" d="M263.9949,661.5439a45.9259,45.9259,0,0,1,85.2225-26.922l.1639,5.6508a160.7372,160.7372,0,0,1-20.0153,59.4666,45.928,45.928,0,0,1-65.3711-38.1954Z"/><path class="cls-3" d="M131.11,715.541c19.7006-14.2272,49.09-35.13,74.42-51.8449a45.9245,45.9245,0,0,1-74.42,51.8449Z"/><path class="cls-3" d="M145.7332,787.9a45.9179,45.9179,0,0,1,75.9136,2.5557l-52.1007,33.4627Z"/><path class="cls-3" d="M219.6755,486.4177l-.134-1.2453a165.62,165.62,0,0,1,.429-39.06l6.646-51.1588a45.9276,45.9276,0,1,1-6.941,91.4642Z"/><path class="cls-3" d="M294.4951,497.6489a45.9454,45.9454,0,0,1,49.3217-49.1516l2.6491,91.2995c-.9284.1249-1.8632.2315-2.81.3009A45.9276,45.9276,0,0,1,294.4951,497.6489Z"/><path d="M341.5392,436.4171l.55,18.94,1.3269,45.7287,1.637,56.4175,1.48,51.0061.8574,29.55c.1666,5.7423-1.3381,11.5174-2.6122,17.0789A158.9045,158.9045,0,0,1,275.6,753.515q-13.2558,8.53-26.5264,17.0371l-46.8488,30.09-32.003,20.5544-1.6481,1.0586,2.6365.6914-20.6169-31.1844-32.7048-49.468-7.5291-11.3882-.6913,2.6365q16.0356-11.8481,32.2695-23.4271c21.0163-15.0622,42.173-29.9516,63.7434-44.2126,10.4707-6.9226,21.03-13.7646,31.96-19.9459a1.8854,1.8854,0,0,0,.9544-1.6639l-3.3009-30.668-6.8565-63.7028-5.843-54.2856q-.5566-5.1726-1.1134-10.3452a175.1155,175.1155,0,0,1,.6806-41.2139l6.89-53.0385.195-1.5014-1.4147,1.8582,39.7409-14.03L330.83,355.0321l14.4055-5.0859c2.323-.82,1.3228-4.5451-1.0245-3.7164L304.47,360.26l-63.257,22.3328-14.4055,5.0858a2.041,2.041,0,0,0-1.4147,1.8582l-6.5053,50.0755c-1.6066,12.3674-2.6671,24.6979-1.96,37.1944.2834,5.0079.861,9.9871,1.3975,14.9718l5.4153,50.3128,6.954,64.608,2.6526,24.6449.8673,8.0579a32.5764,32.5764,0,0,0,.466,4.33,4.2139,4.2139,0,0,1,.06.56l.9544-1.6639c-21.0364,11.8965-40.9987,25.7954-60.8417,39.5536q-28.1342,19.5072-55.7754,39.7154-5.6885,4.1436-11.3556,8.3165a1.963,1.963,0,0,0-.6914,2.6366l20.617,31.1843,32.7048,49.4681,7.529,11.3882a1.9569,1.9569,0,0,0,2.6366.6913L193.9864,810.51l46.7156-30.004,34.4333-22.1154c17.8348-11.4548,33.5223-25.4442,46.0925-42.5859a162.8748,162.8748,0,0,0,20.5349-37.637,160.9657,160.9657,0,0,0,6.4861-20.9485c1.2941-5.4738,2.8-11.3643,3.058-17,.0925-2.0219-.1191-4.1046-.1777-6.1258l-.4262-14.6887-1.3686-47.1669L347.68,515.223l-1.4612-50.3593-.7892-27.1984-.0362-1.2482c-.0718-2.4747-3.9262-2.4851-3.8541,0Z"/><path class="cls-3" d="M492.4738,905.5082c.6526,7.9724-7.2426,8.4229-15.2065,9.1715s-8.6854-6.9257-16.6494-6.1771-7.2415,8.4228-15.2043,9.1713-8.6839-6.9258-16.6464-6.1774-7.2412,8.4228-15.2038,9.1713-8.6838-6.9258-16.6463-6.1774-7.24,8.4227-15.2017,9.1711-8.6827-6.926-16.644-6.1776a9.5765,9.5765,0,0,0-6.6986,3.5558,5.46,5.46,0,0,1-9.4569-3.0963L346.51,896.0172l140.547-12.1232S491.5938,894.7573,492.4738,905.5082Z"/><path d="M490.5468,905.5082A5.3413,5.3413,0,0,1,489.52,909.61a7.4745,7.4745,0,0,1-3.6979,1.9319,33.258,33.258,0,0,1-5.4158.9111c-1.8573.1928-3.9092.6166-5.7568.1968-2.923-.6641-4.8574-3.1684-7.3683-4.6147a11.8718,11.8718,0,0,0-10.9324-.329c-2.848,1.3552-4.4046,4.0578-6.6478,6.1181a7.7941,7.7941,0,0,1-8.6721,1.1747c-2.69-1.43-4.6528-3.8132-7.5742-4.88a11.6669,11.6669,0,0,0-10.729,1.6989c-2.3246,1.7836-3.7676,4.6336-6.3538,6.07a8.08,8.08,0,0,1-8.7813-.906c-2.69-1.96-4.9421-3.9982-8.3983-4.3957a11.811,11.811,0,0,0-9.8253,3.5534c-2.0713,2.1123-3.61,4.6964-6.6731,5.4231-3.2965.7821-5.74-.617-8.23-2.5842-2.8612-2.26-5.839-3.8-9.6056-3.3971a11.4646,11.4646,0,0,0-6.0754,2.4154c-1.2427.989-2.182,2.6066-3.859,2.8686a3.6631,3.6631,0,0,1-3.35-1.2914,3.9261,3.9261,0,0,1-.7583-1.835c.0812.4406.0084.0247-.0046-.0824-.2229-1.8453-.4056-3.6964-.6083-5.544l-1.6519-15.055-.1141-1.04-1.927,1.9271,14.0793-1.2145,33.5368-2.8928,40.5265-3.4957,35.0481-3.0231,11.6266-1.0029a54.6229,54.6229,0,0,0,5.4983-.4743,2.2825,2.2825,0,0,1,.2314-.02l-1.8582-1.4148a71.99,71.99,0,0,1,5.3479,21.1019c.2123,2.4523,4.0684,2.4747,3.8541,0a75.1559,75.1559,0,0,0-5.4856-22.1264,1.9878,1.9878,0,0,0-1.8582-1.4148l-14.0794,1.2144-33.5367,2.8928L398.9144,889.57l-35.0481,3.0232c-5.7067.4922-11.4245.9146-17.1249,1.4771-.077.0076-.1542.0133-.2313.02-.9488.0818-2.0485.8205-1.9271,1.927l1.3922,12.6876.8228,7.4983c.2331,2.1248.44,4.1509,1.8765,5.8846a7.4328,7.4328,0,0,0,10.007,1.24c1.54-1.1527,2.5425-2.75,4.4181-3.4526a8.1139,8.1139,0,0,1,5.634-.053c2.7586,1.0634,4.6482,3.6187,7.347,4.8275a11.6981,11.6981,0,0,0,11.2744-1.0057c2.4923-1.79,3.977-4.775,6.6385-6.3066,2.9768-1.713,6.3672-1.0322,8.9972.9129,2.8219,2.0869,5.2229,4.1558,8.905,4.3781a12.0114,12.0114,0,0,0,9.731-4.1544c2.1822-2.3946,3.9756-4.8611,7.4923-5.0787,3.4581-.2139,5.5834,1.85,8.1759,3.7716a11.9475,11.9475,0,0,0,10.5738,2.0071c3.4267-.9854,5.3412-3.5605,7.6646-6.0274a8.0269,8.0269,0,0,1,8.7482-2.3058c2.9138,1.1226,4.9,3.8232,7.81,5.0215,3.639,1.4987,8.0781.5846,11.8409-.0016,3.4959-.5445,7.4236-1.66,9.357-4.9a9.381,9.381,0,0,0,1.1117-5.4528C494.2357,903.0465,490.38,903.0282,490.5468,905.5082Z"/><path class="cls-3" d="M388.891,889.1374l-56.2153-16.73a7.9751,7.9751,0,0,1-3.9483-12.0429h0a6.7367,6.7367,0,0,1,8.3784-4.5352l56.2154,16.73Z"/><path d="M389.4033,887.2792l-21.9246-6.5249-30.912-9.2c-1.027-.3056-2.0558-.6058-3.0812-.9169A5.9362,5.9362,0,0,1,329.69,862.7a19.4685,19.4685,0,0,1,1.3845-2.9158,4.8565,4.8565,0,0,1,4.6906-2.2837,15.0063,15.0063,0,0,1,2.3.6254l28.5506,8.4968L383.11,871.531c3.0749.9151,6.1409,1.9548,9.2489,2.7525.1511.0388.3.0894.45.1339l-1.3459-2.37-4.43,16.5782c-.641,2.3988,3.0757,3.4222,3.7164,1.0245l4.43-16.5781a1.9624,1.9624,0,0,0-1.3459-2.37l-22.983-6.84L339.93,854.6589c-.7607-.2264-1.5187-.4691-2.284-.68a8.7666,8.7666,0,0,0-10.2153,4.4514c-1.0641,2.192-2.2254,4.5536-2.0013,7.1914a10.12,10.12,0,0,0,2.9172,6.3,10.4212,10.4212,0,0,0,4.5653,2.5658l28.0779,8.3562c8.9676,2.6688,17.9052,5.4883,26.9155,8.01.1585.0444.3158.094.4736.1409C390.761,891.7045,391.7787,887.9861,389.4033,887.2792Z"/><circle cx="389.2515" cy="880.6659" r="13.0782"/><path d="M400.3069,882.2221a11.38,11.38,0,0,1-8.8548,9.3829,11.1546,11.1546,0,1,1,8.8548-9.3829,1.9935,1.9935,0,0,0,1.3459,2.37,1.94,1.94,0,0,0,2.37-1.3459,14.9916,14.9916,0,0,0-24.58-13.9278,15,15,0,1,0,24.58,13.9278C404.4449,880.8209,400.7315,879.7792,400.3069,882.2221Z"/><path d="M295.6714,793.8206l12.2564-1.092,29.437-2.6227,35.619-3.1735,30.8023-2.7443c4.9942-.445,9.9989-.8263,14.9871-1.3353.0711-.0073.1425-.0127.2137-.019,2.4509-.2184,2.4739-4.0745,0-3.8541l-12.2565,1.092-29.437,2.6227-35.6189,3.1735-30.8024,2.7443c-4.9942.445-9.9989.8263-14.9871,1.3353-.0711.0072-.1424.0127-.2136.019-2.4509.2184-2.4739,4.0745,0,3.8541Z"/><path d="M232.37,622.2587l2.0251,16.8137,3.2256,26.7808.7375,6.1228a1.9872,1.9872,0,0,0,1.927,1.927,1.9387,1.9387,0,0,0,1.927-1.927l-2.0251-16.8137-3.2256-26.7808-.7375-6.1228a1.9872,1.9872,0,0,0-1.927-1.927,1.9387,1.9387,0,0,0-1.927,1.927Z"/><path d="M194.1772,808.1949l-6.09-9.2867-14.6978-22.411-17.7172-27.015L140.35,726.1205c-2.4887-3.7948-4.8978-7.6585-7.4734-11.3954-.0354-.0514-.0685-.1045-.1028-.1567-1.3547-2.0657-4.6934-.1369-3.3278,1.9452l6.09,9.2868,14.6978,22.4109,17.7172,27.0151,15.3214,23.3617c2.4887,3.7948,4.8978,7.6585,7.4734,11.3953.0354.0514.0685.1046.1027.1567,1.3548,2.0658,4.6934.137,3.3279-1.9452Z"/><path d="M728.0189,921.6877c-.0343-4.9023-1.7176-9.92-6.8083-11.5-3.5375-1.0983-7.5245-.4143-10.9808.6715a24.8969,24.8969,0,0,0-2.6716.9916l1.4154,1.0881c.94-3.6172-1.0979-7.5463-3.741-9.8853a17.35,17.35,0,0,0-20.1255-2.3653,17.0236,17.0236,0,0,0-4.2591,3.3086l1.61.9374a15.3105,15.3105,0,0,0-5.0847-17.989c-3.3772-2.4251-7.5431-3.5724-11.5974-4.2083v1.8582c5.4-1.5588,10.9489-3.5789,15.3845-7.1326,2.583-2.0694,4.8286-4.9606,4.9195-8.4011.2005-7.5946-8.9088-11.9223-14.9366-13.8381a60.6917,60.6917,0,0,0-19.1313-2.538l.6813,1.6448c7.5135-6.1138,15.06-12.6927,20.7326-20.617,2.4175-3.3773,5.5212-8.2179,4.3766-12.6144-.8992-3.4537-4.48-4.66-7.6953-4.7628-5.1571-.1644-10.358,1.7065-14.9778,3.8154a79.077,79.077,0,0,0-20.8085,14.3056l1.61.9374c3.9123-12.2234,7.3507-24.9691,8.0023-37.8507a45.25,45.25,0,0,0-.6589-11.4969,14.6862,14.6862,0,0,0-2.9768-6.746c-2.9778-3.4013-7.3323-2.3-10.4866.2031-5.3528,4.2481-8.5734,11.1239-10.98,17.3386-4.0769,10.5266-6.0524,21.8415-6.9641,33.0552q-.2129,2.6175-.341,5.2406l1.8926-.2561c-1.5315-6.0075-4.3008-12.4132-9.8073-15.7869a11.71,11.71,0,0,0-6.63-1.93c-4.9846.3875-9.3086,4.5215-10.5139,9.2228-1.8368,7.1645,1.417,14.9778,4.5421,21.2747l.832-1.45c-7.2253.4957-16.2269,2.1835-20.1682,9.0637-2.1786,3.8032-2.17,8.4226-1.0135,12.55a17.9883,17.9883,0,0,0,1.0794,2.96l.5758-1.4154a44.6159,44.6159,0,0,0-8.7474,2.9871c-5.3918,2.3944-10.5484,5.8266-13.9785,10.7118a20.75,20.75,0,0,0-3.6752,10.3546c-.0974,1.2365,1.83,1.23,1.9271,0,.91-11.5532,12.048-18.31,22.0916-21.4115.9533-.2944,1.9178-.5768,2.8947-.7838a.9759.9759,0,0,0,.5758-1.4154,1.3244,1.3244,0,0,1-.0595-.1287c-.1207-.341-.01-.0075-.1037-.2418-.19-.4783-.365-.9619-.52-1.4528a18.9082,18.9082,0,0,1-.897-4.8332,12.2586,12.2586,0,0,1,6.19-11.4733c4.1351-2.4417,9.1111-3.221,13.8288-3.5447a.9771.9771,0,0,0,.832-1.45c-3.54-7.1338-8.8364-20.3409.0658-25.9536a10.9427,10.9427,0,0,1,4.4083-1.6668c-.5183.07.6159.0277.8116.0431a11.0212,11.0212,0,0,1,3.3794.9452c5.9,2.7507,8.71,9.4062,10.2214,15.3367a.9681.9681,0,0,0,1.8926-.2561,128.503,128.503,0,0,1,5.7829-33.7149c2.1969-6.6736,5.1482-13.7937,10.1274-18.9125a11.677,11.677,0,0,1,4.9713-3.3213,4.2179,4.2179,0,0,1,3.8357.7233,9.9914,9.9914,0,0,1,2.8969,5.1964,35.5043,35.5043,0,0,1,1.0208,9.9094c-.1467,11.6325-3.0218,23.247-6.3078,34.3372q-.8217,2.7729-1.7069,5.5263a.9711.9711,0,0,0,1.61.9374,80.1586,80.1586,0,0,1,17.6084-12.6332c4.5509-2.3619,9.6135-4.4527,14.778-4.8672,2.752-.2209,6.4591.0047,7.6689,2.6736,1.4574,3.215-1.31,7.7848-3.1281,10.52-5.557,8.3573-13.5648,15.1771-21.28,21.4551-.6653.5414-.1008,1.655.6813,1.6448,9.17-.1189,19.75,1.1055,27.3713,6.7087,2.1851,1.6065,4.3349,3.8831,4.7192,6.6844.3964,2.89-1.33,5.4323-3.3682,7.2951-4.2278,3.8638-10.0739,5.8785-15.4707,7.4364-.8454.2441-.9871,1.7034,0,1.8582,5.6416.8848,12.0412,2.8834,14.9055,8.2832a14.0142,14.0142,0,0,1,1.0249,9.4714,13.1793,13.1793,0,0,1-.5942,2.0722c-.3577.9.9956,1.6288,1.61.9375a15.6458,15.6458,0,0,1,10.0832-4.9934c5.6667-.436,13.2643,3.0127,14.72,8.9891a7.9548,7.9548,0,0,1,.209,2.2578,2.4147,2.4147,0,0,1-.107.8136.9764.9764,0,0,0,1.4154,1.0881c.0368-.0163.0736-.0347.1114-.0482-.3337.1192.0674-.0275.1847-.0728.4347-.1681.8709-.3307,1.3125-.48a27.5614,27.5614,0,0,1,4.1766-1.0694c3.2356-.5522,7.1081-.4527,9.4881,2.1345,1.8839,2.0478,2.2692,5.0441,2.2878,7.709a.9641.9641,0,0,0,1.927,0Z"/><path d="M601.9122,883.9221a40.1161,40.1161,0,0,1,1.9992-5.11c1.3546-2.9133,3.0229-6.0073,5.5613-8.0629,2.2285-1.8046,5.7638-2.1539,7.4728.59,1.7108,2.7471.7056,6.74-.1364,9.6069a38.6449,38.6449,0,0,1-2.65,6.7362c-.34.6631.2463,1.7586,1.0881,1.4154a21.2834,21.2834,0,0,1,5.9282-1.4358,13.5645,13.5645,0,0,1,5.3856.43c.9865.312,2.744.9414,2.95,2.1579.3059,1.8055-2.2163,3.706-3.4116,4.66a27.7369,27.7369,0,0,1-3.59,2.4325.9742.9742,0,0,0,0,1.6639,10.0147,10.0147,0,0,1,2.5152,2.3949,5.0316,5.0316,0,0,1,.1409,6.2926c-.708,1.0217.9616,1.9861,1.6639.9726,2.8709-4.1427.4874-8.8311-3.3473-11.324v1.6639c2.705-1.5355,5.9171-3.6605,7.3952-6.4789a3.6708,3.6708,0,0,0-1.01-4.9226c-2.4651-1.8527-5.88-2.16-8.85-1.8535a23.0242,23.0242,0,0,0-6.2817,1.4882l1.0881,1.4154a41.7168,41.7168,0,0,0,2.7048-6.7339c1.0486-3.4,2.0033-7.6487.3695-11.0206a6.581,6.581,0,0,0-8.5684-2.9295c-3.3234,1.4719-5.54,4.9356-7.1729,8.031a43.2057,43.2057,0,0,0-3.1021,7.408c-.3648,1.1882,1.4947,1.6962,1.8582.5123Z"/><rect class="cls-3" x="476.2927" y="224.3197" width="498.7073" height="17.5826" rx="8.7913"/><path d="M966.2087,239.9753H499.1353c-4.6631,0-9.38.2075-14.04,0-8.8708-.395-8.89-13.3554-.01-13.7286.3159-.0132.6348.0013.9509,0,2.2954-.0094,4.5911,0,6.8866,0H965.18c.338,0,.68-.0139,1.0173,0,8.8768.3666,8.8826,13.387.011,13.7286-2.4721.0952-2.4845,3.95,0,3.8541,8.0126-.3085,13.47-8.9291,9.255-16.1281a11.022,11.022,0,0,0-9.4888-5.3086c-1.78-.0445-3.5661,0-5.346,0H505.9759c-6.6871,0-13.3751-.0337-20.0622,0-.506.0025-1.0112-.01-1.5167.0264-8.048.5751-12.7664,9.8893-8.2213,16.6464,2.6359,3.9189,6.757,4.7639,11.0489,4.7639H966.2087C968.6886,243.8294,968.6927,239.9753,966.2087,239.9753Z"/><circle class="cls-6" cx="734.4377" cy="233.111" r="31.1692"/><path d="M763.68,233.111a29.1194,29.1194,0,1,1-.3287-4.4762,29.2161,29.2161,0,0,1,.3287,4.4762c.0136,2.4792,3.8677,2.4845,3.854,0a33.1564,33.1564,0,1,0-.4393,5.3327,35.9879,35.9879,0,0,0,.4393-5.3327C767.5476,230.6306,763.6935,230.6277,763.68,233.111Z"/><rect class="cls-3" x="476.2927" y="330.6147" width="498.7073" height="17.5826" rx="8.7913"/><path d="M966.2087,346.27H499.1353c-4.6631,0-9.38.2075-14.04,0-8.8708-.395-8.89-13.3554-.01-13.7286.3159-.0133.6348.0013.9509,0,2.2954-.0094,4.5911,0,6.8866,0H965.18c.338,0,.68-.0139,1.0173,0,8.8768.3665,8.8826,13.387.011,13.7286-2.4721.0951-2.4845,3.95,0,3.854,8.0126-.3084,13.47-8.929,9.255-16.1281a11.0222,11.0222,0,0,0-9.4888-5.3086c-1.78-.0444-3.5661,0-5.346,0H505.9759c-6.6871,0-13.3751-.0336-20.0622,0-.506.0026-1.0112-.01-1.5167.0265-8.048.5751-12.7664,9.8893-8.2213,16.6464,2.6359,3.9189,6.757,4.7638,11.0489,4.7638H966.2087C968.6886,350.1243,968.6927,346.27,966.2087,346.27Z"/><circle class="cls-6" cx="868.705" cy="339.406" r="31.1692"/><path d="M897.9472,339.406a29.1194,29.1194,0,1,1-.3287-4.4762,29.2034,29.2034,0,0,1,.3287,4.4762c.0137,2.4792,3.8678,2.4845,3.8541,0a33.1572,33.1572,0,1,0-.4394,5.3327,36.0015,36.0015,0,0,0,.4394-5.3327C901.8149,336.9256,897.9609,336.9226,897.9472,339.406Z"/><rect class="cls-3" x="476.2927" y="455.2915" width="498.7073" height="17.5826" rx="8.7913"/><path d="M966.2087,470.9471H499.1353c-4.6631,0-9.38.2075-14.04,0-8.8708-.395-8.89-13.3554-.01-13.7286.3159-.0133.6348.0013.9509,0,2.2954-.0094,4.5911,0,6.8866,0H965.18c.338,0,.68-.0139,1.0173,0,8.8768.3666,8.8826,13.387.011,13.7286-2.4721.0952-2.4845,3.95,0,3.854,8.0126-.3084,13.47-8.929,9.255-16.1281a11.0221,11.0221,0,0,0-9.4888-5.3085c-1.78-.0445-3.5661,0-5.346,0H505.9759c-6.6871,0-13.3751-.0337-20.0622,0-.506.0025-1.0112-.01-1.5167.0264-8.048.5751-12.7664,9.8893-8.2213,16.6464,2.6359,3.9189,6.757,4.7638,11.0489,4.7638H966.2087C968.6886,474.8011,968.6927,470.9471,966.2087,470.9471Z"/><circle class="cls-6" cx="765.6069" cy="464.0828" r="31.1692"/><path d="M794.8491,464.0828a29.1194,29.1194,0,1,1-.3287-4.4762,29.2161,29.2161,0,0,1,.3287,4.4762c.0136,2.4792,3.8677,2.4845,3.854,0a33.1564,33.1564,0,1,0-.4393,5.3327,35.9879,35.9879,0,0,0,.4393-5.3327C798.7168,461.6024,794.8627,461.6,794.8491,464.0828Z"/><path class="cls-2" d="M292.581,206.6025h56.3761a34.9527,34.9527,0,0,1,25.3754,10.9157L486.5793,336.0161,607.993,222.814l43.99,48.6828L533.606,380.9a72.0072,72.0072,0,0,1-92.1077,4.7009L310.6175,278.5353"/><path d="M292.581,208.53H343.14c1.939,0,3.8784-.013,5.8173,0A33.503,33.503,0,0,1,372.97,218.8808c1.95,2.0311,3.8731,4.0887,5.8093,6.1328l35.8938,37.8927,44.96,47.4635c8.3921,8.8594,16.5791,17.985,25.21,26.6137.1282.1282.25.2637.3744.3953a1.96,1.96,0,0,0,2.7252,0l12.11-11.2911,28.9442-26.9867,35.1354-32.7591,30.2632-28.2163,10.0416-9.3625a48.2088,48.2088,0,0,0,4.7035-4.3854,2.2012,2.2012,0,0,1,.2156-.2011H606.63l14.886,16.4739,23.6172,26.1364,5.4872,6.0725v-2.7252l-15.5727,14.3921-35.46,32.7717-38.82,35.8768-25.6516,23.7069a102.5967,102.5967,0,0,1-8.7674,7.5394,69.9907,69.9907,0,0,1-86.0777-2.3012l-25.4943-20.8552L374.3627,328.204l-39.047-31.9419L313.0209,278.024l-1.0408-.8513c-1.9045-1.558-4.6469,1.1532-2.7252,2.7252l15.9655,13.06L362.25,323.25l41.6666,34.0849,30.2566,24.7511c1.9363,1.5839,3.8556,3.192,5.81,4.7531a71.1174,71.1174,0,0,0,30.3737,13.7037,74.82,74.82,0,0,0,64.95-18.5929q9.7118-8.9619,19.41-17.9384l37.198-34.378,38.2389-35.34,22.13-20.4525,1.0619-.9813a1.9614,1.9614,0,0,0,0-2.7252L638.46,253.66,614.8429,227.524l-5.4873-6.0726a1.9566,1.9566,0,0,0-2.7252,0l-12.11,11.2911L565.576,259.7291l-35.1354,32.7591-30.2631,28.2164-10.0417,9.3625a48.208,48.208,0,0,0-4.7035,4.3854,2.2,2.2,0,0,1-.2156.201h2.7252L466.66,312.1868l-44.1844-46.645-38.5576-40.7049q-3.9963-4.2189-7.9929-8.438c-7.5685-7.9531-17.6084-11.7234-28.47-11.7234H292.581c-2.48,0-2.484,3.8541,0,3.8541Z"/><path class="cls-4" d="M355.65,206.6324a42.7054,42.7054,0,0,1,32.4715,14.9681l91.1,106.6487,7.3571,7.7669,60.1136-56.0479c4.4778,8.6175,13.1512,19.9391,24.3594,31.1472,8.9945,8.9945,37.1364,21.33,44.8219,26.2031l-69.4467,70.078c-33.4607,23.9907-70.8062,11.08-98.6157-9.8l-17.054-14.755-78.7811-60.0433L313.4653,206.6324Z"/><path d="M355.65,208.56a41.3469,41.3469,0,0,1,31.129,14.4273c1.2757,1.4811,2.5393,2.9726,3.8088,4.4589l22.4479,26.2791,30.9367,36.2168,25.8939,30.3133c4.2807,5.0113,8.5379,9.9325,13.07,14.7167l2.28,2.4071a1.96,1.96,0,0,0,2.7252,0l20.2729-18.9017,32.4317-30.2382,7.409-6.9079-3.0265-.39a105.43,105.43,0,0,0,11.5445,16.9974c2.6308,3.2667,5.3909,6.4288,8.2492,9.498a73.69,73.69,0,0,0,7.0891,7.03c8.83,7.213,19.5263,12.2267,29.62,17.3862,4.4814,2.2908,9.1051,4.4457,13.37,7.13l-.39-3.0265-11.7409,11.8476-25.3194,25.55-24.0428,24.2613-6.8668,6.9292c-3.2025,3.2316-7.3544,5.4028-11.4134,7.399a63.8887,63.8887,0,0,1-29.9061,6.453,82.8475,82.8475,0,0,1-29.13-6.58,124.3141,124.3141,0,0,1-26.36-15.1778c-3.648-2.6941-7.0929-6.0583-10.5624-9.06-4.1478-3.5886-8.2691-7.0328-12.6241-10.3519l-24.4492-18.6341-29.7814-22.698L353.8481,321.819l-.8989-.6851.8856,1.1516-3.8483-11.6081-9.19-27.72-11.11-33.5118-9.6084-28.9829-3.1823-9.5988a37.1826,37.1826,0,0,0-1.5034-4.5349,1.7174,1.7174,0,0,1-.0691-.2087l-1.8582,2.4394H355.65c2.48,0,2.484-3.8541,0-3.8541H313.4653a1.9433,1.9433,0,0,0-1.8582,2.4393l8.8505,26.6967,17.2077,51.9051,11.9272,35.9772a5.31,5.31,0,0,0,1.4154,2.741c.695.59,1.46,1.1128,2.1847,1.6651l13.9084,10.6,43.1081,32.8549,15.7033,11.9683q1.7646,1.3451,3.5293,2.69c.6953.5281-.1574-.1692.095.0829.8342.8333,1.805,1.5617,2.6964,2.3329,6.1629,5.3321,12.1325,10.991,18.8278,15.656,12.1594,8.4722,25.8481,15.3,40.4357,18.3075a70.5773,70.5773,0,0,0,43.9543-4.58,71.8824,71.8824,0,0,0,11.04-6.34,12.8242,12.8242,0,0,0,1.637-1.2843c1.09-1.0525,2.136-2.1553,3.2025-3.2316l33.52-33.8249,30.6652-30.944,1.7212-1.7368a1.9513,1.9513,0,0,0-.39-3.0265c-3.5441-2.231-7.3581-4.0577-11.0824-5.9615-5.2431-2.68-10.4925-5.3505-15.6542-8.1856a121.7333,121.7333,0,0,1-14.18-8.76,49.501,49.501,0,0,1-5.9935-5.5169q-4.2909-4.4472-8.2875-9.1668a107.0076,107.0076,0,0,1-13.2922-19.0678,1.9478,1.9478,0,0,0-3.0265-.39l-20.2728,18.9017-32.4317,30.2382-7.4091,6.9079h2.7252c-4.581-4.8361-8.9875-9.6755-13.3087-14.7341l-24.7273-28.9477-31.228-36.5577-23.9949-28.09q-2.4885-2.9133-4.9771-5.8266a45.0235,45.0235,0,0,0-24.5709-14.77,46.31,46.31,0,0,0-9.4845-1.0216C353.17,204.6915,353.1671,208.5455,355.65,208.56Z"/><path d="M615.9174,337.6775c-2.7494,2.7494-9.952.4756-19.12-5.3372l13.2541-14.613C616.2582,327.2913,618.75,334.8452,615.9174,337.6775Z"/><path d="M614.5548,336.3149c-.3415.3274.1569-.0021-.2841.2221-.0858.0436-.1712.0925-.2555.1392-.3983.2207.23-.0677-.0232.007-.2567.0757-.5046.1453-.7677.1972-.29.0571.461-.022-.0773.0069-.1188.0064-.2372.016-.3561.02a11.1387,11.1387,0,0,1-3.879-.6549,47.4687,47.4687,0,0,1-11.1419-5.5761l.39,3.0266,11.5917-12.78,1.6624-1.8329-3.0265-.39a50.4858,50.4858,0,0,1,6.0143,11.676,19.441,19.441,0,0,1,.599,2.3,7.3892,7.3892,0,0,1,.151,1.6767c-.0014.1485-.0079.2963-.0156.4446-.0028.0536-.0631.5194-.02.2481a5.8188,5.8188,0,0,0-.155.5932c-.0489.2141-.1027.259.0084.0248-.0514.1084-.1054.2147-.165.3188-.0585.1023-.123.2-.19.2969.1759-.2522.0935-.1239-.0595.0356-1.7176,1.79,1.0039,4.519,2.7252,2.7252,2.3011-2.398,1.8957-6.0334,1.057-8.9693-1.36-4.761-3.9535-9.1862-6.6216-13.3161a1.9479,1.9479,0,0,0-3.0265-.39l-11.5917,12.78-1.6625,1.8328a1.956,1.956,0,0,0,.39,3.0266c3.9648,2.5017,8.2241,4.9456,12.7849,6.1734,2.8686.7721,6.3484,1.0889,8.67-1.1375C619.0738,337.32,616.3461,334.5972,614.5548,336.3149Z"/><path class="cls-2" d="M558.7421,268.7339l49.2508-45.92,43.9905,48.6827-41.9319,46.2306L596.7974,332.34a157.4813,157.4813,0,0,1-25.7452-21.2249c-11.2082-11.2081-19.8816-22.53-24.3594-31.1472Z"/><path d="M560.1047,270.0965l16.6388-15.5135,26.5222-24.7284,6.09-5.6779H606.63l14.9081,16.4982L645.1908,266.85l5.43,6.0092v-2.7252l-21.8882,24.1321-20.3625,22.45-12.9354,14.2615,2.3353-.3013a145.7356,145.7356,0,0,1-22.2007-17.8381,171.0351,171.0351,0,0,1-20.0261-22.513,90.1539,90.1539,0,0,1-7.1865-11.33l-.3013,2.3353,12.0493-11.2344c1.818-1.6951-.9119-4.416-2.7252-2.7253L545.33,278.6056a1.9669,1.9669,0,0,0-.3013,2.3352c4.0609,7.7652,9.53,14.8181,15.2429,21.4265a187.0335,187.0335,0,0,0,23.12,22.5458,130.9637,130.9637,0,0,0,12.433,9.0911,1.9447,1.9447,0,0,0,2.3353-.3013L615.6682,314.4l29.2472-32.2454,8.4306-9.295a1.9758,1.9758,0,0,0,0-2.7252l-14.9081-16.4983-23.6523-26.1751-5.43-6.0093a1.9566,1.9566,0,0,0-2.7252,0l-16.6388,15.5135-26.5222,24.7284-6.09,5.6779C555.5615,269.0663,558.2913,271.7872,560.1047,270.0965Z"/><path class="cls-2" d="M625.9754,300.07l25.861-28.9479,17.01-47.51s43.4039,5.2788,36.3654-28.74-58.0674-34.6058-72.1443-9.9711c-5.7424,10.0491-10.9968,18.2438-15.2057,24.4248a128.2015,128.2015,0,0,1-18.7372,21.798l-10.3483,9.6079"/><path d="M627.338,301.4324,638.36,289.0946l14.1326-15.82a7.7321,7.7321,0,0,0,1.5968-2.7442l2.5361-7.0835,8.3487-23.3187,3.6889-10.3034c.6426-1.7949,1.45-3.6045,1.95-5.4459.0234-.0861.0611-.1707.0913-.2548l-1.8582,1.4147a53.6214,53.6214,0,0,0,7.8917.2707,48.3927,48.3927,0,0,0,16.2993-2.9275c5.84-2.2949,10.8259-6.21,13.2559-12.1311,3.0227-7.366,1.6081-16.3445-1.4877-23.4451-6.4322-14.7532-22.6765-21.7747-38.0654-21.5141a48.1957,48.1957,0,0,0-22.1192,5.5949,35.9534,35.9534,0,0,0-8.62,6.4672c-3.3746,3.4775-5.5257,7.7487-7.98,11.88-6.4079,10.7875-13.1277,21.5876-21.46,31.0112-5.3884,6.094-11.4738,11.4992-17.4266,17.026l-1.7208,1.5978c-1.8216,1.6912.9086,4.4118,2.7253,2.7252,3.8339-3.56,7.7071-7.0813,11.497-10.688,9.0857-8.6467,16.4577-18.6182,23.1947-29.15,3.4829-5.4447,6.7447-11.0109,10.0163-16.5832a27.9176,27.9176,0,0,1,6.436-7.4494c5.3073-4.3815,12.1384-6.9332,18.9588-8.0286,13.5627-2.1781,29.7252,1.6638,38.0605,13.41,4.2639,6.0087,6.5913,14.255,5.5587,21.4447a16.4193,16.4193,0,0,1-3.2808,8.038c.137-.179-.3073.3718-.4136.4951q-.3685.4276-.7635.8317a19.2312,19.2312,0,0,1-1.5148,1.3917c-.1439.1189-.289.2368-.4369.3507.2347-.1808-.0179.0092-.0561.0374q-.4512.3324-.9187.6421-.8589.5686-1.7659,1.06a29.4192,29.4192,0,0,1-7.46,2.7529,42.6345,42.6345,0,0,1-7.4681,1.1488,60.8384,60.8384,0,0,1-10.3886-.0561c-.1827-.0174-.3655-.0348-.5477-.0569a1.9469,1.9469,0,0,0-1.8582,1.4148l-5.73,16.0042-9.1814,25.6444-2.0984,5.8611.4956-.85-22.6864,25.3944-3.1746,3.5536c-1.648,1.8447,1.0687,4.5795,2.7252,2.7252Z"/><path class="cls-2" d="M704.0384,192.5256s1.2958-16.7218-14.0156-17.7455-32.321,3.082-48.7441,23.0243"/><path d="M705.9655,192.5256c.5089-6.7642-2.4306-14.5689-8.6912-17.778a20.699,20.699,0,0,0-8.71-1.976,57.6509,57.6509,0,0,0-8.9418.2726,52.8755,52.8755,0,0,0-18.5949,5.6149c-8.2412,4.2816-15.2221,10.6689-21.1114,17.7827a1.9844,1.9844,0,0,0,0,2.7253,1.9405,1.9405,0,0,0,2.7252,0c8.9831-10.8508,20.457-19.5433,34.6036-21.9337a51.0391,51.0391,0,0,1,8.2248-.6692,26.7346,26.7346,0,0,1,8.1.8035,11.794,11.794,0,0,1,7.6337,8.0276,17.7713,17.7713,0,0,1,.8958,4.8719,16.97,16.97,0,0,1,.0122,2.2584c-.1861,2.4739,3.6688,2.462,3.8541,0Z"/><path class="cls-2" d="M648.9037,208.9487s7.0385-5.8654,21.702-16.4231c28.74-21.1154,62.1732,9.3846,62.1732,9.3846,12.9038,5.8654,1.1731,19.9424-13.49,12.3173s-28.1539-14.0769-42.2309,0,7.7079,23.6933,22.2885,28.74c15.25,5.2788,10.5577,18.1827-7.625,15.8365a58.18,58.18,0,0,0-6.5562-.4719,47.2378,47.2378,0,0,0-32.6912,12.7086L625.9754,300.07"/><path d="M650.2664,210.3113c2.1016-1.75,4.2695-3.4242,6.4377-5.09q4.25-3.2647,8.5675-6.4389a104.1862,104.1862,0,0,1,10.4556-7.2758c11.4-6.412,24.7364-5.2489,36.4254-.2655a75.7736,75.7736,0,0,1,13.1663,7.33q1.1622.8,2.2965,1.639.4915.3639.9773.7356a1.6252,1.6252,0,0,1,.1394.1075q.2169.17.4331.34c.705.5588,1.3875,1.1413,2.0743,1.7217,1.39,1.1748,3.2406,1.6946,4.3311,3.1825a3.79,3.79,0,0,1,.082,4.6607C732.7,215.6,725.2782,215.0115,720.8,212.834c-6.868-3.34-13.639-7.2916-21.3068-8.4645a25.9313,25.9313,0,0,0-10.7654.45,28.11,28.11,0,0,0-10.6156,5.8215c-4.6414,3.9015-9.2809,9.7471-6.8564,16.1482,2.0844,5.5027,7.611,9.0927,12.58,11.7378a89.13,89.13,0,0,0,9.125,4.133c2.9425,1.1638,6.1126,1.9781,8.9011,3.4854a12.59,12.59,0,0,1,3.0453,2.2012,6.1607,6.1607,0,0,1,1.4413,2.1654c.0652.2021.1159.4058.1654.6123.1022.4262.027-.0525.04.2706.0079.2017.0067.401.0017.6025-.0015.0593-.0449.4164-.0092.169.037-.2556-.06.2484-.0595.248a3.8075,3.8075,0,0,1-1.0038,1.7909c-1.5021,1.58-3.9792,2.3913-6.2877,2.7409-3.856.5841-7.6744-.2219-11.52-.4473a49.3078,49.3078,0,0,0-24.3867,4.8346,42.9975,42.9975,0,0,0-13.0075,9.2534l-7.0071,7.6762L625.7517,297.46l-1.1389,1.2476c-1.6693,1.8287,1.0487,4.5618,2.7252,2.7252l14.1748-15.5283,9.2026-10.0814a47.973,47.973,0,0,1,6.5193-6.28,45.5038,45.5038,0,0,1,23.0052-9.0914c4.4827-.4181,8.8081.1177,13.2666.4653a23.769,23.769,0,0,0,9.9776-1.0844c4.3184-1.5962,8.2628-5.5748,6.5206-10.52-2.0964-5.95-8.9618-7.6868-14.2148-9.6717-5.8986-2.2288-12.1648-4.8335-16.972-9.0193a12.5548,12.5548,0,0,1-4.135-5.73,8.0351,8.0351,0,0,1,1.4939-6.651,26.1589,26.1589,0,0,1,9.2507-7.9836,20.46,20.46,0,0,1,10.13-2.4073c7.5827.1651,14.7315,3.8981,21.3195,7.2964,3.4431,1.7762,6.926,3.2245,10.8694,3.22a14.4575,14.4575,0,0,0,8.38-2.51,9.37,9.37,0,0,0,4.0314-6.1286,8.0611,8.0611,0,0,0-2.61-6.9706,13.2324,13.2324,0,0,0-1.8151-1.4248c-.3026-.2-.6148-.3857-.9329-.56-.1359-.0746-.9632-.3935-.6644-.2283a2.7989,2.7989,0,0,1-.4-.3522c-.8146-.7063-1.6571-1.38-2.5087-2.0411a82.6708,82.6708,0,0,0-11.1293-7.3126c-10.993-5.9864-23.8792-9.57-36.3345-6.6a38.85,38.85,0,0,0-9.9817,3.9417,107.0774,107.0774,0,0,0-10.7922,7.5241c-4.67,3.4469-9.3071,6.9449-13.8369,10.5747-.54.4327-1.08.8657-1.6118,1.3085-1.908,1.5886.8312,4.3022,2.7253,2.7252Z"/><path class="cls-1" d="M295.86,106.5249l1.191,100.1075s57.5612,6.6993,63.1333-24.622c0,0,3.7881-21.4653-13.8893-39.774,5.682-15.152,3.1567-32.198-6.3133-49.8754"/><path d="M293.9326,106.5249l.1188,9.9832.2837,23.8455L294.68,169.32l.2967,24.9463c.0483,4.0543-.0547,8.1433.1451,12.1938.0028.0572.0014.1149.0021.1722a1.9836,1.9836,0,0,0,1.927,1.9271,106.7369,106.7369,0,0,0,11.2562.5951,109.0862,109.0862,0,0,0,24.368-2.2579c8.1872-1.796,16.6558-5,22.5848-11.1554a26.1846,26.1846,0,0,0,7.1824-17.9249,51.5055,51.5055,0,0,0-10.7335-32.2312,57.9144,57.9144,0,0,0-4.0513-4.7114l.4956,1.8749c6.3725-17.2162,1.8476-35.6734-6.5076-51.36-1.1664-2.19-4.4945-.2452-3.3279,1.9452,7.9049,14.8414,12.1427,32.1168,6.1191,48.39a1.9107,1.9107,0,0,0,.4956,1.8749,48.4214,48.4214,0,0,1,13.65,32.0988,41.7336,41.7336,0,0,1-.11,4.4384c-.0353.4361-.0927.8694-.1333,1.3048.034-.365.0626-.3339-.0123.0514a22.478,22.478,0,0,1-4.5122,10.0887c-5.0422,6.1156-12.6256,9.259-20.2231,11.1459a98.0356,98.0356,0,0,1-23.4273,2.5786q-4.3.0177-8.5958-.2352c-1.4275-.085-2.8912-.337-4.3191-.3432a1.8548,1.8548,0,0,1-.1986-.0218l1.927,1.927-.1188-9.9832-.2836-23.8455-.3446-28.9665-.2968-24.9463c-.0483-4.0543.0547-8.1433-.1451-12.1938-.0028-.0572-.0014-.115-.002-.1722-.0295-2.4783-3.8837-2.485-3.8541,0Z"/><path class="cls-3" d="M348.8888,206.8141H257.8669c-11.6794,0-17.7811,5.1553-22.7943,23.4513,0,0-30.1792,140.2722-35.4581,201.0073,17.5962-20.245,181.2407-.2642,181.2407-.2642L353.7639,254.2207"/><path d="M348.8888,204.8871H265.007c-6.79,0-14.3171-.6926-20.1166,3.5153-6.2955,4.5678-9.1293,12.5328-11.2136,19.7113-.4217,1.4523-.7328,2.9-1.0471,4.3778q-2.2818,10.7274-4.49,21.47-3.8,18.4323-7.4387,36.8975-4.4464,22.5776-8.6046,45.2107c-2.8145,15.3922-5.51,30.8077-7.9644,46.2618-2.1475,13.52-4.1475,27.0765-5.63,40.6879q-.4489,4.1223-.8141,8.2531a1.9447,1.9447,0,0,0,3.29,1.3627,9.2465,9.2465,0,0,1,.7036-.7186c.13-.1191.2675-.2292.3991-.3462.4436-.394-.3111.1918.19-.1468a20.6893,20.6893,0,0,1,2.0609-1.2545c.3617-.1874.73-.36,1.1-.5308.1046-.0485.211-.0932.3164-.14.3866-.1721-.4235.1725-.0277.0107.2612-.1068.5228-.2121.7864-.3129.9757-.3729,1.9693-.6985,2.9715-.9922a86.3176,86.3176,0,0,1,15.3585-2.7657c14.7134-1.5526,29.6074-1.4857,44.38-1.1238,16.5815.4061,33.1478,1.3838,49.6854,2.6355q20.9252,1.5839,41.8006,3.7574,6.7492.697,13.4921,1.4546c2.1168.2386,4.2513.6,6.3773.7391.0947.0062.19.0229.2841.0344,1.3777.1681,2.0238-1.3591,1.8582-2.4393l-.7262-4.7389L380.0231,412.94l-2.9184-19.044-3.562-23.2447-3.8831-25.34-3.9388-25.7027-3.6725-23.9658-3.09-20.1619-2.2337-14.5765c-.3509-2.29-.59-4.6323-1.0577-6.9019-.02-.0968-.03-.1965-.0451-.2943a1.94,1.94,0,0,0-2.37-1.3459,1.9763,1.9763,0,0,0-1.3459,2.37l.7262,4.7389,1.9642,12.8174,2.9183,19.044,3.5621,23.2447,3.8831,25.34,3.9387,25.7027,3.6726,23.9658,3.09,20.1619,2.2338,14.5765c.35,2.2816.5548,4.6476,1.0576,6.9019.0215.0962.03.1968.0451.2943l1.8582-2.4393c-5.5005-.6713-11.011-1.2666-16.5215-1.8487q-20.0964-2.123-40.243-3.7341c-16.6362-1.3221-33.3-2.3764-49.982-2.901-15.1917-.4778-30.4795-.6472-45.6381.6416a117.8726,117.8726,0,0,0-17.23,2.5139c-3.8384.9109-7.937,2.1146-11.1393,4.5091a11.8848,11.8848,0,0,0-1.849,1.6479l3.29,1.3626c1.0979-12.5827,2.83-25.109,4.709-37.5957,2.2727-15.1049,4.8265-30.167,7.507-45.2044q4.0808-22.8915,8.534-45.7146,3.8283-19.7364,7.8539-39.4338,2.6517-12.9918,5.3866-25.9665c1.3943-6.6035,2.8272-13.16,6.09-19.1771a19.1369,19.1369,0,0,1,5.5744-6.7042,15.7886,15.7886,0,0,1,7.354-2.5751,64.4417,64.4417,0,0,1,6.56-.16h87.7788c2.48,0,2.484-3.8541,0-3.8541Z"/><path class="cls-4" d="M348.8888,206.814H257.8669c-11.6794,0-30.038,8.9489-35.0512,27.245,0,0-21.0572,144.8146-26.3361,205.55,17.5963-20.2451,193.9878-6.4234,193.9878-6.4234L380.19,345.8268c11.58-7.0429,12.8469-15.3244,12.8469-29.869,0-18.8632-18.1514-34.0373-35.6876-38.3408l-3.5852-23.3963"/><path d="M348.8888,204.8869H263.39c-1.8361,0-3.6726-.0116-5.5087,0a38.3238,38.3238,0,0,0-19.1968,5.8617c-9.0194,5.4526-16.5427,14.5915-18.0778,25.2208q-1.5594,10.7983-3.0853,21.6015-2.6768,18.9116-5.2783,37.8338-3.2108,23.3589-6.2873,46.736-3.1295,23.8476-6.034,47.7242c-1.6606,13.79-3.2543,27.59-4.5992,41.4142q-.405,4.1629-.77,8.33a1.9447,1.9447,0,0,0,3.29,1.3626,9.0186,9.0186,0,0,1,.714-.7255c.1227-.1116.2528-.2144.3763-.3248.4228-.3781-.3138.1989.1569-.1219a21.1458,21.1458,0,0,1,2.1237-1.2994c.4118-.2149.8306-.4161,1.254-.607.18-.0814.781-.3344.2661-.1211.2529-.1048.5065-.2079.7616-.3073,1.0271-.4,2.0726-.7526,3.127-1.0733A76.0328,76.0328,0,0,1,214.11,434.57q2.18-.428,4.3757-.7738,1.1611-.1851,2.325-.352c.99-.1425,1.2491-.1771,2.0883-.2852,7.3052-.9408,14.66-1.49,22.013-1.8759,8.4282-.4425,16.8678-.6529,25.3067-.7359,8.9949-.0886,17.991-.0276,26.9848.131q13.2809.2343,26.5553.7329,12.2649.45,24.5224,1.0758,10.2057.5177,20.4055,1.1446,7.3148.4494,14.6257.9585c2.2794.16,4.5729.4236,6.857.4993.0993.0033.1991.0153.2983.0231a1.93,1.93,0,0,0,1.927-1.927l-1.0207-8.6762-2.4518-20.84-2.9674-25.2226-2.5674-21.8227-.8475-7.2042a25.3486,25.3486,0,0,0-.4043-3.4364,1.1563,1.1563,0,0,1-.0184-.1562l-.9544,1.6639c4.7888-2.94,8.9285-6.7891,11.1539-12.0351,2.2421-5.2857,2.5507-11.1723,2.63-16.8429a40.8666,40.8666,0,0,0-.8066-9.8,35.02,35.02,0,0,0-3.423-8.8815,46.8585,46.8585,0,0,0-13.0341-14.6562,55.0265,55.0265,0,0,0-19.8215-9.5165l1.3459,1.3459-3.14-20.49-.4454-2.9061a1.94,1.94,0,0,0-2.37-1.3459,1.9762,1.9762,0,0,0-1.3459,2.37l3.14,20.49.4453,2.9061a1.88,1.88,0,0,0,1.3459,1.346c11.5025,2.8672,22.6241,9.9306,29.117,19.989a30.62,30.62,0,0,1,5.1547,16.3147c.0431,5.3963.0123,11.0478-1.6134,16.2459-1.6862,5.3919-5.55,9.2353-10.2779,12.138a1.8961,1.8961,0,0,0-.9544,1.664l1.0207,8.6761,2.4518,20.84,2.9674,25.2226,2.5673,21.8226.8476,7.2043a27.9847,27.9847,0,0,0,.4043,3.4363,1.2675,1.2675,0,0,1,.0184.1563l1.927-1.9271c-1.5894-.1244-3.18-.2393-4.77-.3533q-6.4813-.465-12.9665-.8746-9.6973-.6171-19.4009-1.1346-11.9446-.6378-23.8969-1.1209-13.2451-.5314-26.4981-.8363-13.5357-.3009-27.0761-.2816c-8.6777.0266-17.3567.1756-26.0272.54-7.6637.3221-15.3275.8013-22.9539,1.6353a135.9566,135.9566,0,0,0-18.284,3.016c-3.9919,1-8.282,2.2609-11.6262,4.754a11.7908,11.7908,0,0,0-1.851,1.6438l3.29,1.3626c1.1174-12.8329,2.5408-25.6393,4.0294-38.4338q2.7093-23.2863,5.7467-46.533,3.0356-23.5253,6.2466-47.0274,2.75-20.2035,5.5917-40.3946,1.8607-13.2327,3.76-26.46.4042-2.8122.8113-5.6242a15.7332,15.7332,0,0,1,.8356-2.9713,32.8632,32.8632,0,0,1,6.3684-10.7455,38.74,38.74,0,0,1,19.2464-11.7514,34.7272,34.7272,0,0,1,8.8042-.9268h89.0422c2.48,0,2.484-3.8541,0-3.8541Z"/><polygon class="cls-2" points="306.748 211.683 302.941 179.55 260.047 166.754 263.096 209.738 283.161 209.789 295.788 219.89 306.748 211.683"/><path d="M308.6753,211.6831l-3.3331-28.1344-.4737-3.9984a2.02,2.02,0,0,0-1.4147-1.8582l-14.5044-4.3269-23.1048-6.8925-5.2853-1.5767a1.941,1.941,0,0,0-2.4393,1.8582l1.0293,14.5116,1.6417,23.1427.378,5.3293a1.9668,1.9668,0,0,0,1.9271,1.927l20.0651.0513-1.3626-.5644,12.6267,10.1013a1.9779,1.9779,0,0,0,2.3352.3014l10.96-8.2074a1.9908,1.9908,0,0,0,.6913-2.6365,1.9387,1.9387,0,0,0-2.6365-.6913l-10.96,8.2073,2.3352.3013L284.9654,208.78a3.3187,3.3187,0,0,0-1.9978-.9181c-.9006-.0388-1.81-.0047-2.7116-.007l-9.9534-.0254-7.2065-.0184,1.927,1.927-1.0294-14.5116-1.6416-23.1427-.3781-5.3293-2.4393,1.8582,14.5043,4.3269,23.1049,6.8925,5.2853,1.5767-1.4148-1.8582,3.3332,28.1344.4736,3.9984a1.9868,1.9868,0,0,0,1.9271,1.927A1.9388,1.9388,0,0,0,308.6753,211.6831Z"/><path class="cls-2" d="M283.0254,183.2847a70.5563,70.5563,0,0,0,26.4014,4.0325c42.238-8.6089,17.5236-82.0937,17.5236-82.0937l-80.168,3.3556s-9.0538,17.9167-7.6777,25.7367c2.37,13.4673,16.347,22.1564,21.3594,39.3671"/><path d="M282.5131,185.1429a70.866,70.866,0,0,0,23.36,4.1087,20.8916,20.8916,0,0,0,5.5318-.4075,32.0418,32.0418,0,0,0,3.2085-.9756,30.171,30.171,0,0,0,5.846-2.8227c7.0552-4.4674,11.3794-11.8153,13.5189-19.7438,2.2441-8.3162,2.4217-17.1421,1.7648-25.6838a152.6116,152.6116,0,0,0-3.7427-23.3319,110.1,110.1,0,0,0-3.1377-11.4112c-.0192-.0542-.0359-.1094-.0542-.1639a1.9731,1.9731,0,0,0-1.8582-1.4148L299.8759,104.43l-43.1672,1.8069-9.9263.4155a1.9321,1.9321,0,0,0-1.664.9544c-1.2415,2.4609-2.348,4.9942-3.406,7.5381a62.1847,62.1847,0,0,0-4.3205,13.691,17.9514,17.9514,0,0,0-.061,6.4428,29.0122,29.0122,0,0,0,2.65,7.4067c2.4114,4.7907,5.81,9.0067,8.94,13.3332,4.0608,5.613,7.7032,11.487,9.6848,18.1769.7027,2.3727,4.4234,1.3625,3.7163-1.0246a58.3213,58.3213,0,0,0-8.1846-16.43c-3.075-4.4642-6.5508-8.6662-9.3446-13.32-2.3025-3.8357-4.2218-8.1361-3.8294-12.4253.412-4.5033,2.131-8.9929,3.7905-13.1681,1.1146-2.8041,2.3325-5.5806,3.6921-8.2756l-1.6639.9545,27.0744-1.1333,43.1673-1.8069,9.9263-.4155-1.8582-1.4148c.9815,2.9219,1.782,5.9131,2.5375,8.9a156.7559,156.7559,0,0,1,3.8679,20.8225c.9032,8.1525,1.143,16.7563-.2992,24.6491-1.3775,7.5392-4.224,14.6606-10.0373,19.6638a26.2979,26.2979,0,0,1-10.3042,5.2348,16.8738,16.8738,0,0,1-4.7506.3961c-2.118-.0317-4.2354-.1395-6.3447-.3346a65.041,65.041,0,0,1-11.2121-2.0229q-2.5414-.6972-5.0119-1.6175c-2.3291-.8625-3.3342,2.8611-1.0245,3.7163Z"/><path d="M271.8072,145.1345a42.4278,42.4278,0,0,0-2.2159-4.8459c-1.3629-2.5607-3.0411-5.2366-5.495-6.879a5.4117,5.4117,0,0,0-4.6012-.79,1.9275,1.9275,0,0,0,1.0245,3.7164c.1213-.0391.2447-.0641.367-.0986.3719-.105-.487.0071-.1058.0162.1207.003.2431,0,.3643.0014.4414.0068-.4635-.1221-.03.0014.1064.03.214.0534.32.0874.0529.0171.1057.0406.159.0554.2609.0726-.21-.0848-.223-.0974a4.8625,4.8625,0,0,0,.7029.3846c.1181.0763.2288.1631.3457.2409.1918.1276-.3343-.2809-.162-.1245.0481.0437.1011.0826.1508.1247.2456.2079.4791.43.703.6607.198.2041.3883.4157.5725.6323.0946.1113.1864.2247.2787.3378.0332.0406.2643.3336.0548.0667-.2-.2551.0089.0143.052.0722a32.9242,32.9242,0,0,1,3.5545,6.3389c.0937.2116.1833.425.2762.637-.3209-.7323-.05-.1171.0272.0731.0556.1371.111.2743.1635.4126a1.9714,1.9714,0,0,0,2.37,1.3459,1.949,1.949,0,0,0,1.346-2.37Z"/><path d="M303.863,124.8841c-5.3778-3.0967-12.4846-2.3734-17.53.9675a1.9717,1.9717,0,0,0-.6914,2.6365,1.9465,1.9465,0,0,0,2.6366.6913,14.3323,14.3323,0,0,1,5.2809-2.2171,12.1162,12.1162,0,0,1,2.21-.1921q.6261-.002,1.2511.0477c.1654.0131.33.03.4954.0475q.2115.0254-.0325-.0082.14.02.2792.0426a18.0464,18.0464,0,0,1,3.2747.89c.5771.2136-.2627-.135.1622.0666.1274.06.2563.1172.3826.18.1131.0562.2263.1129.3358.176,2.1532,1.24,4.0964-2.0892,1.9452-3.3279Z"/><path d="M331.077,122.3411a18.3144,18.3144,0,0,0-5.7056-.9953c-3.2157-.1375-6.5.3-9.1394,2.2648a11.24,11.24,0,0,0-4.4411,7.3909,15.0147,15.0147,0,0,0,1.5247,8.16,29.4661,29.4661,0,0,0,6.9024,9.3532l-.4955-.85a3.5235,3.5235,0,0,1,.12.6807c.0049.0646-.069.6207-.0058.2984-.0292.1488-.0937.23-.0052.127-.1656.193.0153.0672-.3028.2433-.9947.5508-2.7581.439-3.9985.3719-2.4784-.1342-2.4709,3.72,0,3.854,2.8229.1528,6.7937-.0254,7.9084-3.2141a4.5558,4.5558,0,0,0-.6733-4.4045,37.0765,37.0765,0,0,1-4.1845-4.87c-1.6427-2.4763-3.2769-5.6718-3.0494-8.7367a7.4118,7.4118,0,0,1,5.6309-6.539,15.9224,15.9224,0,0,1,8.89.5826,1.9438,1.9438,0,0,0,2.3705-1.346,1.9686,1.9686,0,0,0-1.3459-2.37Z"/><circle cx="324.571" cy="134.6904" r="2.8077"/><path d="M320.8052,134.8644a3.7664,3.7664,0,0,0,6.8407,2.0009,3.7691,3.7691,0,0,0,.0752-4.2461,3.7694,3.7694,0,0,0-6.9159,2.2452.9635.9635,0,1,0,1.927,0c-.0063-.13.0005-.2583.0024-.3882.0037-.2477-.0518.1935.0049-.0453.0115-.0487.02-.0982.0314-.147a3.4311,3.4311,0,0,1,.1115-.3547c-.0815.2271.0021.0043.0242-.0385q.05-.0978.1085-.1914c.0312-.05.0756-.0994.1016-.1522.06-.12-.1479.1559.007-.0064.0845-.0884.1642-.1789.2557-.2609.0364-.0326.0739-.0636.1115-.0948-.1844.1528.0054.0026.0427-.0215.1145-.0741.24-.126.3565-.1953.1194-.071-.211.061.0125-.0006.06-.0166.12-.0391.18-.0557s.1241-.0276.1853-.0443c.2344-.0636-.1387.0032.0116-.006.1306-.0081.259-.018.39-.0136.064.0022.1278.0108.1916.0128-.2329-.0075-.0144.0007.0428.0129.1227.0261.2389.0664.3585.1022.23.0689-.1679-.0977.0421.0172.043.0236.0876.0438.1306.0675a3.37,3.37,0,0,1,.3086.1968c-.1754-.1229-.0376-.03.004.01.0612.0594.1252.1153.184.1776.0335.0355.0644.0732.0976.1089.1621.174-.0956-.166.0275.038.0638.1057.1319.2065.1879.3172.0224.0442.0434.0891.0636.1343-.0993-.2223-.0042.0088.0089.05q.0229.0721.0419.1455c.0068.0259.0708.314.0424.1729-.0307-.1525.0073.0941.0079.1047.0032.0521.0051.1044.0054.1566.0006.0775-.0053.1542-.0078.2316-.0059.179.0016.0066.0079-.0292a3.2225,3.2225,0,0,1-.0833.3656c-.0214.0713-.0474.1405-.0724.2105.0542-.1514.0223-.0515-.0242.0385-.0566.11-.1238.2095-.1889.3139-.1186.19.0973-.0783-.0048.0081a1.7792,1.7792,0,0,0-.1216.1363c-.0848.0888-.1762.1674-.269.2475.1532-.1321.06-.0445.0185-.0193-.0843.0511-.1647.1066-.2516.1536-.0436.0235-.0884.0441-.1323.067-.2134.1111.1872-.0478-.0463.016-.11.03-.2165.0678-.3283.0919-.0567.0123-.2325.0353-.01.01q-.0975.0111-.1953.0159a3.5079,3.5079,0,0,1-.4252-.0111c.2483.0179.0076-.0019-.0428-.0128-.0731-.0157-.1458-.0343-.2174-.0558a1.7224,1.7224,0,0,0-.1758-.0594q-.1-.0381.0593.0269-.067-.03-.1325-.0641a3.2539,3.2539,0,0,1-.3734-.2314c.0279.02.1492.1307.0234.0143-.0537-.05-.1088-.0974-.16-.1493s-.0993-.1071-.1485-.1615c-.1577-.1742.0976.1617-.0275-.0379-.0794-.1266-.1517-.2514-.2206-.3839-.1086-.2089.0342.1294-.0032-.011-.0226-.0848-.0564-.1668-.0785-.2522-.0128-.0493-.0222-.0992-.0343-.1487q-.0282-.1647-.002.0273-.0092-.0778-.014-.1561a.9635.9635,0,0,0-1.927,0Z"/><circle cx="298.1774" cy="136.3289" r="2.8077"/><path d="M294.4116,136.5028a3.7665,3.7665,0,0,0,6.8408,2.001,3.7691,3.7691,0,0,0,.0752-4.2461,3.7694,3.7694,0,0,0-6.916,2.2451.9635.9635,0,1,0,1.927,0c-.0063-.13,0-.2582.0025-.3882.0036-.2476-.0518.1935.0048-.0452.0115-.0488.02-.0982.0314-.147a3.424,3.424,0,0,1,.1116-.3547c-.0816.227.002.0043.0241-.0385q.0505-.0978.1086-.1915c.0311-.05.0755-.0994.1016-.1521.0595-.1206-.148.1559.007-.0064.0844-.0885.1641-.1789.2556-.2609.0364-.0327.0739-.0637.1115-.0949-.1844.1529.0054.0027.0428-.0215.1145-.0741.24-.126.3565-.1952.1193-.0711-.2111.061.0124-.0006.06-.0167.12-.0391.18-.0557s.1242-.0277.1854-.0443c.2343-.0636-.1388.0032.0115-.0061.1306-.008.2591-.018.39-.0135.0639.0022.1277.0107.1915.0128-.2328-.0075-.0144.0006.0429.0128.1227.0261.2388.0665.3585.1023.23.0688-.168-.0978.042.0172.043.0235.0877.0438.1306.0674a3.3362,3.3362,0,0,1,.3086.1969c-.1753-.123-.0375-.03.004.01.0613.06.1252.1154.184.1776.0335.0356.0644.0733.0977.109.162.1739-.0957-.1661.0274.0379.0638.1057.1319.2066.1879.3172.0224.0442.0434.0891.0636.1343-.0992-.2222-.0042.0089.0089.05q.023.0722.0419.1455c.0068.0259.0708.314.0424.1729-.0307-.1525.0073.094.0079.1046.0032.0521.0051.1044.0055.1566,0,.0776-.0054.1542-.0079.2316-.0059.179.0016.0067.008-.0292a3.2413,3.2413,0,0,1-.0834.3657c-.0214.0713-.0473.14-.0724.21.0542-.1514.0223-.0515-.0242.0385-.0565.11-.1238.2095-.1889.3138-.1186.19.0974-.0782-.0048.0082-.0445.0377-.081.0938-.1216.1362-.0848.0889-.1761.1675-.269.2475.1533-.1321.06-.0444.0185-.0192-.0843.051-.1647.1066-.2516.1535-.0436.0236-.0884.0442-.1323.067-.2133.1111.1872-.0478-.0463.0161-.11.03-.2164.0677-.3282.0919-.0568.0122-.2326.0353-.01.01-.065.0073-.13.0127-.1954.0159a3.5267,3.5267,0,0,1-.4251-.0111c.2483.0179.0075-.002-.0429-.0128q-.11-.0237-.2174-.0558a1.7231,1.7231,0,0,0-.1758-.06q-.1-.0381.0593.027-.067-.03-.1325-.0641a3.2767,3.2767,0,0,1-.3734-.2314c.0279.0195.1492.1307.0234.0142-.0536-.05-.1088-.0974-.16-.1493s-.0994-.1071-.1486-.1614c-.1577-.1742.0976.1616-.0275-.038-.0793-.1266-.1516-.2513-.22-.3838-.1087-.2089.0341.1294-.0033-.011-.0225-.0848-.0564-.1669-.0785-.2522-.0128-.0493-.0222-.0993-.0343-.1488q-.0282-.1646-.002.0273-.0092-.0778-.014-.1561a.9635.9635,0,0,0-1.927,0Z"/><path class="cls-2" d="M311.3225,160.11l-8.8379-3.3167.1262,1.5956a4.0552,4.0552,0,0,0,6.0162,3.2229Z"/><path d="M311.8348,158.2515l-7.7382-2.904-1.1-.4127a1.9363,1.9363,0,0,0-2.4393,1.8582c.0647.8187.0982,1.6494.2377,2.46a5.9365,5.9365,0,0,0,2.4778,3.7436,5.794,5.794,0,0,0,3.9557,1.0183,8.0984,8.0984,0,0,0,3.0249-1.1037l2.0414-1.1374a1.9273,1.9273,0,0,0-1.9452-3.3278l-1.5.8357-.9438.5258c-.0756.0421-.1508.0849-.2268.1263l-.0249.0139c-.07.0377-.1413.0717-.2105.11-.2441.1338.0764-.0688.14-.0551-.0721-.0154-.2967.1019-.378.1243a1.7494,1.7494,0,0,0-.3807.0857c.0273-.0171.503-.04.1854-.026-.0544.0023-.1087.0081-.1631.0107-.1446.0069-.288-.0019-.4324-.0029-.4513-.0033.3458.0832.0338.011-.1212-.028-.2431-.0506-.3632-.0841a1.7264,1.7264,0,0,0-.3531-.1158c-.005,0,.3842.1861.2158.0919-.0767-.0429-.16-.0757-.2376-.1173-.1094-.0586-.2126-.1258-.3186-.19-.3522-.2132.2328.2225.0068.0165a5.1407,5.1407,0,0,0-.5252-.53c.2443.1576.212.3017.1065.1327-.0286-.0458-.0606-.09-.09-.1353q-.1024-.161-.19-.331a1.3341,1.3341,0,0,0-.0945-.1989c.0122.015.1178.38.0913.202-.0214-.144-.0951-.29-.1292-.4339-.0133-.056-.0228-.1131-.0368-.1688-.0962-.3825.0184.3358.0111.1051-.0013-.0424-.0075-.0866-.011-.129-.0144-.1723-.0273-.3447-.0409-.517l-.08-1.0089-2.4393,1.8582,7.7382,2.904,1.1.4127a1.936,1.936,0,0,0,2.37-1.3459A1.98,1.98,0,0,0,311.8348,158.2515Z"/><path class="cls-4" d="M242.1246,284.9178,134.1665,334.7932l-32.0927,76.9352a64.9721,64.9721,0,0,1-72.9479-41.0659v0a64.9722,64.9722,0,0,1,23.008-75.5836l109.9129-78.758a49.7415,49.7415,0,0,1,29.4951-9.6884h66.366"/><path d="M241.1519,283.2539l-7.9968,3.6944-19.9923,9.2362-25.99,12.007-25.889,11.96-20.03,9.2535-5.9012,2.7263a19.1986,19.1986,0,0,0-2.1586.9973c-1.02.6405-1.5579,2.7628-1.9992,3.8206l-3.2173,7.7129-10.1326,24.2907-10.8823,26.0879-6.437,15.4315-.31.7435,1.3459-1.346a63.0528,63.0528,0,0,1-47.86-113.5538l17.192-12.3189,31.8976-22.8562,33.6381-24.1033,23.0754-16.5347q1.7571-1.2591,3.5144-2.5182a48.9541,48.9541,0,0,1,28.6994-9.4256q14.6974-.02,29.3952,0h36.7943c2.48,0,2.484-3.8541,0-3.8541H195.9171c-1.4408,0-2.8818-.0041-4.3226,0a52.5147,52.5147,0,0,0-20.6652,4.3046c-4.81,2.0735-8.9976,5.0325-13.2161,8.0552l-12.9083,9.2494-19.4627,13.946-22.37,16.0292L81.0811,271.9759l-18.0172,12.91-10.509,7.53a72.8422,72.8422,0,0,0-16.6163,16.0455A66.9232,66.9232,0,0,0,83.13,414.4385a64.7355,64.7355,0,0,0,9.9379.2842q2.5249-.1225,5.0354-.44c.8338-.1056,1.6667-.22,2.4969-.3514.89-.1405,2.1737-.1633,2.8367-.84.7454-.761,1.1372-2.3883,1.5338-3.3391l2.9237-7.0091,9.4053-22.547,10.4478-25.0465,7.2209-17.3106,1.0568-2.5334-.8856,1.1517,10.7529-4.9677,25.817-11.9272L202.8185,305.19l26.9923-12.47,8.8684-4.0971c1.4012-.6474,2.8808-1.219,4.2373-1.9576.0578-.0315.1208-.0558.1807-.0835a1.9448,1.9448,0,0,0,.6913-2.6365,1.9692,1.9692,0,0,0-2.6366-.6913Z"/><path class="cls-1" d="M216.8712,158.6511C215.6085,91.73,233.2859,86.0477,263.88,72.2793c44.18-19.8824,65.694-1.1048,75.9026,19.8372l2.1583,4.6311L334.6055,108.39a14.81,14.81,0,0,1-9,3.3241c-14.0606.38-30.0539.39-38.3335.0405a10.8917,10.8917,0,0,0-11.3344,11.4712l1.1194,20.7825c-1.0261-9.5448-9.9767-21.6542-16.8171-20.9189s-11.85,3.6048-10.7972,13.3981c.5414,5.0362,4.6745,12.627,8.4153,16.9594a20.9982,20.9982,0,0,1,4.4834,8.8394v0a21.3947,21.3947,0,0,1-15.9932,25.8394l-3.5924.829"/><path d="M333.2428,107.0277a13.0426,13.0426,0,0,1-5.2238,2.4635,31.2163,31.2163,0,0,1-6.1871.3883q-6.6158.1452-13.2334.1856c-7.2307.0456-14.4491-.1945-21.6756-.2465a12.9526,12.9526,0,0,0-12.9256,13.0584c.0648,3.2468.3448,6.502.5194,9.7442l.6133,11.3874h3.8541a30.248,30.248,0,0,0-4.2085-11.9415,27.33,27.33,0,0,0-8.1339-8.986c-3.0651-2.011-6.1446-2.2044-9.6469-1.4069a12.1216,12.1216,0,0,0-7.8141,5.0642c-2.0847,3.306-2.1432,7.7481-1.4092,11.4666a36.23,36.23,0,0,0,5.6057,12.4454c1.2523,1.9006,2.8019,3.5585,4.0966,5.418a19.8421,19.8421,0,0,1,3.01,6.7305,19.44,19.44,0,0,1-8.9634,21.2005c-2.8794,1.7149-6.0577,2.3547-9.2763,3.0975-2.4158.5575-1.3932,4.2743,1.0246,3.7164a43.4024,43.4024,0,0,0,7.7436-2.2329,23.3233,23.3233,0,0,0,11.9059-30.596c-1.7981-4.1957-5.16-7.3715-7.459-11.28-2.1082-3.5838-4.0249-7.5656-4.2089-11.7853-.1263-2.8936.3752-6.0813,2.7684-7.8566a11.5107,11.5107,0,0,1,7.5557-2.021c3.5833.629,6.5518,4.0809,8.5242,6.8862a27.0994,27.0994,0,0,1,5.0319,12.0811,1.9861,1.9861,0,0,0,1.9271,1.9271,1.9452,1.9452,0,0,0,1.927-1.9271c-.3676-6.8248-.7582-13.6488-1.1028-20.4748a9.1108,9.1108,0,0,1,9.3908-9.8519q10.5541.2982,21.1067.2386,7.2858-.044,14.57-.2122a26.4363,26.4363,0,0,0,7.0866-.7631,17.7316,17.7316,0,0,0,5.9326-3.1923,1.94,1.94,0,0,0,0-2.7252,1.972,1.972,0,0,0-2.7253,0Z"/><path d="M218.7982,158.6511a241.39,241.39,0,0,1,.93-28.7879,97.6017,97.6017,0,0,1,3.95-20.1564,48.2213,48.2213,0,0,1,6.7461-13.6663,44.9085,44.9085,0,0,1,9.1405-9.0324A80.4683,80.4683,0,0,1,251.5817,80.02c5.0942-2.49,10.29-4.8333,15.5056-7.0578,15.0666-6.426,33.3885-10.7238,48.9376-3.355C326.8,74.7137,334.01,84.2734,338.9392,94.8493l1.338,2.8709c1.0468,2.2461,4.37.2912,3.3278-1.9452a85.1448,85.1448,0,0,0-7.6812-13.9643,49.375,49.375,0,0,0-13.8744-13.3038c-14.2921-8.8968-31.87-7.6111-47.2791-2.5463a200.1974,200.1974,0,0,0-21.3654,8.9431,107.8079,107.8079,0,0,0-13.0635,6.921,49.2336,49.2336,0,0,0-10.7423,9.0981,48.2654,48.2654,0,0,0-8.0644,13.4365,80.9285,80.9285,0,0,0-4.8373,18.8752,194.1612,194.1612,0,0,0-1.8115,27.12q-.0238,4.1484.0583,8.2962c.0452,2.4771,3.8994,2.4851,3.854,0Z"/><path class="cls-2" d="M29.1259,370.6624v0a64.9721,64.9721,0,0,0,72.9479,41.0659l194.61-36.8771-5.6254-65.3722L102.6,328.48"/><path d="M27.2677,371.1747A66.8843,66.8843,0,0,0,102.73,413.5594q4.7715-.8985,9.541-1.8079l21.7644-4.1242,29.85-5.6563,34.0356-6.4495,34.3846-6.5157,30.501-5.78,22.7876-4.318c3.7-.7012,7.43-1.315,11.1124-2.1058.1623-.0348.3268-.0619.49-.0928a1.9279,1.9279,0,0,0,1.4148-1.8582l-1.91-22.1955-3.0178-35.07-.6976-8.1072c-.0823-.9559-.82-2.0387-1.927-1.927l-5.0212.5062-13.7511,1.3864-20.2472,2.0414-24.697,2.49-27.1862,2.7409-27.3123,2.7537-25.4718,2.5681-21.629,2.1807-15.4765,1.56c-2.4483.2469-4.899.4768-7.3455.7406-.1069.0116-.2139.0216-.3209.0324-2.4443.2464-2.47,4.103,0,3.854l5.0212-.5062,13.7511-1.3864,20.2472-2.0414,24.6969-2.49,27.1863-2.741,27.3123-2.7537,25.4718-2.5681,21.6289-2.1806,15.4765-1.56c2.4159-.2436,4.9568-.2909,7.3456-.7406.1043-.02.215-.0217.3209-.0324l-1.9271-1.927,1.91,22.1955,3.0178,35.07.6976,8.1072,1.4148-1.8582-7.5339,1.4276-20.02,3.7936L239.9848,383.64,206.61,389.9643l-34.2431,6.4888-31.2394,5.92-24.3633,4.6167-13.6148,2.58a65.7368,65.7368,0,0,1-28.7243-.574,63.4519,63.4519,0,0,1-38.2239-28.183A62.5118,62.5118,0,0,1,30.9841,370.15c-.8614-2.302-4.5882-1.3052-3.7164,1.0246Z"/><path class="cls-4" d="M102.6,328.48l95.562-9.6348c-1.15,9.4509-.8552,22.4878,1.16,36.7048,2.0474,14.4414,16.2718,39.2858,20.0746,48.0587L110.1758,416.2352c-42.2993,5.682-69.9675-15.9559-81.05-45.5727v0"/><path d="M102.6,330.4068l9.4819-.9559,22.7787-2.2966,27.6969-2.7925,23.8388-2.4035,7.8342-.79a31.4665,31.4665,0,0,0,3.7654-.38,1.3661,1.3661,0,0,1,.1661-.0167l-1.927-1.9271a118.002,118.002,0,0,0-.4774,19.8328c.1959,3.9362.5308,7.8654.9827,11.78a76.5344,76.5344,0,0,0,1.4534,9.3228,99.492,99.492,0,0,0,5.5742,15.6577c2.32,5.3973,4.8833,10.6866,7.5012,15.9446,2.18,4.38,4.5085,8.7106,6.4637,13.1978l1.6639-2.9-21.74,2.5133-44.4582,5.14-36.8852,4.2642c-2.0454.2364-4.0926.46-6.1365.7094-11.4592,1.3957-23.0145,1.2718-34.1982-1.8477a65.277,65.277,0,0,1-25.5057-13.6747,70.2489,70.2489,0,0,1-16.8116-22.37q-.727-1.5068-1.39-3.0439-.3229-.7514-.6252-1.5115-.17-.4255-.3357-.853c-.03-.0766-.2576-.9706-.2576-.3454,0-2.48-3.854-2.484-3.854,0a10.2257,10.2257,0,0,0,1.193,3.353c.4937,1.1843,1.0059,2.3607,1.55,3.5227q1.5419,3.293,3.3888,6.4311A74.286,74.286,0,0,0,41.9615,395.78a68.1508,68.1508,0,0,0,23.63,17.0619,79.3761,79.3761,0,0,0,32.3349,6.2248,145.4136,145.4136,0,0,0,15.2183-1.2477l33.3444-3.8548,45.9052-5.307c8.8709-1.0255,17.745-2.0267,26.6131-3.0766.13-.0153.2591-.03.3886-.0449a1.9628,1.9628,0,0,0,1.664-2.9c-1.64-3.7634-3.5661-7.4059-5.4033-11.0748-2.5367-5.0658-5.0426-10.1492-7.3565-15.3214a113.2723,113.2723,0,0,1-5.9076-15.64c-1.7593-6.2908-2.2231-12.9706-2.641-19.4635a122.15,122.15,0,0,1,.3367-22.2914,1.9289,1.9289,0,0,0-1.927-1.927l-9.4819.956-22.7787,2.2966-27.6969,2.7925-23.8388,2.4034c-3.8658.39-7.7381.7394-11.6,1.17-.0553.0062-.1107.0112-.1661.0168a1.9816,1.9816,0,0,0-1.927,1.927,1.94,1.94,0,0,0,1.927,1.927Z"/><path d="M219.2253,403.74c-3.3765.4788-7.17-4.19-10.6391-12.1947l17.5741-3.33C225.1,397.3573,222.7115,403.2457,219.2253,403.74Z"/><path d="M219.2253,401.8128c-.2021.0246-.4033.0132-.604.0306-.1317.0115-.4345-.0842.037.02-.09-.02-.185-.0287-.2735-.0564-.1223-.0384-.6509-.2152-.4594-.1353.2339.0976-.0765-.04-.1172-.0628-.1152-.0658-.2346-.1242-.349-.1919-.095-.0562-.1872-.1166-.28-.1759-.0357-.0228-.4058-.2843-.227-.1514.1537.1143-.1319-.1076-.1578-.13-.119-.1026-.2382-.2046-.3539-.3109a14.1442,14.1442,0,0,1-1.2794-1.3569,36.6159,36.6159,0,0,1-4.9107-8.72l-1.1516,2.8308,15.3562-2.91,2.2178-.42-2.4393-1.8582a38.4137,38.4137,0,0,1-2.31,10.0682,15.3549,15.3549,0,0,1-.7758,1.5338c-.1486.2526-.31.4947-.4747.7373-.2027.3.09-.0973-.046.0665-.0835.1-.1671.2-.2553.2966-.1675.1831-.3527.3418-.5292.5147-.1672.1638-.0544.0313.0607-.0429-.1135.0732-.221.1517-.3379.22-.0745.0434-.1588.0772-.23.1248-.3265.218.249-.0751.0483-.0186a5.8987,5.8987,0,0,1-.6705.1664,1.9414,1.9414,0,0,0-1.3459,2.37,1.9737,1.9737,0,0,0,2.37,1.3459c2.6833-.4313,4.4636-3.009,5.4868-5.31a41.4723,41.4723,0,0,0,2.8629-12.0728c.1592-1.346-1.3519-2.0643-2.4393-1.8582l-15.3562,2.91-2.2179.42c-1.347.2553-1.6039,1.7945-1.1516,2.8308A37.1557,37.1557,0,0,0,212.72,402.35c1.5906,1.8084,3.94,3.6282,6.5049,3.3165a1.9876,1.9876,0,0,0,1.927-1.9271A1.9386,1.9386,0,0,0,219.2253,401.8128Z"/><polygon class="cls-3" points="337.795 262.964 343.09 301.976 294.37 332.34 314.671 412.63 274.846 455.025 283.838 507.055 413.592 525.041 397.533 473.011 439.928 431.258 421.3 384.367 459.198 351.608 448.278 292.512 337.795 262.964"/><path d="M335.937,263.4767l4.6324,34.1279.6629,4.8835.8855-2.1762L325.6266,310.59l-26.1738,16.3126-6.0551,3.7738a1.9813,1.9813,0,0,0-.8856,2.1762l6.9005,27.2921,10.9067,43.1368,2.4934,9.8614.4955-1.8749-12.622,13.4363-21.0142,22.37-5.7546,6.126A2.6194,2.6194,0,0,0,273,455.6086c.1141.7278.2511,1.4527.3765,2.1786l4.5964,26.5934,2.5266,14.6181c.47,2.7179.8431,5.4745,1.4127,8.1736.0275.13.0456.2636.0683.395a1.8523,1.8523,0,0,0,1.3459,1.3459l12.9183,1.7906,31.018,4.3,37.3876,5.1824,32.4414,4.4968q7.8837,1.0929,15.7675,2.1856l.2206.0306c1.3592.1884,2.85-.8154,2.37-2.3705l-5.4459-17.6447-8.63-27.9622-1.9823-6.4229-.4956,1.8749,14.3168-14.1L436.04,437.7918l5.25-5.1707a1.889,1.889,0,0,0,.4955-1.8749l-6.3166-15.9006L425.4609,389.652l-2.3028-5.7969-.4956,1.8749,15.1105-13.0616,20.8785-18.0476c.6005-.519,1.2646-1.01,1.8226-1.5754a2.503,2.503,0,0,0,.486-2.4708l-1.4349-7.7655-5.4808-29.6606L451.55,299.647c-.448-2.4248-.7994-4.8931-1.3484-7.2976-.0263-.1151-.0431-.2332-.0646-.3494a1.898,1.898,0,0,0-1.3459-1.346L437.7819,287.71l-26.43-7.0685-31.8339-8.5136L351.8929,264.74c-4.4518-1.1905-8.8959-2.5613-13.3908-3.5812-.0653-.0148-.13-.0347-.1946-.0521-2.3987-.6415-3.422,3.0752-1.0246,3.7164l11.0087,2.9442,26.43,7.0684,31.8338,8.5137,27.6255,7.3882,9.0435,2.4187a39.6488,39.6488,0,0,0,4.3473,1.1626,1.7836,1.7836,0,0,1,.1945.052l-1.3459-1.3459L450.1,312.94l5.8927,31.89L457.34,352.12l.4955-1.8749-12.81,11.0731L424.614,378.9622l-4.6767,4.0426a1.8665,1.8665,0,0,0-.4956,1.8748l6.3166,15.9006,10.0085,25.1937,2.3028,5.7968.4956-1.8749-14.3168,14.1-22.8275,22.4816-5.25,5.1708a1.9222,1.9222,0,0,0-.4956,1.8749l5.4459,17.6447,8.63,27.9622,1.9824,6.4229,2.37-2.37-12.9182-1.7906-31.0181-4.3L332.78,511.91l-32.4415-4.4968-10.721-1.4861a41.398,41.398,0,0,0-5.0464-.7,1.81,1.81,0,0,1-.2207-.0306l1.346,1.3459-3.0294-17.5268-4.854-28.0843-1.1094-6.4187-.4956,1.8749,18.5681-19.7661c6.9935-7.4447,14.1186-14.7867,20.99-22.3444a2.6639,2.6639,0,0,0,.6576-2.5741c-.2334-1.0018-.5047-1.9963-.7568-2.9935l-3.336-13.1941-9.6871-38.313-4.1378-16.3652c-.7219-2.8553-1.2981-5.8025-2.178-8.6143-.04-.129-.0668-.264-.1-.3951l-.8856,2.1762,16.4912-10.278,26.1738-16.3126,6.0552-3.7738a2.0215,2.0215,0,0,0,.8855-2.1763l-4.6323-34.1278-.6629-4.8835a1.94,1.94,0,0,0-2.37-1.346A1.977,1.977,0,0,0,335.937,263.4767Z"/><path class="cls-2" d="M198.1618,320.1077l17.9979-1.8145,74.8988-7.5515,5.6254,65.3722L226.16,389.4777l-17.5741,3.33c-3.8028-8.7729-7.2169-21.5539-9.2643-35.9953C197.3066,342.5954,197.0119,329.5586,198.1618,320.1077Z"/><path d="M198.1618,322.0347,216.16,320.22l11.1481-1.124,24.6855-2.4888,25.4441-2.5654,8.9811-.9055a39.4379,39.4379,0,0,0,4.4427-.4479,1.7354,1.7354,0,0,1,.1967-.02l-1.9271-1.9271,1.9065,22.1543,3.0246,35.1486.6944,8.0693,1.4147-1.8582-10.5174,1.993-23.5174,4.4564-24.0094,4.55-12.3556,2.3413-16.9953,3.2205-.7026.1331,2.1762.8856a125.5141,125.5141,0,0,1-7.426-25.727,179.9312,179.9312,0,0,1-3.3891-31.5551,108.175,108.175,0,0,1,.6538-14.4454,1.9379,1.9379,0,0,0-1.927-1.927,1.9736,1.9736,0,0,0-1.927,1.927,131.88,131.88,0,0,0,.1738,28.5238,184.0642,184.0642,0,0,0,5.7292,31.4131,108.4494,108.4494,0,0,0,4.7845,13.7358,1.9518,1.9518,0,0,0,2.1762.8856l17.5341-3.3226,10.1089-1.9156,23.23-4.4019,24.1625-4.5786,8.6705-1.643c1.3912-.2637,2.83-.4471,4.2029-.7965.0616-.0156.1261-.0238.1886-.0357a1.9277,1.9277,0,0,0,1.4147-1.8582L296.7045,353.96,293.68,318.8111l-.6944-8.0694c-.0823-.9559-.82-2.0387-1.927-1.927L280.001,309.93l-24.6526,2.4855-25.47,2.5679-13.5081,1.3619-17.4483,1.7591-.7607.0767a1.9815,1.9815,0,0,0-1.927,1.927A1.94,1.94,0,0,0,198.1618,322.0347Z"/><path class="cls-2" d="M293.8939,375.1985h27.1474l31.3547-47.0321a9.9326,9.9326,0,0,0-5.82-15.1369L306.734,302.9139a32.7966,32.7966,0,0,0-17.9153.6647l-24.1361,7.8358a32.8043,32.8043,0,0,1-6.8825,1.4418l-30.8276,4.26"/><path d="M293.8939,377.1255h26.581a2.5734,2.5734,0,0,0,2.3357-1.1124c1.1782-1.6859,2.2846-3.427,3.4254-5.1382l14.9-22.3506,12.1891-18.2837c2.0372-3.0558,3.1712-6.3695,2.3941-10.0963-.99-4.7481-4.7432-7.9858-9.3025-9.1434l-22.7421-5.7741-12.2694-3.1151a65.2948,65.2948,0,0,0-8.8056-1.8588c-5.6842-.6372-11.1242.4386-16.4945,2.182l-12.5679,4.08c-3.0917,1.0037-6.1807,2.0161-9.2753,3.0112a60.9557,60.9557,0,0,1-10.4378,1.95l-25.37,3.5055-1.9942.2755a1.9382,1.9382,0,0,0-1.346,2.37,1.98,1.98,0,0,0,2.3705,1.3459l17.2644-2.3855,10.6516-1.4718a56.3447,56.3447,0,0,0,9.7941-1.8441c5.8987-1.8811,11.7784-3.8239,17.6672-5.7357,2.1521-.6987,4.3011-1.4082,6.4566-2.0961a31.3127,31.3127,0,0,1,17.1545-.6049c5.677,1.4182,11.3435,2.88,17.015,4.32l20.5751,5.2239c2.3047.5852,4.48,1.1364,6.135,3.0372a8.1552,8.1552,0,0,1,.41,9.9631c-2.6569,4.0246-5.35,8.0255-8.0254,12.038L329.04,359.7324l-9.1972,13.7958-.4652.6977,1.664-.9544H293.8939c-2.48,0-2.484,3.854,0,3.854Z"/><path class="cls-2" d="M318.1472,364.1128c8.07,5.9264,32.0786,12.85,48.1748,17.0535s17.2853,16.0385.3094,15.75c-13.222-.4207-27.8074-5.11-39.3675-9.8527a89.5742,89.5742,0,0,0-29.5975-6.6079l-.6153-.03c-7.1643-.353-57.18,6.4335-64.2222,7.7959"/><path d="M317.1746,365.7767a42.64,42.64,0,0,0,8.2349,4.3879c3.8289,1.6525,7.743,3.096,11.6906,4.4373,8.5825,2.9163,17.3119,5.4,26.07,7.7274,3.8111,1.0127,7.74,1.9656,10.9341,4.4124a8.9481,8.9481,0,0,1,2.3659,2.5831,3.2805,3.2805,0,0,1,.4455,1.1609c.0914.3568.0258.079.0151-.0088.0169.138.0185.2757.0257.4141.0056.1092-.0035.2183-.0075.3273-.0046.1279.0877-.2766-.0227.1293a3.0091,3.0091,0,0,1-1.2089,1.7295,10.0007,10.0007,0,0,1-3.9658,1.5374c-4.5851.9252-9.5991.2217-14.1622-.5156-10.2671-1.6589-20.202-4.9892-29.8134-8.8934a90.2117,90.2117,0,0,0-30.7974-6.71,83.4,83.4,0,0,0-11.1422.7925c-6.2365.6406-12.4616,1.395-18.6816,2.1787-11.0791,1.396-22.1869,2.7763-33.2043,4.6089-.5456.0907-1.0909.1836-1.6341.2879-2.4331.4675-1.4029,4.1828,1.0246,3.7164,3.8009-.73,7.6558-1.2238,11.486-1.77q9.4586-1.3479,18.9363-2.558c6.5785-.845,13.1623-1.6566,19.757-2.3664a125.1153,125.1153,0,0,1,12.781-1.046,68.1155,68.1155,0,0,1,12.09,1.2461,89.8076,89.8076,0,0,1,16.2094,4.4856c4.9854,1.8976,9.8944,3.9256,14.98,5.5558a119.6139,119.6139,0,0,0,15.6655,3.9648c5.0242.8879,10.3469,1.6692,15.4473,1.06,3.1666-.3785,6.7041-1.2746,8.7679-3.9075,4.3844-5.5932-2.4748-11.3684-7.1727-13.501-4.0082-1.82-8.3858-2.6907-12.6143-3.85-4.5793-1.2556-9.1439-2.5667-13.6815-3.9661-7.8876-2.4326-15.9981-4.932-23.32-8.8077a29.5673,29.5673,0,0,1-3.5526-2.17,1.9436,1.9436,0,0,0-2.6366.6914,1.968,1.968,0,0,0,.6914,2.6365Z"/><path class="cls-2" d="M312.2368,364.1974s33.2863,19.2308,60.7079,20.1033c16.9759.2885,15.7867-11.546-.3094-15.75s-40.1046-11.1271-48.1748-17.0536"/><path d="M311.2642,365.8613a169.7708,169.7708,0,0,0,15.8176,7.8872c11.0254,4.9106,22.5391,9.1147,34.4559,11.2239,5.8822,1.0411,12.3783,2.0332,18.2727.5816,3.6407-.8967,7.6481-3.4307,7.288-7.6928-.3821-4.5224-4.8692-7.62-8.6477-9.3025a56.99,56.99,0,0,0-8.6208-2.7422q-4.5723-1.2206-9.124-2.5166c-6.2315-1.779-12.4377-3.667-18.5514-5.8194a85.8615,85.8615,0,0,1-14.3851-6.1471,26.2174,26.2174,0,0,1-2.3363-1.5,1.9434,1.9434,0,0,0-2.6365.6913,1.9679,1.9679,0,0,0,.6913,2.6365c3.69,2.6781,8.1049,4.42,12.3224,6.0681,5.5627,2.1735,11.2527,4.02,16.9654,5.7556,5.76,1.75,11.56,3.3673,17.3793,4.9069,4.2436,1.1226,9.692,2.5545,12.2524,6.2171a4.0554,4.0554,0,0,1,.8218,1.7614c.1338.5222-.0061-.2439.0228.0743.0126.1378.01.2756.0193.4132.0056.0829-.058.61.0157.1361a4.5654,4.5654,0,0,1-.1557.6291c-.1493.49.1891-.308-.0646.1458-.0832.149-.1663.2956-.2621.4372-.309.4566.2465-.2527-.1395.1665q-.1906.2072-.3994.3955a8.0469,8.0469,0,0,1-1.8015,1.0511,19.1587,19.1587,0,0,1-7.5195,1.0548,65.0532,65.0532,0,0,1-8.5472-.8119c-11.5056-1.7951-22.7016-5.6462-33.3613-10.259a173.3642,173.3642,0,0,1-17.8268-8.7693c-2.1521-1.242-4.0951,2.0871-1.9452,3.3278Z"/><path class="cls-3" d="M243.3872,207.2638c0,24.7559,21.1993,44.8246,47.35,44.8246s47.35-20.0687,47.35-44.8246l-27.7787-3.788L297.6819,219.89l-16.4147-11.9953Z"/><path d="M241.46,207.2638a45.2652,45.2652,0,0,0,9.0446,26.9817,49.7223,49.7223,0,0,0,23.2693,16.9218c19.0519,6.69,41.4977,1.29,54.85-14.013a45.8,45.8,0,0,0,11.39-29.8905,1.94,1.94,0,0,0-1.4147-1.8582l-24.3672-3.3228-3.4115-.4652a2.0792,2.0792,0,0,0-2.1762.8855L296.018,218.9178l2.6365-.6913-9.8126-7.1708-5.5317-4.0424a3.9868,3.9868,0,0,0-2.4261-1.0516c-9.1043-.3222-18.2334-.3039-27.3421-.4557l-10.1548-.1693c-2.481-.0413-2.4815,3.8127,0,3.8541l33.2139.5535,4.6661.0778-.9726-.2631,16.4147,11.9954a1.97,1.97,0,0,0,2.6366-.6914l12.6266-16.4146-2.1762.8855,24.3672,3.3228,3.4115.4652-1.4148-1.8581c-.0724,18.3528-12.6277,34.4136-29.8052,40.2984-17.6878,6.06-38.0947,1.2-50.5649-12.8891a41.7078,41.7078,0,0,1-10.4758-27.4093C245.3045,204.7843,241.45,204.7794,241.46,207.2638Z"/><path class="cls-2" d="M318.2606,350.3232s33.2915,16.6091,60.0089,18.742c16.5518,1.0748,15.9444-10.5289.4342-15.3835s-38.6144-12.7322-46.2124-18.8924"/><path d="M317.288,351.9871c5.2861,2.6346,10.7566,4.94,16.2386,7.1284a185.5411,185.5411,0,0,0,33.9813,10.39c5.7079,1.0835,11.992,2.3067,17.7671,1.0707,3.57-.764,7.4153-3.1912,7.1468-7.3135-.2841-4.3633-4.4237-7.5134-7.9981-9.3366a55.3626,55.3626,0,0,0-8.4713-3.134q-4.2265-1.3485-8.4316-2.7638c-6.634-2.2373-13.2392-4.5947-19.7008-7.2948-4.6987-1.9635-10.1628-4.26-13.9661-7.307a1.9891,1.9891,0,0,0-2.7252,0,1.939,1.939,0,0,0,0,2.7252,52.09,52.09,0,0,0,11.37,6.4436c5.3327,2.401,10.802,4.4968,16.3039,6.4741,5.5583,1.9976,11.1639,3.8628,16.7926,5.6516,4.2125,1.3388,9.4754,2.845,12.0724,6.5539a4.7356,4.7356,0,0,1,.8615,1.82,1.8588,1.8588,0,0,1-.0765,1.2736c-.1878.4953.2009-.3258-.0614.1425-.0687.1225-.138.2426-.2139.3608-.1751.2725.2968-.3281-.0652.0931a5.1648,5.1648,0,0,1-.3791.3912,6.2244,6.2244,0,0,1-1.71.9989c-4.8212,1.8389-10.7256.62-15.6363-.2289a175.5473,175.5473,0,0,1-33.17-9.68c-6.0843-2.351-12.1421-4.8757-17.9836-7.7871-2.2133-1.1031-4.1677,2.22-1.9452,3.3279Z"/><path class="cls-2" d="M325.3264,338.761s33.31,15.9271,60.0771,17.3024c16.5755.6055,15.64-10.9764-.0018-15.39s-38.96-11.6332-46.729-17.5757"/><path d="M324.3538,340.4249c5.3737,2.5667,10.9333,4.7924,16.5054,6.8835a176.74,176.74,0,0,0,34.4221,9.58c5.6746.8925,12.0124,1.9655,17.6517.3611,3.6876-1.049,7.0742-3.8191,6.3627-8.013-.7193-4.24-5.1232-7.129-8.7354-8.7349a63.2929,63.2929,0,0,0-8.2769-2.7223q-4.4617-1.2884-8.9013-2.6513c-6.6746-2.0545-13.3225-4.2325-19.8324-6.7665-4.7632-1.8542-9.794-3.8213-13.9044-6.9276a1.941,1.941,0,0,0-2.6366.6913,1.972,1.972,0,0,0,.6913,2.6366c3.4715,2.6234,7.62,4.3611,11.61,6.0231,5.3644,2.2347,10.8628,4.1467,16.3853,5.95,5.5463,1.8107,11.1343,3.4934,16.7428,5.1,4.2143,1.2075,9.412,2.5914,12.1108,6.1284a5.1586,5.1586,0,0,1,.8779,1.6177,2.1589,2.1589,0,0,1,.058,1.3676,3.8563,3.8563,0,0,1-.1277.3864c.1683-.4122-.06.0825-.0971.1358a1.8847,1.8847,0,0,1-.4638.5773,5.1387,5.1387,0,0,1-1.6664,1.0709,17.0611,17.0611,0,0,1-6.9253,1.0373,66.7594,66.7594,0,0,1-8.7747-.8134,169.6938,169.6938,0,0,1-33.147-8.8647c-6.19-2.25-12.0945-4.5683-17.9839-7.3813-2.2271-1.0637-4.1847,2.2583-1.9452,3.3279Z"/><path class="cls-3" d="M312.4571,216.6114l2.9022,5.8044L329.88,206.6324c0-5.682-5.74-7.576-9.4193-7.576h-9.5769a8.0095,8.0095,0,0,0-7.5344,5.2921l-4.3629,11.9647a16.9412,16.9412,0,0,0-.9529,7.3686l2.5443,27.4352"/><path d="M310.7932,217.584l2.9021,5.8044a1.94,1.94,0,0,0,3.0266.39l13.2-14.3477a7.1693,7.1693,0,0,0,1.8164-2.286c.4017-1.4052-.2739-3.3924-.9094-4.6334a8.7756,8.7756,0,0,0-2.6331-2.9934c-3.276-2.4329-7.1911-2.3885-11.0586-2.3885-4.16,0-8.79-.6325-12.3027,2.0734-3.149,2.4257-4.0944,6.6934-5.3972,10.2663-1.428,3.9159-3.2573,7.88-3.3927,12.1056a62.4722,62.4722,0,0,0,.5773,7.6622c.6615,7.1336,1.2905,14.2711,1.9847,21.4017.0155.1594.03.3189.0444.4784a1.9793,1.9793,0,0,0,1.927,1.927,1.941,1.941,0,0,0,1.927-1.927l-2.47-26.6309a17.7171,17.7171,0,0,1,.8735-7.8363c.823-2.2871,1.6655-4.5672,2.4981-6.8507a36.7634,36.7634,0,0,1,2.2073-5.771,6.1076,6.1076,0,0,1,4.7309-3.0246c.8339-.07,1.69-.02,2.5247-.02,2.6039,0,5.2156-.0619,7.8187.0024,3.3818.0836,7.1849,1.7977,7.2646,5.6466l.5644-1.3626L315.81,219.082l-1.8135,1.9711,3.0266.39-2.9022-5.8044c-1.1093-2.2187-4.435-.2691-3.3278,1.9452Z"/><path class="cls-3" d="M295.7879,219.89l-9.5241-13.964a11.008,11.008,0,0,0-10.2006-6.87H256.0369a11.008,11.008,0,0,0-10.8284,9.0276l29.1141,14.9631,4.4193-9.47"/><path d="M297.4518,218.9178,291.24,209.81c-1.0176-1.492-2.0721-2.9654-3.0557-4.48-.41-.6314-.67-1.3328-1.0637-1.9781a13.28,13.28,0,0,0-3.9365-4.0807c-3.7635-2.5347-8.168-2.1419-12.4607-2.1419h-13.36a15.9577,15.9577,0,0,0-6.6472,1.157,12.9868,12.9868,0,0,0-7.3657,9.2853,1.9787,1.9787,0,0,0,.8856,2.1763l25.482,13.0964,3.6321,1.8666a1.95,1.95,0,0,0,2.6365-.6913l4.4193-9.47c1.0425-2.2339-2.2787-4.1933-3.3278-1.9452l-4.4194,9.47,2.6366-.6913-25.482-13.0964-3.6321-1.8667.8856,2.1762a9.3034,9.3034,0,0,1,5.4458-6.9162,11.8339,11.8339,0,0,1,4.7221-.6967h12.4628c3.1753,0,7.23-.5665,10.1852.8345a9.1416,9.1416,0,0,1,3.621,3.0332c.5014.728.8059,1.547,1.2628,2.2921.8268,1.3481,1.7931,2.629,2.6839,3.9351l6.6737,9.7847c1.3893,2.0371,4.73.1112,3.3278-1.9452Z"/><line class="cls-3" x1="507.3505" y1="316.6496" x2="476.3493" y2="346.1572"/><path d="M505.9879,315.287,495.56,325.2129l-16.7365,15.93-3.8364,3.6515c-1.8,1.7135.9281,4.4359,2.7253,2.7253l10.4283-9.9259,16.7365-15.93,3.8364-3.6516c1.8-1.7135-.9281-4.4358-2.7253-2.7252Z"/><line class="cls-3" x1="402.6719" y1="332.3375" x2="459.1982" y2="351.6078"/><path d="M402.16,334.1957l19.0846,6.5061,30.4346,10.3755,7.0071,2.3887c2.3527.8021,3.3628-2.9192,1.0245-3.7163l-19.0845-6.5061-30.4346-10.3755-7.0071-2.3888c-2.3527-.802-3.3628,2.9193-1.0246,3.7164Z"/><line class="cls-3" x1="313.3862" y1="412.6305" x2="373.7665" y2="427.4044"/><path d="M312.8739,414.4887l20.5107,5.0185,32.3982,7.9273,7.4714,1.8281c2.4087.5893,3.4364-3.1263,1.0245-3.7164l-20.5106-5.0186L321.37,412.6l-7.4713-1.8281c-2.4088-.5894-3.4365,3.1262-1.0246,3.7164Z"/></svg>